<?xml version="1.0" encoding="utf-8"?>
<!-- Generator: Adobe Illustrator 16.0.0, SVG Export Plug-In . SVG Version: 6.00 Build 0)  -->
<!DOCTYPE svg PUBLIC "-//W3C//DTD SVG 1.1//EN" "http://www.w3.org/Graphics/SVG/1.1/DTD/svg11.dtd">
<svg version="1.1" id="Layer_1" xmlns="http://www.w3.org/2000/svg" xmlns:xlink="http://www.w3.org/1999/xlink" x="0px" y="0px"
	 width="32px" height="32px" viewBox="0 0 32 32" enable-background="new 0 0 32 32" xml:space="preserve">
<g>
	<path d="M11.941,17.973c-0.111-0.016-0.223-0.003-0.333,0.036c-0.21,0.067-0.35,0.203-0.42,0.404
		c-0.015,0.042-0.027,0.102-0.036,0.18c-0.006,0.042-0.011,0.081-0.016,0.116c0.013,0.036,0.019,0.059,0.018,0.066
		c0.034,0.146,0.095,0.266,0.183,0.359c0.088,0.095,0.219,0.153,0.391,0.175c0.198,0.025,0.373-0.021,0.524-0.142
		c0.151-0.12,0.243-0.296,0.272-0.529c0.005-0.175-0.046-0.322-0.152-0.447C12.265,18.068,12.123,17.995,11.941,17.973z"/>
	<path d="M11.496,21.315c-0.276-0.036-0.496,0.075-0.661,0.335c-0.084,0.111-0.125,0.224-0.122,0.338
		c-0.022,0.172,0.028,0.334,0.153,0.486c0.125,0.151,0.287,0.24,0.484,0.266c0.302,0.04,0.532-0.079,0.69-0.356
		c0.044-0.073,0.073-0.161,0.086-0.265c0.032-0.241-0.051-0.448-0.248-0.623C11.769,21.396,11.642,21.334,11.496,21.315z"/>
	<path d="M16.063,0.129c-8.801,0-15.935,7.134-15.935,15.936C0.128,24.865,7.263,32,16.063,32S32,24.865,32,16.064
		C32,7.263,24.864,0.129,16.063,0.129z M14.764,18.784c-0.068,0.525-0.283,1.005-0.646,1.439l-0.121,0.115
		c0.594,0.619,0.834,1.37,0.719,2.255c-0.042,0.318-0.135,0.634-0.28,0.945c-0.211,0.41-0.498,0.762-0.859,1.056
		c-0.323,0.272-0.664,0.469-1.021,0.589c-0.357,0.119-0.776,0.173-1.256,0.164c-0.097,0.005-0.193,0.001-0.287-0.012
		c-0.095-0.012-0.168-0.021-0.22-0.028c-0.206-0.026-0.389-0.067-0.548-0.123c-0.77-0.274-1.326-0.678-1.668-1.211
		c-0.234-0.361-0.394-0.666-0.479-0.914c-0.087-0.247-0.132-0.469-0.138-0.666c-0.005-0.197,0.005-0.39,0.03-0.578
		c0.091-0.713,0.467-1.312,1.125-1.793l0.259-0.177c-0.186-0.261-0.314-0.533-0.387-0.818c-0.072-0.284-0.088-0.578-0.049-0.879
		c0.018-0.138,0.049-0.278,0.094-0.422c0.135-0.437,0.306-0.776,0.512-1.017c0.206-0.241,0.511-0.461,0.914-0.664
		c0.168-0.083,0.366-0.153,0.592-0.212c0.227-0.058,0.449-0.09,0.669-0.097c0.22-0.006,0.416,0.001,0.588,0.023
		c0.206,0.027,0.416,0.08,0.629,0.161c0.213,0.08,0.412,0.181,0.598,0.301c0.468,0.314,0.806,0.698,1.013,1.148
		C14.755,17.823,14.828,18.294,14.764,18.784z M13.817,15.17c0,0-0.634-0.37-1.35-0.446c-0.714-0.077-1.543,0.071-1.543,0.071
		l0.838-6.47l-0.646-0.083l1.024-2.743l2.88,0.373L13.817,15.17z M19.862,26.444l-2.894-0.375l0.838-6.47l-0.645-0.084l1.024-2.743
		l2.881,0.374L19.862,26.444z M25.061,10.259c-0.032,0.242-0.102,0.508-0.209,0.801c-0.069,0.192-0.138,0.354-0.208,0.485
		c-0.069,0.131-0.157,0.264-0.262,0.4l-2.946,3.99l-3.37-0.436l1.892-2.447l-0.35-0.137l-0.147-0.072l-0.173-0.088
		c-0.631-0.335-1.094-0.78-1.39-1.334c-0.296-0.556-0.397-1.186-0.307-1.892c0.012-0.086,0.023-0.165,0.037-0.237
		c0.014-0.073,0.055-0.236,0.122-0.49c0.3-1.029,1.003-1.761,2.11-2.195c0.266-0.097,0.56-0.166,0.881-0.208
		c0.32-0.042,0.64-0.042,0.959,0c0.146,0.019,0.293,0.042,0.443,0.07c0.149,0.028,0.291,0.064,0.426,0.107
		c0.311,0.102,0.592,0.228,0.844,0.379c0.252,0.15,0.479,0.322,0.682,0.515c0.606,0.586,0.936,1.293,0.986,2.123
		c0.007,0.15,0.01,0.26,0.01,0.33C25.09,9.992,25.08,10.104,25.061,10.259z"/>
	<path d="M21.432,9.172c-0.077-0.01-0.155-0.007-0.237,0.009c-0.207,0.043-0.366,0.141-0.478,0.292
		c-0.111,0.152-0.176,0.293-0.192,0.422s0.006,0.263,0.066,0.402c0.12,0.278,0.328,0.437,0.621,0.474
		c0.182,0.023,0.338-0.013,0.473-0.109l0.208-0.183c0.114-0.135,0.183-0.292,0.206-0.473c0.026-0.206-0.025-0.39-0.158-0.552
		C21.808,9.292,21.639,9.198,21.432,9.172z"/>
</g>
</svg>
