<?xml version="1.0" encoding="utf-8"?>
<!-- Generator: Adobe Illustrator 16.0.0, SVG Export Plug-In . SVG Version: 6.00 Build 0)  -->
<!DOCTYPE svg PUBLIC "-//W3C//DTD SVG 1.1//EN" "http://www.w3.org/Graphics/SVG/1.1/DTD/svg11.dtd">
<svg version="1.1" id="Layer_1" xmlns="http://www.w3.org/2000/svg" xmlns:xlink="http://www.w3.org/1999/xlink" x="0px" y="0px"
	 width="507px" height="340px" viewBox="0 0 507 340" enable-background="new 0 0 507 340" xml:space="preserve">
<g>
	<path fill="#61DAFB" d="M259.928,69.471c-1.188,0-2.324-0.278-3.2-0.783l-16.169-9.336c-1.794-1.036-3.199-3.47-3.199-5.541v-18.67
		c0-2.072,1.405-4.506,3.199-5.542l16.169-9.335c1.753-1.01,4.647-1.01,6.399,0l16.167,9.335c1.795,1.036,3.201,3.47,3.201,5.542
		v18.67c0,2.071-1.406,4.505-3.201,5.541l-16.167,9.336C262.25,69.193,261.115,69.471,259.928,69.471z M259.928,22.348
		c-0.683,0-1.327,0.145-1.767,0.398l-16.169,9.335c-0.924,0.534-1.765,1.991-1.765,3.059v18.67c0,1.068,0.841,2.525,1.765,3.057
		l16.169,9.337c0.879,0.505,2.653,0.505,3.532,0l16.167-9.337c0.927-0.532,1.768-1.989,1.768-3.057v-18.67
		c0-1.068-0.841-2.525-1.768-3.059l-16.167-9.335C261.254,22.493,260.611,22.348,259.928,22.348z"/>
	<g>
		<path fill="#61DAFB" d="M262.993,44.158c0,1.611-1.308,2.916-2.918,2.916c-1.609,0-2.919-1.305-2.919-2.916
			c0-1.61,1.31-2.917,2.919-2.917C261.686,41.242,262.993,42.548,262.993,44.158z"/>
		<path fill="#61DAFB" d="M260.075,54.883c2.29,2.227,4.546,3.544,6.366,3.544c0.596,0,1.161-0.127,1.631-0.408
			c1.627-0.941,2.229-3.294,1.66-6.649c-0.093-0.596-0.219-1.192-0.375-1.82c0.627-0.188,1.191-0.376,1.756-0.563
			c3.17-1.223,4.924-2.917,4.924-4.765c0-1.883-1.754-3.576-4.924-4.769c-0.564-0.217-1.129-0.408-1.756-0.563
			c0.156-0.626,0.282-1.225,0.375-1.82c0.533-3.419-0.06-5.802-1.692-6.744c-0.47-0.281-1.035-0.407-1.629-0.407
			c-1.79,0-4.079,1.317-6.366,3.543c-2.259-2.226-4.519-3.543-6.336-3.543c-0.596,0-1.16,0.126-1.632,0.407
			c-1.63,0.941-2.223,3.295-1.659,6.65c0.093,0.595,0.22,1.191,0.377,1.818c-0.628,0.187-1.191,0.375-1.758,0.564
			c-3.167,1.225-4.923,2.918-4.923,4.767c0,1.881,1.756,3.574,4.923,4.767c0.566,0.221,1.13,0.408,1.758,0.565
			c-0.157,0.627-0.284,1.221-0.377,1.817c-0.533,3.357,0.061,5.742,1.659,6.649c0.474,0.284,1.036,0.411,1.632,0.411
			C255.528,58.395,257.788,57.079,260.075,54.883L260.075,54.883z M258.318,50.649c0.565,0.032,1.162,0.032,1.755,0.032
			c0.597,0,1.193,0,1.757-0.032c-0.563,0.754-1.16,1.443-1.757,2.101C259.477,52.092,258.884,51.403,258.318,50.649z M254.43,47.42
			c0.313,0.533,0.597,1.035,0.942,1.536c-0.973-0.123-1.882-0.281-2.76-0.469c0.282-0.847,0.597-1.725,0.973-2.604
			c0.252,0.502,0.531,1.034,0.845,1.534V47.42z M252.61,39.862c0.878-0.189,1.788-0.347,2.761-0.471
			c-0.313,0.501-0.628,1.003-0.941,1.536c-0.316,0.534-0.598,1.035-0.845,1.568C253.175,41.586,252.86,40.708,252.61,39.862
			L252.61,39.862z M254.336,44.158c0.407-0.847,0.847-1.694,1.348-2.539c0.474-0.816,1.006-1.63,1.537-2.448
			c0.943-0.063,1.882-0.093,2.854-0.093c1.003,0,1.946,0.031,2.856,0.093c0.564,0.818,1.063,1.632,1.535,2.448
			c0.503,0.845,0.939,1.692,1.349,2.539c-0.409,0.846-0.846,1.693-1.349,2.541c-0.472,0.814-1.002,1.63-1.535,2.446
			c-0.942,0.063-1.882,0.092-2.856,0.092c-1.003,0-1.944-0.029-2.854-0.092c-0.563-0.816-1.063-1.632-1.537-2.446
			C255.183,45.851,254.743,45.004,254.336,44.158L254.336,44.158z M266.599,42.464l-0.846-1.568
			c-0.314-0.532-0.597-1.034-0.942-1.537c0.975,0.125,1.881,0.285,2.76,0.473C267.289,40.71,266.974,41.586,266.599,42.464
			L266.599,42.464L266.599,42.464z M266.599,45.852c0.375,0.878,0.69,1.756,0.972,2.604c-0.879,0.189-1.785,0.346-2.76,0.47
			c0.313-0.501,0.628-1.001,0.942-1.536c0.284-0.47,0.565-1.002,0.846-1.536l0,0V45.852z M267.318,56.734
			c-0.25,0.158-0.563,0.22-0.907,0.22c-1.537,0-3.451-1.255-5.333-3.135c0.911-0.973,1.789-2.071,2.668-3.295
			c1.476-0.126,2.886-0.346,4.203-0.66c0.157,0.565,0.25,1.131,0.343,1.695C268.734,54.226,268.387,56.138,267.318,56.734
			L267.318,56.734z M268.952,40.207c3.511,1.004,5.61,2.54,5.61,3.951c0,1.224-1.44,2.447-3.982,3.42
			c-0.5,0.186-1.063,0.375-1.627,0.53c-0.406-1.286-0.91-2.604-1.537-3.95C268.043,42.81,268.58,41.494,268.952,40.207
			L268.952,40.207L268.952,40.207z M266.441,31.363c0.344,0,0.627,0.06,0.908,0.218c1.037,0.598,1.412,2.479,0.974,5.174
			c-0.093,0.534-0.219,1.101-0.348,1.697c-1.315-0.284-2.728-0.504-4.198-0.658c-0.85-1.226-1.761-2.322-2.666-3.296
			C262.99,32.65,264.903,31.363,266.441,31.363L266.441,31.363z M261.83,37.666c-0.563-0.03-1.158-0.03-1.755-0.03
			c-0.595,0-1.191,0-1.754,0.03c0.563-0.752,1.159-1.442,1.754-2.099C260.674,36.224,261.267,36.947,261.83,37.666L261.83,37.666z
			 M252.83,31.581c0.25-0.158,0.565-0.218,0.91-0.218c1.536,0,3.447,1.256,5.331,3.134c-0.91,0.973-1.789,2.069-2.665,3.296
			c-1.476,0.125-2.886,0.343-4.204,0.658c-0.156-0.566-0.252-1.132-0.347-1.697C251.419,34.093,251.764,32.211,252.83,31.581
			L252.83,31.581L252.83,31.581z M251.201,48.108c-3.515-1.003-5.614-2.539-5.614-3.95c0-1.222,1.442-2.444,3.981-3.417
			c0.503-0.188,1.066-0.376,1.633-0.532c0.405,1.285,0.908,2.602,1.533,3.949c-0.625,1.349-1.159,2.697-1.533,3.953V48.108z
			 M251.859,51.56c0.091-0.532,0.218-1.097,0.344-1.695c1.317,0.286,2.731,0.503,4.204,0.66c0.846,1.224,1.757,2.32,2.665,3.295
			c-1.883,1.847-3.796,3.135-5.332,3.135c-0.345,0-0.627-0.062-0.91-0.22C251.764,56.138,251.422,54.226,251.859,51.56
			L251.859,51.56z"/>
	</g>
</g>
<g>
	<path fill="#764ABC" d="M80.247,292.821c-1.188,0-2.325-0.277-3.199-0.784l-16.169-9.335c-1.794-1.034-3.198-3.47-3.198-5.542
		v-18.669c0-2.071,1.404-4.505,3.198-5.541l16.169-9.336c1.749-1.011,4.648-1.011,6.398,0l16.169,9.336
		c1.793,1.036,3.198,3.47,3.198,5.541v18.669c0,2.072-1.405,4.508-3.198,5.542l-16.169,9.335
		C82.571,292.544,81.435,292.821,80.247,292.821z M80.247,245.698c-0.683,0-1.325,0.146-1.766,0.398l-16.168,9.336
		c-0.925,0.533-1.766,1.99-1.766,3.059v18.669c0,1.069,0.841,2.525,1.766,3.058l16.168,9.338c0.879,0.505,2.653,0.505,3.532,0
		l16.169-9.338c0.924-0.532,1.766-1.988,1.766-3.058v-18.669c0-1.068-0.842-2.525-1.766-3.059l-16.169-9.336
		C81.572,245.844,80.93,245.698,80.247,245.698z"/>
	<g>
		<g>
			<path fill="#764ABC" d="M85.967,272.073c1.063-0.11,1.869-1.025,1.833-2.125c-0.038-1.1-0.955-1.98-2.053-1.98h-0.074
				c-1.135,0.039-2.016,0.989-1.979,2.126c0.039,0.551,0.257,1.026,0.588,1.358c-1.247,2.454-3.153,4.25-6.012,5.754
				c-1.944,1.025-3.959,1.393-5.975,1.135c-1.65-0.219-2.933-0.952-3.741-2.163c-1.172-1.795-1.282-3.736-0.292-5.682
				c0.696-1.392,1.796-2.419,2.493-2.932c-0.146-0.478-0.368-1.283-0.477-1.869c-5.314,3.849-4.765,9.056-3.152,11.511
				c1.21,1.832,3.667,2.969,6.379,2.969c0.733,0,1.467-0.074,2.199-0.255C80.394,279.003,83.95,276.217,85.967,272.073z"/>
			<path fill="#764ABC" d="M92.418,267.527c-2.786-3.262-6.892-5.057-11.584-5.057h-0.586c-0.33-0.661-1.027-1.101-1.796-1.101
				h-0.073c-1.136,0.036-2.016,0.987-1.98,2.126c0.038,1.1,0.955,1.979,2.053,1.979h0.073c0.808-0.037,1.503-0.551,1.796-1.247
				h0.659c2.788,0,5.426,0.81,7.808,2.383c1.835,1.209,3.154,2.785,3.886,4.694c0.625,1.537,0.587,3.04-0.071,4.323
				c-1.026,1.942-2.751,3.007-5.024,3.007c-1.465,0-2.859-0.44-3.593-0.769c-0.402,0.364-1.135,0.95-1.649,1.319
				c1.578,0.733,3.19,1.135,4.73,1.135c3.52,0,6.121-1.942,7.111-3.886C95.241,274.31,95.168,270.645,92.418,267.527z"/>
			<path fill="#764ABC" d="M73.797,272.697c0.036,1.1,0.952,1.978,2.052,1.978h0.073c1.137-0.036,2.017-0.988,1.981-2.125
				c-0.039-1.098-0.953-1.979-2.054-1.979h-0.073c-0.073,0-0.184,0-0.256,0.036c-1.504-2.494-2.127-5.204-1.908-8.137
				c0.148-2.2,0.881-4.106,2.164-5.683c1.063-1.357,3.116-2.017,4.509-2.051c3.885-0.075,5.537,4.763,5.646,6.706
				c0.476,0.109,1.281,0.366,1.832,0.55c-0.44-5.938-4.106-9.018-7.625-9.018c-3.298,0-6.34,2.384-7.551,5.901
				c-1.687,4.694-0.587,9.2,1.467,12.758C73.87,271.891,73.76,272.293,73.797,272.697z"/>
		</g>
	</g>
</g>
<g>
	<path fill="#E64D26" d="M434.086,220.513c-1.188,0-2.324-0.278-3.2-0.781l-16.168-9.337c-1.793-1.036-3.2-3.47-3.2-5.541v-18.67
		c0-2.072,1.407-4.506,3.2-5.54l16.168-9.336c1.751-1.011,4.648-1.011,6.398,0l16.169,9.336c1.795,1.034,3.199,3.468,3.199,5.54
		v18.67c0,2.071-1.404,4.505-3.199,5.541l-16.169,9.337C436.409,220.234,435.273,220.513,434.086,220.513z M434.086,173.392
		c-0.684,0-1.327,0.145-1.766,0.398l-16.169,9.336c-0.925,0.533-1.767,1.989-1.767,3.058v18.67c0,1.067,0.842,2.525,1.767,3.058
		l16.169,9.336c0.878,0.508,2.651,0.508,3.53,0l16.169-9.336c0.926-0.532,1.767-1.99,1.767-3.058v-18.67
		c0-1.068-0.841-2.524-1.766-3.058l-16.17-9.336C435.411,173.536,434.769,173.392,434.086,173.392z"/>
	<g>
		<path fill="#E64D26" d="M422.139,183.129l2.167,24.345l9.724,2.705l9.753-2.709l2.169-24.341H422.139L422.139,183.129z
			 M426.641,188.905l-0.071-0.801h7.466v2.986h-4.207l0.271,3.058h3.936v2.984h-6.661L426.641,188.905L426.641,188.905z
			 M440.892,194.951l-0.7,7.86l-0.045,0.504l-6.117,1.697l-6.106-1.697l-0.418-4.688h2.992l0.214,2.382l3.322,0.896l3.322-0.9
			l0.349-3.868h-3.663v-2.986h6.92l-0.071,0.801H440.892z M441.433,188.905l-0.136,1.515l-0.062,0.673h-7.189v-2.986h7.457
			L441.433,188.905z"/>
	</g>
</g>
<g>
	<path fill="#3D8FC6" d="M43.438,201.937c-1.188,0-2.323-0.277-3.199-0.782l-16.167-9.336c-1.794-1.035-3.199-3.469-3.199-5.541
		v-18.67c0-2.071,1.405-4.505,3.199-5.541l16.167-9.336c1.751-1.01,4.645-1.01,6.399,0l16.167,9.336
		c1.796,1.036,3.201,3.47,3.201,5.541v18.67c0,2.072-1.404,4.506-3.201,5.541l-16.167,9.336
		C45.763,201.659,44.626,201.937,43.438,201.937z M43.438,154.814c-0.682,0-1.328,0.146-1.766,0.399l-16.167,9.335
		c-0.925,0.533-1.766,1.991-1.766,3.059v18.67c0,1.066,0.841,2.525,1.766,3.059l16.167,9.336c0.879,0.507,2.653,0.507,3.531,0
		l16.168-9.336c0.926-0.533,1.767-1.992,1.767-3.059v-18.67c0-1.067-0.841-2.525-1.767-3.059l-16.168-9.335
		C44.766,154.961,44.121,154.814,43.438,154.814z"/>
	<g>
		<path fill="#3D8FC6" d="M43.458,181.941L43.458,181.941z M31.613,163.532l2.153,24.14l9.658,2.682l9.684-2.684l2.155-24.138
			H31.613z M50.792,169.056l-0.728,8.156l0,0l-0.504,5.629l-0.043,0.502l-6.072,1.684l-6.066-1.684l-0.415-4.649h2.972l0.212,2.36
			l3.3,0.89l0.008-0.002h0.001l3.291-0.89l0.348-3.838h-6.91l-0.062-0.665l-0.134-1.5l-0.071-0.798h7.44l0.269-3.029H36.3
			l-0.061-0.664l-0.135-1.501l-0.069-0.797h14.83L50.792,169.056L50.792,169.056z"/>
	</g>
</g>
<g>
	<path fill="#83CD29" d="M456.643,298.886c-0.618,0-1.235-0.161-1.779-0.476l-5.665-3.354c-0.846-0.471-0.432-0.641-0.153-0.736
		c1.128-0.392,1.357-0.48,2.56-1.166c0.128-0.069,0.292-0.043,0.425,0.032l4.352,2.585c0.159,0.088,0.38,0.088,0.527,0l16.968-9.793
		c0.157-0.089,0.259-0.273,0.259-0.459v-19.582c0-0.192-0.102-0.371-0.263-0.469l-16.96-9.783c-0.159-0.092-0.367-0.092-0.524,0
		l-16.957,9.787c-0.164,0.094-0.268,0.279-0.268,0.465v19.584c0,0.188,0.104,0.363,0.267,0.453l4.648,2.686
		c2.522,1.26,4.067-0.225,4.067-1.717v-19.334c0-0.275,0.221-0.49,0.494-0.49h2.151c0.268,0,0.49,0.215,0.49,0.49v19.334
		c0,3.363-1.833,5.297-5.023,5.297c-0.98,0-1.753,0-3.909-1.063l-4.449-2.562c-1.098-0.637-1.778-1.825-1.778-3.097v-19.582
		c0-1.272,0.681-2.458,1.778-3.093l16.97-9.805c1.074-0.608,2.501-0.608,3.565,0l16.969,9.805c1.1,0.636,1.782,1.82,1.782,3.093
		v19.582c0,1.271-0.683,2.455-1.782,3.097l-16.969,9.794c-0.543,0.314-1.159,0.476-1.786,0.476H456.643z M461.886,285.395
		c-7.428,0-8.982-3.408-8.982-6.27c0-0.27,0.217-0.487,0.487-0.487h2.194c0.245,0,0.451,0.176,0.487,0.414
		c0.331,2.233,1.315,3.362,5.811,3.362c3.573,0,5.093-0.809,5.093-2.704c0-1.093-0.429-1.903-5.984-2.449
		c-4.642-0.459-7.517-1.485-7.517-5.199c0-3.424,2.889-5.466,7.726-5.466c5.438,0,8.125,1.887,8.466,5.937
		c0.014,0.139-0.037,0.272-0.13,0.377c-0.093,0.1-0.222,0.157-0.358,0.157h-2.204c-0.228,0-0.429-0.16-0.474-0.383
		c-0.532-2.352-1.816-3.103-5.303-3.103c-3.902,0-4.356,1.36-4.356,2.379c0,1.235,0.536,1.595,5.806,2.291
		c5.213,0.688,7.692,1.665,7.692,5.328c0,3.698-3.082,5.815-8.456,5.815H461.886z"/>
</g>
<g>
	<path fill="#2A4D80" d="M367.277,104.051c-1.187,0-2.324-0.276-3.199-0.781l-16.169-9.336c-1.794-1.036-3.198-3.47-3.198-5.54
		V69.723c0-2.071,1.404-4.505,3.198-5.541l16.169-9.336c1.75-1.008,4.649-1.008,6.399,0l16.169,9.336
		c1.793,1.036,3.199,3.47,3.199,5.541v18.671c0,2.07-1.406,4.504-3.199,5.54l-16.169,9.336
		C369.603,103.775,368.466,104.051,367.277,104.051z M367.277,56.929c-0.682,0-1.325,0.145-1.766,0.4l-16.168,9.336
		c-0.925,0.534-1.767,1.99-1.767,3.058v18.671c0,1.066,0.842,2.524,1.767,3.058l16.168,9.334c0.879,0.509,2.652,0.509,3.532,0
		l16.169-9.334c0.926-0.534,1.767-1.991,1.767-3.058V69.723c0-1.067-0.841-2.524-1.767-3.058l-16.169-9.336
		C368.604,57.074,367.961,56.929,367.277,56.929z"/>
	<g>
		<path fill="#2A4D80" d="M358.416,71.198v9.657c0,1.163,0.127,1.333,1.282,1.665l-0.277,1.619
			c-0.615-0.139-1.209-0.203-1.745-0.414c-1.021-0.402-1.184-1.328-1.188-2.281c-0.013-2.73-0.005-5.461-0.005-8.189v-0.541
			c-0.47,0.037-0.902,0.033-1.317,0.112c-0.476,0.091-0.75,0.485-0.765,1.058c-0.022,0.801-0.008,1.601-0.022,2.404
			c-0.005,0.365-0.022,0.735-0.063,1.098c-0.084,0.685-0.401,1.243-0.978,1.616c0.006,0.052-0.003,0.09,0.011,0.1
			c0.867,0.604,1.015,1.512,1.03,2.468c0.013,0.761,0,1.525,0.006,2.284c0.004,1.149,0.303,1.458,1.457,1.531l0.184,0.027v1.5
			c-0.797-0.021-1.582-0.054-2.296-0.438c-0.797-0.427-1.064-1.167-1.104-2.001c-0.041-0.865-0.025-1.732-0.033-2.596
			c0-0.16,0.004-0.316-0.004-0.475c-0.056-1.004-0.447-1.445-1.438-1.615c-0.006-0.045-0.02-0.095-0.02-0.146
			c-0.003-0.418-0.001-0.838-0.001-1.246l0.069-0.064c1.039-0.25,1.381-0.674,1.393-1.758c0.008-0.696-0.012-1.391,0.004-2.088
			c0.015-0.471,0.035-0.947,0.118-1.408c0.185-1.021,0.927-1.638,2.114-1.798c0.352-0.045,0.704-0.075,1.057-0.079
			c0.826-0.013,1.651-0.004,2.531-0.004l0,0V71.198z M361.761,80.241c-0.122,1.009,0.658,1.936,1.737,2.138
			c1.021,0.189,2.008,0.014,3.027-0.306c0.082,0.474,0.17,0.93,0.229,1.391c0.011,0.072-0.11,0.207-0.198,0.233
			c-1.496,0.467-3.005,0.623-4.506,0.046c-0.928-0.354-1.596-1.016-1.955-1.942c-0.562-1.472-0.57-2.953,0.099-4.396
			c0.971-2.107,3.396-2.654,5.211-1.81c1.1,0.51,1.63,1.46,1.817,2.598c0.107,0.654,0.099,1.322,0.146,2.047
			c-1.926-0.001-3.77-0.001-5.604-0.001l0,0L361.761,80.241z M365.391,78.819c0.023-1.23-0.675-1.999-1.768-1.991
			c-1.043,0.006-1.891,0.899-1.865,1.991H365.391z M379.504,86.924v-1.521l0.437-0.031c0.822-0.066,1.186-0.432,1.209-1.252
			c0.02-0.787,0-1.575,0.014-2.36c0.008-0.379,0.031-0.764,0.086-1.139c0.097-0.649,0.428-1.17,1.037-1.565
			c-1.078-0.685-1.114-1.727-1.125-2.778c-0.007-0.723,0.01-1.445-0.006-2.166c-0.019-0.98-0.382-1.339-1.364-1.381l-0.271-0.02
			v-1.512c0.853,0.019,1.699,0.045,2.448,0.529c0.695,0.45,0.914,1.167,0.948,1.934c0.04,0.93,0.021,1.864,0.035,2.794
			c0.007,0.275,0.02,0.557,0.092,0.819c0.178,0.673,0.645,1.022,1.354,1.046v1.474c-0.678,0.03-1.164,0.353-1.346,1.028
			c-0.072,0.261-0.09,0.544-0.097,0.816c-0.019,0.919,0,1.839-0.031,2.755c-0.054,1.456-0.821,2.266-2.271,2.436
			c-0.373,0.042-0.75,0.059-1.148,0.092l0,0L379.504,86.924z M379.862,75.621l-0.352,1.523c-0.812-0.268-1.611-0.453-2.449-0.319
			c-0.526,0.086-0.839,0.317-0.904,0.686c-0.072,0.4,0.124,0.757,0.607,0.996c0.41,0.202,0.844,0.354,1.267,0.532
			c0.253,0.107,0.508,0.211,0.752,0.336c1.186,0.589,1.595,1.346,1.46,2.679c-0.096,0.935-0.768,1.623-1.952,1.883
			c-1.411,0.309-2.808,0.223-4.215-0.307l0.31-1.535c0.606,0.139,1.182,0.318,1.77,0.39c0.487,0.057,0.994,0.01,1.488-0.038
			c0.323-0.032,0.596-0.199,0.676-0.563c0.082-0.376-0.025-0.702-0.341-0.895c-0.388-0.236-0.814-0.414-1.227-0.613
			c-0.495-0.236-1.011-0.436-1.488-0.706c-1.402-0.792-1.387-3.242,0.172-3.985c0.46-0.222,0.984-0.355,1.494-0.428
			C377.919,75.119,378.879,75.323,379.862,75.621L379.862,75.621z M373.506,75.553l-0.367,1.595c-0.811-0.277-1.6-0.451-2.427-0.323
			c-0.553,0.083-0.862,0.318-0.928,0.706c-0.069,0.395,0.131,0.741,0.63,0.984c0.436,0.211,0.895,0.372,1.34,0.56
			c0.217,0.092,0.435,0.186,0.646,0.29c1.226,0.611,1.654,1.434,1.457,2.789c-0.132,0.933-0.946,1.65-2.145,1.838
			c-1.22,0.191-2.429,0.16-3.619-0.22c-0.291-0.093-0.413-0.207-0.324-0.527c0.106-0.373,0.171-0.759,0.255-1.146
			c0.601,0.136,1.178,0.316,1.766,0.387c0.487,0.057,0.994,0.01,1.487-0.038c0.346-0.034,0.614-0.229,0.688-0.605
			c0.07-0.362-0.056-0.678-0.355-0.851c-0.452-0.262-0.938-0.461-1.41-0.688c-0.436-0.208-0.888-0.391-1.305-0.63
			c-1.403-0.806-1.384-3.235,0.2-4.021c0.705-0.351,1.448-0.481,2.214-0.421c0.721,0.058,1.436,0.206,2.199,0.322l0,0H373.506z"/>
	</g>
</g>
<g>
	<path fill="#CC6699" d="M152.813,102.94c-1.187,0-2.322-0.277-3.199-0.782l-16.169-9.335c-1.794-1.036-3.198-3.47-3.198-5.542
		V68.611c0-2.072,1.404-4.505,3.198-5.542l16.169-9.336c1.749-1.009,4.649-1.009,6.399,0l16.168,9.336
		c1.794,1.036,3.2,3.47,3.2,5.542v18.669c0,2.071-1.406,4.505-3.2,5.542l-16.168,9.335
		C155.135,102.663,154.001,102.94,152.813,102.94z M152.813,55.818c-0.683,0-1.327,0.145-1.767,0.399l-16.168,9.335
		c-0.923,0.533-1.766,1.992-1.766,3.059v18.669c0,1.068,0.843,2.525,1.766,3.058l16.168,9.336c0.879,0.508,2.654,0.508,3.533,0
		l16.169-9.336c0.924-0.533,1.768-1.99,1.768-3.058V68.611c0-1.067-0.843-2.525-1.768-3.059l-16.169-9.335
		C154.14,55.963,153.496,55.818,152.813,55.818z"/>
	<g>
		<path fill="#CC6699" d="M169.119,81.765c-0.104-0.882-0.558-1.564-1.241-2.098c-0.793-0.621-1.722-0.875-2.71-0.917
			c-0.806-0.034-1.592,0.086-2.354,0.363c-0.218,0.077-0.43,0.172-0.646,0.257c-0.031-0.053-0.062-0.101-0.086-0.154
			c-0.226-0.459-0.494-0.896-0.552-1.422c-0.043-0.374-0.097-0.746-0.008-1.114c0.085-0.354,0.198-0.704,0.301-1.056
			c0.053-0.179,0.019-0.28-0.154-0.361c-0.062-0.028-0.125-0.053-0.192-0.065c-0.423-0.06-0.84-0.023-1.249,0.096
			c-0.146,0.042-0.252,0.124-0.282,0.282c-0.018,0.093-0.056,0.181-0.083,0.271c-0.105,0.379-0.181,0.763-0.352,1.124
			c-0.437,0.901-0.932,1.77-1.437,2.629c-0.056,0.096-0.113,0.187-0.182,0.299c-0.177-0.373-0.365-0.707-0.424-1.098
			c-0.064-0.443-0.116-0.885-0.006-1.324c0.08-0.326,0.187-0.648,0.288-0.973c0.047-0.152,0.025-0.234-0.116-0.315
			c-0.07-0.041-0.146-0.077-0.225-0.086c-0.443-0.068-0.872-0.031-1.295,0.106c-0.133,0.042-0.201,0.126-0.239,0.263
			c-0.117,0.397-0.22,0.807-0.384,1.185c-0.671,1.538-1.362,3.067-2.05,4.592c-0.144,0.32-0.312,0.629-0.475,0.94
			c-0.041,0.076-0.1,0.146-0.151,0.221c-0.041-0.048-0.058-0.08-0.058-0.115c0.001-0.197-0.023-0.399,0.017-0.589
			c0.113-0.574,0.243-1.145,0.379-1.715c0.114-0.469,0.246-0.935,0.373-1.401c0.043-0.158,0.043-0.304-0.071-0.436
			c-0.188-0.219-0.583-0.269-0.814-0.098c-0.027,0.019-0.056,0.028-0.104,0.058c0.009-0.074,0.015-0.121,0.02-0.165
			c0.051-0.358,0.06-0.714-0.039-1.067c-0.124-0.439-0.435-0.691-0.891-0.677c-0.212,0.005-0.434,0.04-0.629,0.12
			c-0.825,0.324-1.461,0.896-1.999,1.586c-0.05,0.063-0.117,0.121-0.185,0.157c-0.698,0.389-1.4,0.769-2.101,1.156
			c-0.263,0.141-0.524,0.286-0.779,0.427c-0.211-0.2-0.402-0.407-0.617-0.583c-0.658-0.536-1.328-1.062-1.992-1.592
			c-0.587-0.472-1.157-0.963-1.593-1.586c-0.324-0.463-0.532-0.972-0.552-1.543c-0.025-0.733,0.181-1.4,0.552-2.022
			c0.478-0.794,1.126-1.432,1.84-2.012c0.753-0.611,1.571-1.128,2.417-1.601c1.185-0.666,2.401-1.251,3.708-1.639
			c1.34-0.396,2.697-0.626,4.1-0.467c0.551,0.063,1.084,0.188,1.576,0.459c0.376,0.206,0.685,0.476,0.827,0.898
			c0.142,0.415,0.14,0.834,0.042,1.254c-0.2,0.855-0.669,1.56-1.257,2.188c-0.962,1.032-2.14,1.735-3.465,2.196
			c-0.766,0.269-1.553,0.436-2.36,0.504c-0.66,0.056-1.304-0.003-1.927-0.233c-0.414-0.151-0.775-0.384-1.064-0.722
			c-0.053-0.062-0.119-0.125-0.215-0.069c-0.094,0.053-0.111,0.144-0.08,0.236c0.054,0.151,0.103,0.309,0.187,0.442
			c0.206,0.34,0.507,0.585,0.841,0.799c0.637,0.405,1.352,0.542,2.091,0.573c1.123,0.047,2.22-0.118,3.297-0.42
			c1.544-0.431,2.885-1.191,3.958-2.389c0.896-0.996,1.534-2.123,1.675-3.481c0.066-0.667-0.007-1.316-0.316-1.92
			c-0.339-0.655-0.874-1.107-1.514-1.443c-0.933-0.49-1.938-0.682-2.978-0.737c-0.346,0-0.693,0-1.04,0
			c-1.259,0.061-2.477,0.325-3.659,0.755c-0.894,0.325-1.774,0.693-2.623,1.117c-1.857,0.93-3.586,2.039-5.005,3.575
			c-0.707,0.767-1.307,1.606-1.652,2.604c-0.1,0.291-0.161,0.602-0.234,0.901c-0.005,0.025,0.022,0.05-0.04,0.074
			c0,0.143,0,0.283,0,0.426c0.062,0.107,0.068,0.217,0.098,0.326c0.183,0.708,0.557,1.319,1.022,1.872
			c0.664,0.791,1.467,1.426,2.3,2.027c0.722,0.518,1.455,1.025,2.178,1.541c0.126,0.089,0.242,0.19,0.375,0.298
			c-0.115,0.063-0.213,0.118-0.313,0.169c-0.958,0.484-1.877,1.029-2.727,1.687c-0.509,0.399-1.004,0.822-1.353,1.372
			c-0.562,0.886-0.76,1.833-0.343,2.841c0.124,0.292,0.31,0.548,0.573,0.735c0.085,0.063,0.181,0.121,0.281,0.146
			c0.254,0.059,0.516,0.1,0.776,0.147c0.242,0,0.486,0,0.73,0c0.81-0.073,1.55-0.352,2.213-0.811
			c1.043-0.719,1.744-1.681,2.046-2.92c0.22-0.896,0.228-1.799-0.028-2.694c-0.024-0.082-0.055-0.165-0.087-0.243
			c-0.031-0.08-0.069-0.159-0.112-0.261c0.553-0.316,1.106-0.636,1.661-0.953c0.008,0.004,0.016,0.013,0.024,0.02
			c-0.03,0.099-0.062,0.196-0.089,0.297c-0.2,0.721-0.331,1.455-0.28,2.201c0.047,0.799,0.271,1.545,0.738,2.212
			c0.376,0.54,1.276,0.558,1.678,0.018c0.139-0.192,0.279-0.393,0.384-0.607c0.271-0.558,0.521-1.128,0.779-1.694
			c0.009-0.024,0.021-0.048,0.044-0.103c-0.016,0.268-0.04,0.502-0.05,0.736c-0.015,0.369,0.006,0.735,0.13,1.083
			c0.108,0.302,0.29,0.522,0.635,0.562c0.232,0.026,0.42-0.079,0.592-0.217c0.27-0.213,0.488-0.475,0.651-0.773
			c0.458-0.843,0.928-1.681,1.346-2.547c0.451-0.935,0.843-1.895,1.263-2.847c0.022-0.054,0.043-0.104,0.069-0.171
			c0.098,0.389,0.167,0.771,0.295,1.129c0.148,0.417,0.329,0.826,0.528,1.222c0.092,0.188,0.08,0.31-0.047,0.466
			c-0.546,0.656-1.082,1.322-1.616,1.986c-0.119,0.148-0.237,0.296-0.335,0.456c-0.061,0.098-0.101,0.214-0.118,0.329
			c-0.03,0.218,0.103,0.427,0.336,0.478c0.21,0.043,0.437,0.063,0.652,0.046c0.749-0.055,1.428-0.319,2.031-0.763
			c0.777-0.575,1.03-1.363,0.839-2.295c-0.053-0.252-0.143-0.499-0.23-0.744c-0.04-0.109-0.04-0.186,0.031-0.288
			c0.621-0.89,1.154-1.832,1.646-2.795c0.021-0.039,0.041-0.078,0.073-0.118c0.161,0.835,0.403,1.638,0.835,2.367
			c-0.223,0.211-0.441,0.405-0.635,0.617c-0.436,0.466-0.812,0.976-1.01,1.593c-0.084,0.267-0.147,0.536-0.112,0.825
			c0.06,0.442,0.419,0.729,0.857,0.627c0.93-0.214,1.734-0.654,2.321-1.43c0.395-0.521,0.433-1.106,0.266-1.717
			c-0.047-0.167-0.098-0.332-0.157-0.522c0.229-0.072,0.454-0.154,0.687-0.207c1.2-0.276,2.392-0.227,3.549,0.206
			c0.677,0.253,1.223,0.679,1.548,1.347c0.396,0.817,0.177,1.59-0.595,2.108c-0.07,0.047-0.153,0.083-0.212,0.143
			c-0.037,0.038-0.059,0.112-0.047,0.162c0.002,0.033,0.08,0.067,0.125,0.067c0.255-0.001,0.459-0.134,0.657-0.271
			c0.493-0.341,0.817-0.8,0.894-1.404c0.003-0.017-0.022-0.033,0.041-0.05c0-0.133,0-0.268,0-0.403
			c-0.063-0.015-0.036-0.032-0.038-0.049L169.119,81.765z M145.586,83.397c-0.08,1.076-0.568,1.952-1.365,2.658
			c-0.45,0.397-0.961,0.68-1.563,0.781c-0.218,0.035-0.439,0.043-0.651-0.048c-0.3-0.127-0.368-0.394-0.375-0.679
			c-0.007-0.452,0.149-0.862,0.367-1.252c0.283-0.508,0.701-0.896,1.146-1.257c0.699-0.571,1.46-1.054,2.238-1.509
			c0.013-0.006,0.027-0.009,0.06-0.023C145.56,82.511,145.619,82.95,145.586,83.397L145.586,83.397z M151.665,78.715
			c-0.058,0.344-0.128,0.688-0.229,1.021c-0.348,1.153-0.792,2.273-1.274,3.375c-0.091,0.206-0.217,0.39-0.333,0.583
			c-0.016,0.031-0.041,0.056-0.067,0.083c-0.14,0.136-0.273,0.13-0.345-0.051c-0.08-0.21-0.131-0.434-0.176-0.655
			c-0.027-0.148-0.019-0.307-0.027-0.458c0.009-1.086,0.338-2.074,0.901-2.989c0.232-0.381,0.484-0.74,0.869-0.981
			c0.119-0.074,0.249-0.131,0.385-0.172c0.203-0.057,0.331,0.039,0.297,0.243V78.715z M155.811,83.997
			c0.497-0.58,0.992-1.157,1.491-1.738C157.362,82.904,156.265,84.193,155.811,83.997z M160.572,82.828
			c-0.109,0.061-0.223,0.106-0.33,0.159c-0.097,0.054-0.135,0-0.135-0.085c-0.001-0.055,0.005-0.119,0.022-0.173
			c0.2-0.71,0.573-1.315,1.123-1.807c0.009-0.008,0.02-0.011,0.041-0.021c0.261,0.732-0.042,1.54-0.725,1.928H160.572z"/>
	</g>
</g>
<g>
	<path fill="#F34F29" d="M454.502,99.073c-1.188,0-2.324-0.277-3.2-0.781l-16.165-9.336c-1.795-1.036-3.201-3.471-3.201-5.542
		v-18.67c0-2.071,1.406-4.505,3.201-5.541l16.165-9.336c1.753-1.009,4.647-1.009,6.399,0l16.168,9.336
		c1.795,1.035,3.2,3.469,3.2,5.541v18.67c0,2.072-1.405,4.507-3.2,5.542l-16.168,9.336
		C456.825,98.796,455.691,99.073,454.502,99.073z M454.502,51.95c-0.683,0-1.327,0.146-1.767,0.4l-16.165,9.335
		c-0.926,0.533-1.767,1.992-1.767,3.058v18.67c0,1.067,0.841,2.525,1.767,3.06l16.165,9.336c0.879,0.506,2.655,0.506,3.532,0
		l16.169-9.336c0.927-0.534,1.767-1.993,1.767-3.06v-18.67c0-1.066-0.84-2.525-1.767-3.058l-16.169-9.335
		C455.828,52.096,455.185,51.95,454.502,51.95z"/>
	<g>
		<path fill="#F34F29" d="M468.726,72.678l-13.057-13.055c-0.751-0.753-1.971-0.753-2.724,0l-2.71,2.708l3.438,3.442
			c0.801-0.272,1.718-0.09,2.354,0.546c0.639,0.641,0.82,1.565,0.546,2.37l3.314,3.313c0.801-0.28,1.724-0.099,2.365,0.543
			c0.896,0.894,0.896,2.345,0,3.238c-0.895,0.896-2.344,0.896-3.238,0c-0.675-0.672-0.84-1.661-0.501-2.491l-3.093-3.09v8.134
			c0.22,0.108,0.429,0.252,0.606,0.434c0.896,0.893,0.896,2.342,0,3.241c-0.896,0.894-2.347,0.894-3.241,0
			c-0.895-0.898-0.895-2.348,0-3.241c0.221-0.224,0.479-0.39,0.753-0.502v-8.21c-0.274-0.112-0.532-0.276-0.753-0.497
			c-0.676-0.679-0.837-1.675-0.492-2.505l-3.389-3.393l-8.953,8.952c-0.753,0.752-0.753,1.974,0,2.725l13.055,13.053
			c0.753,0.756,1.971,0.756,2.724,0l12.998-12.992c0.753-0.754,0.753-1.974,0-2.726L468.726,72.678z"/>
	</g>
</g>
<g>
	<path opacity="0.1" fill="#6C63FF" enable-background="new    " d="M453.923,265.308c-0.503,1.083-1.005,2.151-1.503,3.204
		c-0.78,1.638-1.55,3.243-2.31,4.817c-0.336,0.697-0.675,1.382-1.004,2.065c-3.726,7.61-7.203,14.342-10.157,19.876
		c-5.458,10.216-16.055,16.642-27.636,16.762l-65.681,0.715h-0.694l-5.631,0.061l-4.814,0.052l-14.771,0.159h-0.597l-7.519,0.082
		h-0.229l-46.343,0.504l-41.367,0.433l-4.812,0.052l-29.885,0.325h-0.035l-19.382,0.207h-0.208l-61.286,0.663l-18.333,0.199
		c-3.913,0.045-7.809-0.514-11.551-1.654c-6.513-1.968-12.366-5.673-16.93-10.719c-7.874-8.676-13.612-18.798-17.467-29.781
		c-0.558-1.585-1.077-3.191-1.559-4.817c-13.344-45.108,2.923-103.305,32.201-142.25c1.228-1.629,2.475-3.217,3.743-4.765
		l0.03-0.035c9.004-11.052,19.1-20.286,29.854-26.852c19.057-11.656,40.171-14.938,60.939-5.154
		c17.571,8.282,33.978,12.175,49.881,13.232c1.607,0.104,3.214,0.182,4.812,0.229c36.481,1.148,70.67-11.998,110.82-20.482
		c1.598-0.337,3.201-0.671,4.816-0.987c28.642-5.7,60.415-8.706,98.199-2.387c3.927,0.642,7.801,1.568,11.591,2.773
		c1.666,0.537,3.271,1.113,4.816,1.731c18.035,7.337,27.869,20.894,32.05,37.881c0.395,1.575,0.737,3.18,1.026,4.811
		C494.41,167.118,472.707,225.076,453.923,265.308z"/>
	<g opacity="0.1">
		<path fill="#6C63FF" d="M108.048,94.61v220.722l-18.333,0.2c-3.913,0.044-7.809-0.516-11.551-1.656V121.462h0.03
			C87.198,110.396,97.294,101.163,108.048,94.61z"/>
		<path fill="#6C63FF" d="M487.021,126.262H74.421c1.228-1.629,2.475-3.217,3.743-4.765v-0.035h407.832
			C486.391,123.03,486.733,124.63,487.021,126.262z"/>
		<path fill="#6C63FF" d="M453.923,83.569v184.939h-1.503c-0.78,1.636-1.55,3.243-2.31,4.815c-0.336,0.697-0.675,1.382-1.004,2.066
			V81.819C450.772,82.357,452.378,82.94,453.923,83.569z"/>
		<path fill="#6C63FF" d="M339.316,81.435v231.391l-4.816,0.051V82.422C336.098,82.084,337.701,81.751,339.316,81.435z"/>
		<path fill="#6C63FF" d="M223.68,102.904V314.08l-4.812,0.053V102.674C220.476,102.779,222.082,102.839,223.68,102.904z"/>
		<path fill="#6C63FF" d="M452.42,268.512c-0.78,1.638-1.55,3.243-2.31,4.817H43.779c-0.558-1.585-1.077-3.191-1.559-4.817H452.42z"
			/>
	</g>
	<rect x="129.141" y="190.647" fill="#3F3D56" width="8.229" height="24.974"/>
	<rect x="350.604" y="189.349" fill="#3F3D56" width="8.229" height="26.42"/>
	<polygon fill="#65617D" points="411.313,306.645 411.313,312.274 345.514,312.88 344.813,312.893 319.806,313.123 319.207,313.132 
		311.606,313.197 311.381,313.197 265.046,313.626 188.988,314.333 188.923,314.333 169.584,314.514 169.377,314.519 
		83.448,315.306 83.448,308.81 103.652,296.683 144.191,296.344 145.058,296.34 145.343,296.336 146.209,296.323 165.673,296.163 
		166.544,296.157 166.821,296.154 167.688,296.149 173.929,296.098 174.093,296.093 189.49,295.964 189.616,295.964 309.76,294.95 
		312.702,294.928 312.996,294.928 315.239,294.906 331.547,294.772 332.412,294.759 333.215,294.751 333.631,294.751 
		338.702,294.711 339.706,294.698 341.054,294.69 345.276,294.65 351.976,294.596 352.843,294.586 354.352,294.578 354.633,294.578 
		386.99,294.301 	"/>
	<polygon opacity="0.2" enable-background="new    " points="411.313,306.645 411.313,312.274 345.514,312.88 344.813,312.893 
		319.806,313.123 319.207,313.132 311.606,313.197 311.381,313.197 265.046,313.626 188.988,314.333 188.923,314.333 
		169.584,314.514 169.377,314.519 83.448,315.306 83.448,308.81 103.652,296.683 144.191,296.344 145.058,296.34 145.343,296.336 
		146.209,296.323 165.673,296.163 166.544,296.157 166.821,296.154 167.688,296.149 173.929,296.098 174.093,296.093 
		189.49,295.964 189.616,295.964 309.76,294.95 312.702,294.928 312.996,294.928 315.239,294.906 331.547,294.772 332.412,294.759 
		333.215,294.751 333.631,294.751 338.702,294.711 339.706,294.698 341.054,294.69 345.276,294.65 351.976,294.596 352.843,294.586 
		354.352,294.578 354.633,294.578 386.99,294.301 	"/>
	<path fill="#3F3D56" d="M165.739,284.993V295.6c0,1.025-0.59,1.959-1.516,2.399c-0.338,0.165-0.708,0.252-1.083,0.26l-15.115,0.321
		c-0.404,0.01-0.805-0.075-1.169-0.248c-0.943-0.432-1.547-1.375-1.546-2.412v-10.927H165.739z"/>
	<path opacity="0.1" enable-background="new    " d="M165.739,284.993V295.6c0,1.025-0.59,1.959-1.516,2.399
		c-0.338,0.165-0.708,0.252-1.083,0.26l-15.115,0.321c-0.404,0.01-0.805-0.075-1.169-0.248c-0.943-0.432-1.547-1.375-1.546-2.412
		v-10.927H165.739z"/>
	<path fill="#3F3D56" d="M166.604,284.993V295.6c0.001,1.025-0.589,1.959-1.515,2.399c-0.338,0.165-0.708,0.252-1.083,0.26
		l-15.115,0.321c-0.404,0.01-0.804-0.075-1.17-0.248c-0.943-0.432-1.547-1.375-1.546-2.412v-10.927H166.604z"/>
	<rect x="332.412" y="284.993" fill="#3F3D56" width="20.431" height="13.642"/>
	<rect x="332.412" y="284.993" opacity="0.1" enable-background="new    " width="20.431" height="13.642"/>
	<rect x="331.547" y="284.993" fill="#3F3D56" width="20.429" height="13.642"/>
	<polygon opacity="0.1" enable-background="new    " points="137.37,190.644 137.37,193.125 129.141,192.914 129.141,190.644 	"/>
	<path fill="#65617D" d="M191.535,120.73l-9.888,71.031c-0.13,0.938-0.945,1.631-1.893,1.605l-79.173-2.052l-1.502-0.04
		c-1.028-0.023-1.842-0.877-1.818-1.905c0.001-0.069,0.007-0.137,0.016-0.204l11.1-74.355c0.148-0.956,1.002-1.639,1.967-1.573
		l79.458,5.38c1.025,0.059,1.807,0.938,1.748,1.962C191.546,120.63,191.542,120.681,191.535,120.73z"/>
	<polygon fill="#6C63FF" points="113.691,118.461 105.32,184.004 178.082,186.313 187.03,123.078 	"/>
	<path fill="#65617D" d="M206.377,117.447h84.029c1.274,0,2.308,1.033,2.308,2.309v70.454c0,1.275-1.033,2.309-2.308,2.309h-84.029
		c-1.274,0-2.309-1.033-2.309-2.309v-70.454C204.069,118.48,205.103,117.447,206.377,117.447z"/>
	<rect x="208.253" y="122.503" fill="#6C63FF" width="80.559" height="62.51"/>
	<polygon opacity="0.1" enable-background="new    " points="358.832,189.344 358.832,190.985 350.604,191.155 350.604,189.344 	"/>
	<path fill="#65617D" d="M395.964,187.958c0.048,0.735-0.511,1.37-1.245,1.418c-0.017,0.002-0.036,0.003-0.054,0.004l-81.08,1.676
		c-0.697,0.014-1.288-0.513-1.354-1.208l-6.969-72.451c-0.07-0.734,0.467-1.386,1.201-1.456c0.021-0.003,0.042-0.004,0.063-0.004
		l80.465-4.001l0.865-0.044c0.715-0.039,1.332,0.497,1.396,1.212L395.964,187.958z"/>
	<polygon fill="#6C63FF" points="309.891,120.194 383.376,116.581 389.583,182.413 316.678,184.147 	"/>
	<path opacity="0.1" enable-background="new    " d="M395.964,187.958c0.048,0.735-0.511,1.37-1.245,1.418
		c-0.017,0.002-0.036,0.003-0.054,0.004l-7.675-77.444l0.865-0.044c0.715-0.039,1.332,0.497,1.396,1.212L395.964,187.958z"/>
	<path opacity="0.1" enable-background="new    " d="M110.356,113.233l-9.775,78.082l-1.502-0.04
		c-1.028-0.023-1.842-0.877-1.818-1.905c0.001-0.069,0.007-0.137,0.016-0.204l11.1-74.355
		C108.524,113.848,109.386,113.161,110.356,113.233z"/>
	<rect x="129.141" y="208.223" opacity="0.1" enable-background="new    " width="8.229" height="7.398"/>
	<polygon opacity="0.1" enable-background="new    " points="166.604,284.988 166.604,287.141 146.175,287.687 146.175,284.988 	"/>
	<path fill="#65617D" d="M202.662,210.801v72.849c-0.011,0.924-0.745,1.676-1.667,1.711l-83.006,2.21h-0.022
		c-0.939-0.013-1.699-0.771-1.71-1.712v-75.058c0.011-0.94,0.771-1.7,1.71-1.711h82.985
		C201.891,209.101,202.649,209.86,202.662,210.801z"/>
	<path opacity="0.1" enable-background="new    " d="M117.988,209.09v78.48h-0.022c-0.939-0.013-1.699-0.771-1.71-1.712v-75.058
		c0.011-0.94,0.771-1.7,1.71-1.711H117.988z"/>
	<polygon fill="#D4DFEC" points="121.778,213.742 198.655,213.742 198.655,277.95 121.778,279.683 	"/>
	<rect x="350.604" y="208.223" opacity="0.1" enable-background="new    " width="8.229" height="7.546"/>
	<polygon opacity="0.1" enable-background="new    " points="351.976,284.988 351.976,287.765 331.547,287.219 331.547,284.988 	"/>
	<path fill="#65617D" d="M378.938,210.801v75.058c-0.013,0.949-0.783,1.712-1.732,1.712l0,0l-83.022-2.21
		c-0.923-0.035-1.657-0.787-1.668-1.711v-72.849c0.013-0.94,0.771-1.7,1.71-1.711h82.985
		C378.156,209.092,378.925,209.854,378.938,210.801z"/>
	<path opacity="0.1" enable-background="new    " d="M378.938,210.801v75.058c-0.013,0.949-0.783,1.712-1.732,1.712l0,0v-78.48l0,0
		C378.154,209.09,378.925,209.852,378.938,210.801z"/>
	<polygon fill="#D4DFEC" points="373.415,213.742 296.539,213.742 296.539,277.95 373.415,279.683 	"/>
	<path fill="#65617D" d="M290.366,210.801v72.849c-0.011,0.924-0.743,1.676-1.668,1.711l-83.005,2.21l0,0
		c-0.948,0-1.72-0.763-1.732-1.712v-75.058c0.012-0.94,0.771-1.7,1.711-1.711h82.985
		C289.595,209.101,290.354,209.86,290.366,210.801z"/>
	<polygon fill="#D4DFEC" points="209.483,213.742 286.36,213.742 286.36,277.95 209.483,279.683 	"/>
	<polygon opacity="0.1" enable-background="new    " points="411.313,306.645 411.313,312.274 345.514,312.88 344.813,312.893 
		319.806,313.123 319.207,313.132 311.606,313.197 311.381,313.197 265.046,313.626 188.988,314.333 188.923,314.333 
		169.584,314.514 169.377,314.519 83.448,315.306 83.448,308.81 171.157,308.233 171.365,308.233 189.118,308.112 189.2,308.112 
		311.806,307.302 311.932,307.302 312.005,307.299 312.209,307.299 314.282,307.285 314.915,307.285 347.179,307.068 
		349.082,307.06 349.509,307.055 	"/>
	<circle fill="#FBBEBE" cx="248.532" cy="193.389" r="22.232"/>
	
		<linearGradient id="SVGID_1_" gradientUnits="userSpaceOnUse" x1="397.3789" y1="-411.73" x2="397.3789" y2="-248.2495" gradientTransform="matrix(1 0 0 -1 -135.3398 -96.9102)">
		<stop  offset="0" style="stop-color:#808080;stop-opacity:0.25"/>
		<stop  offset="0.54" style="stop-color:#808080;stop-opacity:0.12"/>
		<stop  offset="1" style="stop-color:#808080;stop-opacity:0.1"/>
	</linearGradient>
	<path fill="url(#SVGID_1_)" d="M169.333,314.668c0-0.047,0.026-0.099,0.044-0.149c0.433-1.555,1.204-4.185,1.78-6.285
		c0.073-0.26,0.143-0.516,0.208-0.758c0.637-2.369,1.875-7.918,2.564-11.378c0.243-1.217,0.433-2.166,0.472-2.642
		c0.087-0.732,1.391-3.863,2.867-7.463c1.036-2.529,2.166-5.293,2.993-7.623c0.541-1.384,0.966-2.811,1.269-4.267
		c0.065-0.304,0.065-0.617,0-0.922c-0.129-0.495-0.199-1.004-0.208-1.516l0,0c-0.1-2.686,0.702-6.931,1.94-8.711
		c1.516-2.165,2.599-10.247,2.599-10.247s2.244,0.325,2.599-1.528c0.037-0.199,0.052-0.403,0.043-0.605
		c0-0.162-0.014-0.322-0.039-0.482c-0.386-2.702,6.375-5.577,10.178-6.196c0.429-0.074,0.864-0.114,1.299-0.122
		c0.924-0.101,1.833-0.31,2.707-0.624c0.404-0.124,0.837-0.268,1.299-0.434c1.594-0.536,3.5-1.246,5.522-2.026
		c7.605-2.95,16.813-6.929,16.813-6.929c0.065-0.309,0.139-0.604,0.221-0.895c0.923-3.703,3.551-6.746,7.082-8.196l0,0
		c0-0.288,0-0.576,0-0.867c0-1.494-0.065-3.032-0.13-4.565c0-0.299-0.026-0.598-0.043-0.896c0-0.088,0-0.179,0-0.266
		c0-0.085,0-0.15,0-0.224c0-0.304-0.031-0.607-0.048-0.905l-0.078-0.062c-0.666-0.503-1.237-1.118-1.689-1.818
		c-0.252-0.41-0.458-0.846-0.615-1.3c-0.542-1.469-0.667-3.105-1.031-4.657l-0.078-0.318c-0.474-1.565-1.053-3.097-1.732-4.584
		c-0.958-2.348-1.693-4.765-2.425-7.211c-0.444-1.48-0.894-2.965-1.347-4.452l-0.685-2.27c-0.13-0.434-0.26-0.866-0.359-1.299l0,0
		c-0.049-0.2-0.086-0.403-0.113-0.606l0,0c-0.122-0.665-0.086-1.348,0.104-1.997c0.168-0.442,0.359-0.876,0.572-1.3
		c0.09-0.192,0.163-0.392,0.217-0.597l0,0c0.014-0.046,0.025-0.093,0.035-0.139c0.03-0.154,0.046-0.312,0.046-0.468
		c-0.014-0.568-0.09-1.133-0.225-1.685c-0.003-0.008-0.003-0.015,0-0.022c-0.005-0.039-0.012-0.078-0.021-0.116
		c-0.078-0.43-0.13-0.864-0.156-1.3c-0.152-2.345,0.369-4.685,1.503-6.743l0.083-0.157c0.238-0.418,0.504-0.82,0.796-1.202l0,0
		c0.134-0.183,0.273-0.356,0.433-0.529c-0.606,0.581-1.603,0.325-2.165-0.299c-0.093-0.098-0.173-0.206-0.238-0.324
		c-0.038-0.063-0.071-0.129-0.1-0.196c-0.021-0.051-0.039-0.108-0.056-0.164c-0.304-1.062,0.226-2.191,0.918-3.054
		c0.683-0.839,1.529-1.531,2.486-2.034l0,0c0.056-0.034,0.113-0.065,0.173-0.092c0.368-0.185,0.75-0.339,1.144-0.46l0,0
		c0.231-0.076,0.467-0.14,0.706-0.189l-1.606-0.147l-0.649-0.061c0.661-2.625,2.931-4.529,5.63-4.727h0.468
		c0.228,0.004,0.454,0.023,0.68,0.058c-0.737-0.323-1.195-1.072-1.147-1.875c1.134,0.887,2.54,1.356,3.98,1.325h0.165
		c-0.076-0.469-0.125-0.942-0.147-1.417l0,0l0,0l0,0c-0.043-0.644-0.043-1.288,0-1.932c0.786,0.745,1.861,1.104,2.937,0.979
		l-0.901-1.255c0.803,0.64,1.817,0.956,2.842,0.888l0.208-0.022c0.174-0.018,0.347-0.052,0.516-0.099h0.039
		c-0.083-0.105-0.156-0.214-0.23-0.325l-0.025-0.052c-0.18-0.283-0.326-0.588-0.433-0.905c-0.044-0.123-0.079-0.25-0.104-0.378l0,0
		c-0.189-0.787-0.121-1.614,0.195-2.359c1.398,1.169,2.932,2.768,4.764,1.56c1.832-1.21,1.894-3.426,4.765-3.202
		c1.607,0.152,3.004,1.169,3.644,2.651c0.829-0.938,2.166-1.243,3.321-0.758c1.136,0.538,1.808,1.734,1.68,2.984
		c1.191-0.3,2.474-0.595,3.617-0.144c1.143,0.45,1.88,1.91,1.229,2.886c-0.018,0.03-0.038,0.059-0.061,0.085
		c-0.533,0.689-1.711,1.066-1.586,1.932l0.183,0.131l0.563,0.407l0,0c2.21,1.593,4.36,3.268,6.453,5.023
		c1.075,0.901,2.219,1.983,2.291,3.392c0.014,0.345-0.02,0.691-0.102,1.026l0,0c-0.07,0.338-0.166,0.676-0.24,1.014
		c-0.185,0.86-0.234,1.744-0.146,2.62l0,0c0.029,0.256,0.07,0.507,0.115,0.763c0.664,3.348,3.341,6.11,3.605,9.528v0.243
		c0.016,0.365,0.005,0.73-0.03,1.096c-0.199,2.078-1.161,4.075-1.942,6.063c-0.047,0.121-0.094,0.242-0.136,0.365
		c-1.504,3.896-2.371,8.051-3.033,12.195c-0.214,1.471-0.502,2.929-0.866,4.37c-0.395,1.649-1.148,3.19-2.204,4.517
		c-0.423,0.499-0.912,0.937-1.456,1.3c-0.365,0.233-0.749,0.438-1.146,0.61c0,0,0,0,0,0.026c0.047,0.263,0.085,0.529,0.134,0.792
		c0.025,0.139,0.048,0.278,0.073,0.434l0,0c-0.002,0.009-0.002,0.018,0,0.026c0.363,2.049,0.779,4.054,1.218,5.96l0.221,0.948
		c5.457,1.97,6.103,6.007,6.141,7.554c0.016,0.205,0.016,0.412,0,0.618c0,0,8.229,0.217,11.479,2.6
		c0.604,0.412,1.262,0.746,1.951,0.996c1.311,0.495,2.648,0.913,4.007,1.252c0.697,0.183,1.425,0.359,2.166,0.532
		c1.299,0.299,2.677,0.589,4.005,0.866c3.548,0.715,6.887,1.299,8.581,1.732c4.042,1.022,13.283,9.884,13.283,9.884
		s1.082,8.938,2.166,10.242c1.082,1.305,3.031,5.887,3.031,5.887l7.163,12.738l3.031,5.357h1.949c0.27,0,0.8,0.381,1.393,0.909
		c0.514,0.459,1.087,1.03,1.589,1.552l0.83,0.888l0.521,0.575c0,0,3.148,0.079,4.002,2.569c2.563-0.074,5.713,0.095,7.918,1.081
		c0.3,0.133,0.589,0.289,0.865,0.468c0.914,0.53,1.563,1.421,1.788,2.453c0.044,0.205,0.07,0.412,0.079,0.623
		c0,0.247,0,0.493,0,0.736c-0.157,3.278-2.292,6.007-4.254,7.844l0.14,0.247c0,0-0.066,0.155-0.192,0.434
		c-0.034,0.081-0.076,0.172-0.126,0.276l0,0c-0.255,0.545-0.66,1.363-1.195,2.321c-1.13,2.072-2.522,3.989-4.146,5.704l-0.124,0.13
		l-25.007,0.229l-0.075-0.087l-4.851-5.786l-2.412-2.876l-0.073-0.092l-0.07,0.689l-0.234,2.296l-0.563,5.548l-0.03,0.276v0.075
		l-0.064,0.641l0.047-0.641h-0.125l-46.344,0.434l-76.063,0.839v0.363h-0.061v-0.363l-19.382,0.208L169.333,314.668z"/>
	<path fill="#FBBEBE" d="M270.768,238.866c0,0-43.094,5.198-38.98,0c1.49-1.88,1.902-7.45,1.82-13.795
		c-0.026-1.927-0.095-3.924-0.195-5.911c-0.477-9.528-1.625-18.841-1.625-18.841s37.681-17.757,33.35-3.682
		c-1.732,5.688-1.165,13.672,0.151,21.171c0.386,2.187,0.832,4.33,1.3,6.366C267.731,229.141,269.125,234.044,270.768,238.866z"/>
	<path opacity="0.1" enable-background="new    " d="M270.768,238.866c0,0-43.094,5.198-38.98,0c1.49-1.88,1.902-7.45,1.82-13.795
		c6.57-2.807,14.929-0.714,14.929-0.714c8.801-1.754,14.444-1.412,18.053-0.183C267.731,229.141,269.125,234.044,270.768,238.866z"
		/>
	<path fill="#6C63FF" d="M188.971,314.82v-0.363l76.063-0.827l46.343-0.433h0.129l-0.047,0.641l0.064-0.641h0.083v-0.074
		l0.594-5.824l0.224-2.206l0.07-0.688l0.062-0.576l2.677-8.927l2.676-8.914l2.252-7.505l3.439-11.47c0,0-1.95-4.547-3.032-5.846
		c-1.082-1.3-2.166-10.178-2.166-10.178s-9.241-8.807-13.283-9.819c-1.694-0.434-5.037-1.01-8.589-1.732
		c-1.329-0.27-2.692-0.555-4.006-0.866c-0.741-0.169-1.469-0.348-2.166-0.524c-1.356-0.339-2.694-0.753-4.005-1.238
		c-0.688-0.251-1.343-0.584-1.95-0.992c-3.184-2.335-11.162-2.599-11.469-2.599l0,0c-0.001-0.01-0.001-0.021,0-0.03v-0.04
		c0.011-0.181,0.011-0.363,0-0.545c0-0.174,0-0.377-0.04-0.606c0-0.069,0-0.144-0.029-0.217c-0.021-0.155-0.048-0.32-0.086-0.493
		c-0.012-0.078-0.031-0.154-0.053-0.23c-0.126-0.521-0.306-1.027-0.542-1.511c-0.029-0.069-0.067-0.143-0.103-0.213
		c-0.214-0.399-0.46-0.78-0.736-1.139c-0.058-0.073-0.117-0.151-0.182-0.225c-0.354-0.418-0.75-0.803-1.179-1.144
		c-0.117-0.092-0.239-0.188-0.363-0.272c-0.071-0.058-0.146-0.109-0.221-0.156l-0.386-0.251l-0.36-0.209
		c-0.314-0.174-0.648-0.342-1.014-0.502c-0.112-0.052-0.233-0.1-0.354-0.147s-0.312-0.121-0.473-0.182h-0.026l-0.324-0.13
		c-0.247-0.083-0.498-0.156-0.762-0.229l-0.403-0.104l-0.433-0.099l-0.434-0.091c-0.434-0.088-0.896-0.166-1.381-0.226l-0.495-0.062
		l-0.506-0.052l-0.523-0.044l-0.746-0.042l-0.866-0.03c-3.82-0.001-7.63,0.404-11.364,1.207c-2.595-0.576-5.253-0.821-7.909-0.727
		h-0.376l-0.434,0.025h-0.277l-0.558,0.052c-0.187,0-0.377,0.039-0.563,0.065s-0.381,0.049-0.567,0.079l-0.286,0.047
		c-0.281,0.048-0.567,0.099-0.866,0.16c-0.096,0.017-0.191,0.039-0.286,0.063c-0.376,0.084-0.753,0.183-1.126,0.296
		c-0.186,0.052-0.372,0.112-0.559,0.178c-0.096,0.025-0.187,0.06-0.277,0.095l-0.277,0.1l-0.273,0.108l-0.325,0.13
		c-0.164,0.069-0.324,0.144-0.485,0.221c-0.091,0.04-0.182,0.083-0.268,0.131c-0.086,0.047-0.178,0.086-0.26,0.134
		c-0.979,0.507-1.884,1.145-2.689,1.897l-0.221,0.212l-0.216,0.221c-0.074,0.073-0.143,0.152-0.212,0.229
		c-0.283,0.308-0.546,0.633-0.789,0.974c-0.069,0.092-0.134,0.183-0.199,0.277c-0.275,0.406-0.524,0.829-0.745,1.266
		c-0.056,0.104-0.108,0.212-0.16,0.316c-0.354,0.732-0.644,1.492-0.866,2.273c-0.081,0.289-0.155,0.577-0.221,0.866
		c-0.1,0.433-9.168,4.045-16.774,6.973c-2.023,0.78-3.928,1.486-5.522,2.019c-0.463,0.155-0.896,0.299-1.299,0.434
		c-0.875,0.315-1.783,0.525-2.708,0.623c-0.435,0.008-0.869,0.048-1.299,0.122c-3.495,0.567-9.485,3.032-10.139,5.504
		c-0.053,0.198-0.068,0.404-0.043,0.606c0,0,0,0.031,0,0.049c0.433,3.031-2.599,2.598-2.599,2.598s-1.083,8.013-2.599,10.179
		c-1.096,1.56-1.845,5.036-1.94,7.661l0,0c-0.055,0.817,0.01,1.641,0.19,2.438c0,0.021,0,0.044,0,0.062
		c0.173,0.58-0.242,2.165-0.948,4.197c-0.767,2.229-1.884,5.002-2.958,7.617c-1.62,3.95-3.145,7.536-3.24,8.325
		c-0.039,0.35-0.151,0.979-0.307,1.789c-0.633,3.301-2.036,9.584-2.729,12.127c-0.516,1.897-1.265,4.495-1.78,6.279
		c0,0.053-0.031,0.104-0.044,0.152l19.417-0.191v0.363h0.061H188.971z"/>
	<path opacity="0.1" enable-background="new    " d="M196.057,263.771c0,0,24.687,12.776,33.566,11.261L196.057,263.771z"/>
	<path opacity="0.1" enable-background="new    " d="M246.298,258.573c0,0,24.036,7.795,32.049,8.879
		C286.36,268.535,246.298,258.573,246.298,258.573z"/>
	<path opacity="0.1" enable-background="new    " d="M272.959,233.487c-12.559,2.313-36.208,1.814-46.429,1.463
		c3.747-13.425,22.016-8.861,22.016-8.861C271.158,221.576,272.891,230.94,272.959,233.487z"/>
	<path fill="#6C63FF" d="M272.959,232.622c-12.559,2.312-36.208,1.813-46.429,1.464c3.747-13.428,22.016-8.862,22.016-8.862
		C271.158,220.71,272.891,230.074,272.959,232.622z"/>
	<path fill="#FBBEBE" d="M339.633,291.814c0,0,14.796-2.274,15.084,4.223c0.292,6.497-7.544,11.035-7.544,11.035L339.633,291.814z"
		/>
	<path opacity="0.1" enable-background="new    " d="M265.289,217.809c-0.637,0.284-1.286,0.536-1.949,0.753
		c-4.669,1.611-9.376,3.235-14.292,3.825c-4.916,0.589-10.074,0.069-14.362-2.383c-0.45-0.255-0.884-0.536-1.299-0.844
		c-0.477-9.528-1.624-18.841-1.624-18.841s37.68-17.757,33.349-3.682C263.388,202.325,263.973,210.31,265.289,217.809z"/>
	<path fill="#932A12" d="M242.434,158.641c-1.253,0.331-2.589,0.051-3.604-0.758l0.901,1.253c-1.075,0.123-2.149-0.234-2.937-0.976
		c-0.082,1.121-0.036,2.247,0.139,3.357c-1.491,0.071-2.958-0.39-4.141-1.3c-0.047,0.8,0.409,1.544,1.143,1.866
		c-3.097-0.369-5.988,1.615-6.756,4.638l2.261,0.21c-1.776,0.378-3.372,1.352-4.521,2.758c-0.694,0.866-1.222,1.976-0.918,3.032
		s1.767,1.732,2.564,0.979c-2.295,2.737-3.263,6.352-2.642,9.871c0.206,0.739,0.272,1.512,0.199,2.276
		c-0.143,0.716-0.593,1.335-0.819,2.032c-0.433,1.265-0.021,2.637,0.364,3.897l2.031,6.679c0.736,2.412,1.468,4.828,2.43,7.163
		c0.681,1.477,1.26,2.998,1.733,4.553c0.545,2.096,0.567,4.391,1.732,6.224c0.798,1.153,1.865,2.095,3.11,2.741
		c4.283,2.452,9.459,2.971,14.361,2.383c4.903-0.589,9.606-2.214,14.271-3.824c1.036-0.312,2.031-0.749,2.963-1.3
		c3.226-2.113,3.944-6.437,4.548-10.244c0.671-4.243,1.566-8.479,3.155-12.473c0.946-2.379,2.168-4.79,1.958-7.337
		c-0.264-3.383-2.94-6.125-3.603-9.451c-0.221-1.111-0.212-2.257,0.031-3.364c0.204-0.661,0.32-1.346,0.341-2.035
		c-0.071-1.396-1.217-2.47-2.29-3.366c-2.331-1.946-4.736-3.786-7.216-5.518c-0.126-0.867,1.053-1.239,1.585-1.923
		c0.753-0.967-0.025-2.5-1.17-2.95c-1.144-0.451-2.425-0.155-3.616,0.143c0.199-1.563-0.907-2.992-2.471-3.191
		c-0.955-0.122-1.907,0.247-2.531,0.979c-0.644-1.478-2.042-2.487-3.647-2.634c-2.871-0.225-2.927,1.971-4.764,3.179
		c-1.837,1.209-3.353-0.386-4.764-1.545C241.317,156,241.542,157.517,242.434,158.641z"/>
	<path fill="#6C63FF" d="M350.604,304.808c0,0-0.385,0.918-1.095,2.247c-1.075,2.046-2.383,3.96-3.898,5.704l-0.117,0.125h-0.701
		l-25.01,0.231h-0.596l-0.075-0.087l-4.852-5.757l-1.827-2.169l-0.073-0.092l-0.155-0.182l-0.086-0.104l-0.113-0.134l-3.557-4.218
		l1.3-5.415l2.215-9.121l0.054-0.221l0.434-1.732l0.308-1.3l1.032-4.235l3.533-14.573l6.279,3.247l6.623,11.695l3.556,6.279h1.949
		c0.367,0,1.213,0.71,2.062,1.529c0.304,0.289,0.606,0.598,0.867,0.865c0.771,0.797,1.381,1.48,1.381,1.48s3.157,0.071,4.007,2.556
		c0.044,0.122,0.081,0.245,0.108,0.369c0.281,0.977,0.648,1.928,1.095,2.842c0.56,1.218,1.261,2.599,1.972,3.979
		c1.32,2.534,2.663,4.946,3.156,5.821l0.061,0.108L350.604,304.808z"/>
	<path opacity="0.1" enable-background="new    " d="M313.399,285.253l-0.043,0.618v0.043l-0.074,0.997l-0.576,8.017l-0.696,9.659
		l-0.199,2.719l-0.434,5.821v0.074l-46.343,0.433l-76.051,0.823v0.363h-0.061v-0.363v-0.121l0.195-6.22l0.372-12.152l0.32-10.304
		l0.031-1.026c0.077-2.519,2.181-4.496,4.698-4.421c0.083,0.005,0.165,0.008,0.248,0.017c2.044,0.173,4.699,0.384,7.875,0.609
		l1.299,0.095c18.334,1.274,52.216,2.921,86.406,0.867c0.719-0.038,1.442-0.082,2.166-0.135c5.301-0.333,10.598-0.762,15.843-1.299
		c2.506-0.263,4.748,1.555,5.011,4.062c0.028,0.266,0.033,0.534,0.014,0.802V285.253z"/>
	<path fill="#3F3D56" d="M188.971,314.82v-0.363l76.063-0.827l46.343-0.433h0.129v-0.074l0.434-5.821l0.186-2.599l0.712-9.792
		l0.56-7.753v-0.19c0.024-0.357,0.009-0.717-0.049-1.07c0.001-0.014,0.001-0.028,0-0.043c-0.119-0.73-0.416-1.422-0.866-2.01
		c-0.97-1.243-2.512-1.897-4.08-1.732c-5.245,0.537-10.542,0.967-15.843,1.299c-0.724,0.053-1.447,0.096-2.166,0.135
		c-34.19,2.031-68.072,0.386-86.406-0.866l-1.3-0.096c-3.175-0.224-5.83-0.434-7.874-0.61c-2.33-0.195-4.431,1.398-4.868,3.694
		c-0.043,0.235-0.07,0.472-0.078,0.711l-0.295,9.598l-0.402,12.157l-0.191,6.219v0.123v0.362L188.971,314.82z"/>
	<path opacity="0.1" enable-background="new    " d="M313.529,288.288l-0.533,6.64l-0.792,9.897l-0.199,2.477l-0.434,5.548
		l-0.024,0.277v0.074l0,0l-0.065,0.641l0.048-0.641h-0.126l-46.344,0.433l-76.076,0.823v-0.121l0.212-6.22l0.433-12.152l0.277-8.077
		c0.028-0.934,0.527-1.79,1.325-2.273c0.492-0.302,1.064-0.438,1.638-0.392c0.909,0.074,2.026,0.161,3.33,0.256
		c2.118,0.156,4.729,0.338,7.771,0.528c5.63,0.356,12.694,0.735,20.789,1.048c22.521,0.867,52.927,1.157,81.807-1.373
		c1.299-0.111,2.642-0.237,3.953-0.362c0.52-0.053,1.044,0.047,1.509,0.285c0.131,0.065,0.255,0.144,0.372,0.233
		c0.376,0.273,0.675,0.641,0.865,1.066c0.046,0.084,0.081,0.172,0.108,0.264C313.505,287.526,313.557,287.907,313.529,288.288z"/>
	<path opacity="0.1" enable-background="new    " d="M166.604,294.218v1.382c0.001,1.025-0.589,1.959-1.515,2.399l-17.368,0.333
		c-0.943-0.432-1.547-1.375-1.546-2.412v-1.3L166.604,294.218z"/>
	<polygon fill="#3F3D56" points="166.821,298.814 144.191,299.247 144.191,295.491 166.821,295.058 	"/>
	<polygon opacity="0.1" enable-background="new    " points="166.821,298.814 144.191,299.247 144.191,295.491 166.821,295.058 	"/>
	<polygon fill="#3F3D56" points="167.688,298.814 145.058,299.247 145.058,295.491 167.688,295.058 	"/>
	<g opacity="0.1">
		<path d="M242.612,157.221c-0.423-0.55-0.705-1.195-0.819-1.88c-0.104,0.669-0.042,1.353,0.182,1.992
			C242.189,157.313,242.403,157.276,242.612,157.221z"/>
		<path d="M237.111,160.097c-0.082-0.532-0.135-1.066-0.16-1.603c0,0.532,0,1.069,0,1.606L237.111,160.097z"/>
		<path d="M272.409,174.549c0.024-0.386,0.077-0.77,0.156-1.148c0.204-0.657,0.321-1.341,0.346-2.03
			c-0.009-0.155-0.031-0.309-0.068-0.46c-0.073,0.399-0.19,0.798-0.277,1.192C272.392,172.905,272.34,173.729,272.409,174.549z"/>
		<path d="M263.401,161.165l0.472,0.343c0.397-0.288,0.771-0.608,1.113-0.962c0.332-0.459,0.395-1.059,0.164-1.577
			c-0.043,0.1-0.098,0.192-0.164,0.278C264.453,159.932,263.275,160.308,263.401,161.165z"/>
		<path d="M227.812,165.332c-0.158,0.316-0.284,0.646-0.376,0.987c0.677-0.377,1.407-0.653,2.165-0.817L227.812,165.332z"/>
		<path d="M233.785,160.619c-0.285-0.155-0.556-0.334-0.814-0.532c-0.011,0.172,0.002,0.345,0.039,0.512
			C233.268,160.586,233.527,160.594,233.785,160.619z"/>
		<path d="M276.13,186.14c-0.177,2.1-1.155,4.123-1.947,6.115c-1.591,3.993-2.488,8.229-3.159,12.478
			c-0.602,3.807-1.299,8.129-4.547,10.239c-0.929,0.555-1.923,0.99-2.958,1.298c-4.67,1.616-9.378,3.236-14.293,3.825
			c-4.916,0.59-10.075,0.074-14.362-2.378c-1.243-0.647-2.31-1.589-3.109-2.741c-1.157-1.832-1.179-4.127-1.733-6.225
			c-0.473-1.556-1.051-3.078-1.732-4.555c-0.958-2.33-1.694-4.765-2.426-7.159c-0.678-2.227-1.355-4.455-2.031-6.685
			c-0.223-0.67-0.388-1.358-0.494-2.057c-0.168,1.109,0.161,2.27,0.494,3.357c0.675,2.231,1.353,4.459,2.031,6.682
			c0.732,2.413,1.469,4.829,2.426,7.16c0.681,1.477,1.259,2.999,1.732,4.557c0.546,2.095,0.567,4.392,1.733,6.224
			c0.799,1.152,1.866,2.093,3.109,2.742c4.288,2.45,9.459,2.966,14.362,2.377c4.902-0.59,9.606-2.209,14.293-3.825
			c1.035-0.308,2.029-0.744,2.958-1.3c3.227-2.107,3.945-6.431,4.547-10.236c0.671-4.25,1.568-8.485,3.159-12.479
			c0.943-2.374,2.164-4.787,1.956-7.337C276.139,186.19,276.13,186.165,276.13,186.14z"/>
		<path d="M224.291,184.464c0,0,0-0.031,0-0.049c0.079-0.764,0.011-1.535-0.199-2.273c-0.086-0.476-0.143-0.956-0.168-1.438
			c-0.05,0.915,0.006,1.834,0.168,2.736C224.161,183.779,224.239,184.121,224.291,184.464z"/>
		<path d="M225.611,173.869c0.334-0.56,0.712-1.091,1.131-1.591c-0.792,0.76-2.256,0.084-2.564-0.969
			c-0.113,0.426-0.113,0.873,0,1.3C224.396,173.256,224.942,173.737,225.611,173.869z"/>
	</g>
	<path opacity="0.1" enable-background="new    " d="M333.786,284.993c0,0,1.373,4.98,0,9.312
		C332.412,298.635,333.786,284.993,333.786,284.993z"/>
	<path opacity="0.1" enable-background="new    " d="M339.633,290.072c0,0,0.575,6.324-0.723,7.445
		C337.61,298.64,339.633,290.072,339.633,290.072z"/>
	
		<line fill="none" stroke="#6C63FF" stroke-width="2" stroke-miterlimit="10" x1="123.679" y1="224.011" x2="167.688" y2="223.578"/>
	
		<line fill="none" stroke="#6C63FF" stroke-width="2" stroke-miterlimit="10" x1="123.679" y1="229.412" x2="167.688" y2="228.982"/>
	
		<line fill="none" stroke="#6C63FF" stroke-width="2" stroke-miterlimit="10" x1="123.679" y1="234.816" x2="167.688" y2="234.384"/>
</g>
</svg>
