<?xml version="1.0" encoding="utf-8"?>
<!-- Generator: Adobe Illustrator 16.0.0, SVG Export Plug-In . SVG Version: 6.00 Build 0)  -->
<!DOCTYPE svg PUBLIC "-//W3C//DTD SVG 1.1//EN" "http://www.w3.org/Graphics/SVG/1.1/DTD/svg11.dtd">
<svg version="1.1" id="Layer_1" xmlns="http://www.w3.org/2000/svg" xmlns:xlink="http://www.w3.org/1999/xlink" x="0px" y="0px"
	 width="175.25px" height="63.917px" viewBox="0 0 175.25 63.917" enable-background="new 0 0 175.25 63.917" xml:space="preserve">
<g>
	<path fill="#FFFFFF" d="M152.838,19.977c-0.119-0.016-0.238-0.002-0.357,0.039c-0.226,0.074-0.375,0.219-0.451,0.436
		c-0.016,0.045-0.027,0.109-0.038,0.192c-0.007,0.046-0.013,0.088-0.017,0.125c0.014,0.04,0.021,0.064,0.019,0.073
		c0.036,0.155,0.103,0.284,0.196,0.385c0.095,0.101,0.235,0.164,0.422,0.188c0.212,0.027,0.4-0.023,0.563-0.153
		c0.163-0.129,0.262-0.319,0.293-0.569c0.006-0.188-0.05-0.347-0.164-0.479C153.188,20.081,153.033,20.002,152.838,19.977z"/>
	<path fill="#FFFFFF" d="M152.359,23.57c-0.297-0.039-0.532,0.082-0.711,0.36c-0.09,0.12-0.135,0.241-0.131,0.364
		c-0.023,0.185,0.029,0.359,0.164,0.522s0.309,0.258,0.521,0.286c0.322,0.042,0.57-0.086,0.74-0.384
		c0.049-0.079,0.08-0.173,0.095-0.285c0.032-0.259-0.056-0.482-0.267-0.669C152.652,23.656,152.518,23.59,152.359,23.57z"/>
	<path fill="#FFFFFF" d="M157.27,0.8c-9.459,0-17.127,7.668-17.127,17.127c0,9.458,7.668,17.126,17.127,17.126
		s17.127-7.668,17.127-17.126C174.396,8.468,166.729,0.8,157.27,0.8z M155.873,20.85c-0.073,0.564-0.305,1.08-0.693,1.547
		l-0.131,0.125c0.639,0.665,0.896,1.472,0.773,2.423c-0.045,0.342-0.146,0.681-0.301,1.017c-0.228,0.44-0.535,0.817-0.924,1.133
		c-0.349,0.292-0.715,0.503-1.099,0.632c-0.384,0.128-0.834,0.187-1.351,0.177c-0.104,0.005-0.207,0.001-0.309-0.012
		s-0.181-0.023-0.236-0.031c-0.222-0.028-0.418-0.073-0.588-0.132c-0.828-0.294-1.426-0.729-1.793-1.302
		c-0.252-0.389-0.424-0.716-0.517-0.982c-0.093-0.265-0.142-0.504-0.147-0.715c-0.004-0.212,0.006-0.42,0.031-0.623
		c0.1-0.766,0.502-1.409,1.21-1.927l0.278-0.189c-0.199-0.28-0.338-0.573-0.416-0.88c-0.077-0.306-0.096-0.621-0.055-0.945
		c0.021-0.148,0.054-0.298,0.102-0.453c0.146-0.47,0.33-0.834,0.551-1.093c0.223-0.258,0.551-0.496,0.982-0.713
		c0.181-0.089,0.393-0.165,0.636-0.228s0.483-0.097,0.72-0.104c0.235-0.007,0.445,0.001,0.633,0.025
		c0.221,0.029,0.446,0.086,0.676,0.172c0.229,0.086,0.441,0.194,0.643,0.323c0.502,0.338,0.865,0.75,1.09,1.235
		C155.863,19.816,155.939,20.323,155.873,20.85z M154.854,16.966c0,0-0.682-0.397-1.449-0.48c-0.768-0.082-1.658,0.077-1.658,0.077
		l0.9-6.954l-0.694-0.09l1.103-2.948l3.094,0.4L154.854,16.966z M161.352,29.082l-3.108-0.403l0.899-6.953l-0.692-0.09l1.103-2.948
		l3.094,0.401L161.352,29.082z M166.938,11.688c-0.033,0.259-0.107,0.546-0.224,0.86c-0.075,0.207-0.147,0.381-0.224,0.522
		c-0.074,0.141-0.17,0.284-0.281,0.429l-3.166,4.289l-3.623-0.469l2.034-2.629l-0.376-0.147l-0.159-0.077l-0.187-0.094
		c-0.678-0.361-1.174-0.839-1.492-1.436c-0.318-0.596-0.428-1.273-0.33-2.032c0.013-0.093,0.025-0.178,0.04-0.256
		c0.016-0.078,0.059-0.254,0.132-0.526c0.322-1.106,1.078-1.893,2.268-2.359c0.286-0.104,0.603-0.179,0.946-0.224
		c0.345-0.044,0.688-0.045,1.03,0c0.156,0.021,0.316,0.046,0.477,0.076c0.161,0.03,0.313,0.069,0.458,0.116
		c0.335,0.109,0.638,0.245,0.907,0.407c0.27,0.162,0.516,0.347,0.732,0.554c0.651,0.63,1.004,1.391,1.06,2.282
		c0.008,0.161,0.011,0.279,0.011,0.354C166.971,11.4,166.959,11.521,166.938,11.688z"/>
	<path fill="#FFFFFF" d="M163.038,10.519c-0.083-0.011-0.168-0.007-0.255,0.01c-0.223,0.046-0.395,0.151-0.514,0.314
		c-0.121,0.164-0.188,0.314-0.207,0.453c-0.019,0.139,0.006,0.283,0.071,0.433c0.13,0.299,0.353,0.469,0.667,0.509
		c0.194,0.025,0.364-0.014,0.51-0.117l0.223-0.197c0.123-0.144,0.195-0.313,0.222-0.508c0.028-0.222-0.026-0.42-0.17-0.594
		C163.441,10.649,163.262,10.548,163.038,10.519z"/>
</g>
<path fill="#FFFFFF" d="M15.271,21.502c-0.833,0.718-1.599,1.227-2.297,1.527c-0.698,0.301-1.464,0.451-2.297,0.451H8.67v4.565
	H2.156V13.332H0.703l1.454-6.223h7.735c0.291,0,0.523,0.01,0.698,0.029c0.174,0.02,0.426,0.058,0.756,0.116
	c3.547,0.64,5.68,2.714,6.397,6.223c0.077,0.311,0.126,0.611,0.146,0.901c0.019,0.291,0.029,0.63,0.029,1.018
	c0,1.337-0.218,2.5-0.654,3.489C16.826,19.875,16.162,20.747,15.271,21.502z M10.124,13.506H8.67v3.838h1.25
	c0.31,0,0.615-0.141,0.916-0.422c0.3-0.281,0.479-0.591,0.538-0.931c0.058-0.339,0.087-0.567,0.087-0.683
	c0-0.562-0.131-1.003-0.393-1.323C10.806,13.665,10.492,13.506,10.124,13.506z"/>
<path fill="#FFFFFF" d="M34.288,28.045H28.21V19.7c0-0.814-0.601-1.221-1.803-1.221c-0.232,0-0.417,0-0.553,0l-0.407,0.058v9.509
	H19.37V12.161h-1.454l1.599-5.866h5.932v8.781l1.221-2.326h3.577c0.717,0,1.386,0.188,2.006,0.567
	c0.62,0.378,1.076,0.814,1.367,1.309c0.291,0.494,0.504,1.197,0.64,2.108l0.029,0.494v4.943h1.454L34.288,28.045z"/>
<path fill="#FFFFFF" d="M42.662,21.648c0.252,0.485,0.601,0.849,1.047,1.091c0.446,0.242,1.095,0.412,1.948,0.509
	c0.097,0.02,0.194,0.029,0.291,0.029c0.116,0,0.232,0,0.349,0c0.873,0,2.171-0.184,3.897-0.552l0.785-0.204l-1.396,5.35
	l-1.164,0.175c-0.93,0.116-1.813,0.174-2.646,0.174c-3.063,0-5.466-0.73-7.211-2.195c-1.745-1.464-2.617-3.359-2.617-5.685
	c0-0.31,0.01-0.557,0.029-0.741s0.058-0.48,0.116-0.887c0.174-0.95,0.455-1.774,0.843-2.472c1.202-2.209,3.111-3.45,5.728-3.722
	c0.155,0,0.344-0.009,0.567-0.029c0.222-0.021,0.44-0.029,0.654-0.029c0.95,0,1.774,0.126,2.472,0.378
	c1.608,0.543,2.888,1.444,3.838,2.704c1.046,1.416,1.57,3.131,1.57,5.147l0.029,0.959H42.662z M43.389,16.792
	c-0.465,0.078-0.843,0.286-1.134,0.625c-0.291,0.34-0.436,0.742-0.436,1.207h3.809c0-0.523-0.18-0.964-0.538-1.323
	c-0.359-0.358-0.8-0.538-1.323-0.538C43.592,16.763,43.466,16.773,43.389,16.792z"/>
<path fill="#FFFFFF" d="M68.076,28.045h-5.874v-8.462c0-0.33-0.146-0.605-0.436-0.829c-0.291-0.223-0.688-0.334-1.192-0.334
	c-0.155,0-0.32,0.01-0.494,0.029c-0.175,0.02-0.359,0.058-0.553,0.116l-0.291,0.087v9.393h-5.874V18.42h-1.454l1.454-5.67h5.874
	v2.646l1.221-2.646h3.344c0.678,0,1.211,0.058,1.599,0.174c0.388,0.116,0.785,0.33,1.192,0.64c0.407,0.31,0.727,0.688,0.959,1.134
	c0.349,0.621,0.523,1.386,0.523,2.297v5.176h1.454L68.076,28.045z"/>
<path fill="#FFFFFF" d="M76.45,21.648c0.251,0.485,0.601,0.849,1.046,1.091c0.445,0.242,1.095,0.412,1.948,0.509
	c0.097,0.02,0.194,0.029,0.291,0.029c0.116,0,0.233,0,0.349,0c0.873,0,2.171-0.184,3.897-0.552l0.785-0.204l-1.396,5.35
	l-1.163,0.175c-0.931,0.116-1.813,0.174-2.646,0.174c-3.063,0-5.467-0.73-7.211-2.195c-1.744-1.464-2.617-3.359-2.617-5.685
	c0-0.31,0.01-0.557,0.029-0.741c0.019-0.184,0.058-0.48,0.116-0.887c0.174-0.95,0.455-1.774,0.843-2.472
	c1.202-2.209,3.111-3.45,5.729-3.722c0.155,0,0.344-0.009,0.567-0.029c0.223-0.021,0.44-0.029,0.654-0.029
	c0.95,0,1.773,0.126,2.472,0.378c1.608,0.543,2.888,1.444,3.838,2.704c1.046,1.416,1.57,3.131,1.57,5.147l0.029,0.959H76.45z
	 M77.177,16.792c-0.465,0.078-0.843,0.286-1.134,0.625c-0.291,0.34-0.436,0.742-0.436,1.207h3.809c0-0.523-0.18-0.964-0.538-1.323
	c-0.359-0.358-0.799-0.538-1.323-0.538C77.38,16.763,77.254,16.773,77.177,16.792z"/>
<path fill="#FFFFFF" d="M97.719,33.134c-0.392,0.116-0.951,0.193-1.682,0.232c-0.729,0.039-1.607,0.059-2.635,0.059
	c-1.184,0-2.196-0.116-3.039-0.349c-0.844-0.233-1.771-0.631-2.777-1.192l1.135-4.652c1.084,0.492,2.039,0.803,2.863,0.936
	c0.824,0.132,1.507,0.198,2.05,0.198c1.783,0,2.675-0.644,2.675-1.932v-1.47l-1.156,2.239H94.4c-1.521,0-2.621-0.086-3.295-0.261
	c-1.483-0.348-2.641-1.074-3.469-2.177c-0.887-1.161-1.33-2.612-1.33-4.354c0-0.154,0-0.319,0-0.493
	c0.039-0.232,0.058-0.406,0.058-0.522c0.116-1.258,0.542-2.448,1.279-3.57c1.046-1.547,2.443-2.573,4.188-3.076
	c0.794-0.212,1.483-0.319,2.063-0.319c0.484,0,0.936,0.068,1.353,0.204c0.417,0.136,0.8,0.33,1.147,0.582l0.408-0.465h5.582v14.809
	c0,1.587-0.343,2.787-1.027,3.601C100.674,31.973,99.461,32.631,97.719,33.134z M96.311,20.254c0-0.59-0.146-1.082-0.437-1.476
	c-0.291-0.393-0.66-0.59-1.104-0.59c-0.737,0-1.318,0.174-1.746,0.523c-0.426,0.349-0.64,0.833-0.64,1.454
	c0,0.64,0.267,1.115,0.8,1.425c0.533,0.31,1.4,0.465,2.604,0.465h0.523V20.254z"/>
<path fill="#FFFFFF" d="M110.559,21.648c0.252,0.485,0.601,0.849,1.047,1.091c0.445,0.242,1.096,0.412,1.949,0.509
	c0.096,0.02,0.192,0.029,0.291,0.029c0.116,0,0.231,0,0.348,0c0.873,0,2.172-0.184,3.896-0.552l0.785-0.204l-1.396,5.35
	l-1.162,0.175c-0.93,0.116-1.813,0.174-2.646,0.174c-3.064,0-5.467-0.73-7.211-2.195c-1.744-1.464-2.617-3.359-2.617-5.685
	c0-0.31,0.01-0.557,0.029-0.741s0.059-0.48,0.115-0.887c0.175-0.95,0.457-1.774,0.844-2.472c1.202-2.209,3.111-3.45,5.729-3.722
	c0.155,0,0.344-0.009,0.567-0.029c0.222-0.021,0.44-0.029,0.653-0.029c0.949,0,1.775,0.126,2.473,0.378
	c1.609,0.543,2.889,1.444,3.838,2.704c1.047,1.416,1.57,3.131,1.57,5.147l0.029,0.959H110.559z M111.285,16.792
	c-0.465,0.078-0.844,0.286-1.135,0.625c-0.291,0.34-0.436,0.742-0.436,1.207h3.809c0-0.523-0.178-0.964-0.539-1.323
	c-0.357-0.358-0.799-0.538-1.322-0.538C111.488,16.763,111.361,16.773,111.285,16.792z"/>
<path fill="#FFFFFF" d="M130.127,19.014l-0.581-0.087c-0.369-0.059-0.795,0.043-1.278,0.305c-0.485,0.263-0.834,0.859-1.047,1.792
	l-0.059,0.408v6.613h-5.903v-9.538h-1.454l1.454-5.757h5.903v1.483c0.639-0.775,1.628-1.328,2.965-1.658
	c0.484-0.097,0.921-0.146,1.311-0.146c0.211,0,0.367,0,0.463,0L130.127,19.014z"/>
<path fill="#FFFFFF" d="M17.062,50.725c-0.616,1.617-1.572,2.96-2.872,4.031c-0.913,0.772-1.887,1.33-2.924,1.673
	C10.229,56.771,9,56.943,7.578,56.943H2.02V43.64H0.703l1.317-5.663h6.743c2.283,0,4.303,0.798,6.059,2.397
	c1.036,0.965,1.792,2.072,2.266,3.317c0.21,0.563,0.355,1.164,0.435,1.805c0.079,0.642,0.118,1.444,0.118,2.411
	c0,0.438-0.048,0.886-0.145,1.343C17.399,49.707,17.254,50.198,17.062,50.725z M9.764,44.061c-0.526-0.264-1.142-0.395-1.844-0.395
	v7.296h0.526c0.948-0.089,1.716-0.452,2.305-1.094c0.588-0.642,0.882-1.462,0.882-2.464c0-0.264-0.025-0.543-0.079-0.842
	C11.309,45.404,10.712,44.57,9.764,44.061z"/>
<path fill="#FFFFFF" d="M24.49,51.146c0.228,0.438,0.544,0.77,0.948,0.988c0.405,0.219,0.991,0.372,1.765,0.46
	c0.087,0.019,0.176,0.026,0.264,0.026c0.105,0,0.211,0,0.316,0c0.791,0,1.967-0.167,3.53-0.501l0.711-0.183l-1.265,4.846
	l-1.053,0.158c-0.843,0.106-1.643,0.158-2.397,0.158c-2.774,0-4.953-0.663-6.532-1.99c-1.581-1.326-2.372-3.041-2.372-5.149
	c0-0.279,0.008-0.504,0.025-0.671c0.018-0.166,0.053-0.435,0.106-0.803c0.157-0.859,0.413-1.606,0.764-2.24
	c1.089-2.001,2.818-3.124,5.189-3.371c0.14,0,0.312-0.008,0.514-0.025c0.202-0.018,0.399-0.026,0.593-0.026
	c0.86,0,1.606,0.114,2.239,0.343c1.458,0.491,2.617,1.309,3.478,2.449c0.948,1.282,1.423,2.837,1.423,4.663l0.025,0.868H24.49z
	 M25.147,46.749c-0.421,0.069-0.764,0.259-1.028,0.564c-0.263,0.309-0.395,0.673-0.395,1.095h3.45c0-0.474-0.163-0.873-0.487-1.199
	c-0.326-0.323-0.725-0.486-1.199-0.486C25.333,46.722,25.218,46.73,25.147,46.749z"/>
<path fill="#FFFFFF" d="M42.876,56.943h-6.375l-4.03-13.856h5.795l1.686,7.533l1.476-7.533h5.663L42.876,56.943z"/>
<path fill="#FFFFFF" d="M52.964,51.146c0.229,0.438,0.543,0.77,0.948,0.988c0.403,0.219,0.991,0.372,1.765,0.46
	c0.088,0.019,0.175,0.026,0.264,0.026c0.105,0,0.211,0,0.316,0c0.791,0,1.967-0.167,3.53-0.501l0.711-0.183l-1.264,4.846
	l-1.054,0.158c-0.843,0.106-1.642,0.158-2.397,0.158c-2.775,0-4.952-0.663-6.533-1.99c-1.581-1.326-2.371-3.041-2.371-5.149
	c0-0.279,0.009-0.504,0.027-0.671c0.017-0.166,0.052-0.435,0.105-0.803c0.159-0.859,0.412-1.606,0.764-2.24
	c1.089-2.001,2.819-3.124,5.19-3.371c0.14,0,0.312-0.008,0.514-0.025s0.4-0.026,0.592-0.026c0.861,0,1.607,0.114,2.239,0.343
	c1.458,0.491,2.618,1.309,3.477,2.449c0.948,1.282,1.422,2.837,1.422,4.663l0.027,0.868H52.964z M53.623,46.749
	c-0.422,0.069-0.764,0.259-1.027,0.564c-0.264,0.309-0.396,0.673-0.396,1.095h3.45c0-0.474-0.162-0.873-0.487-1.199
	c-0.326-0.323-0.725-0.486-1.198-0.486C53.807,46.722,53.693,46.73,53.623,46.749z"/>
<path fill="#FFFFFF" d="M68.165,56.943h-5.506V42.552h-1.317l1.712-5.313h5.111v14.39h1.343L68.165,56.943z"/>
<path fill="#FFFFFF" d="M83.495,53.643c-1.125,1.83-2.731,2.982-4.821,3.457c-0.544,0.123-1.124,0.186-1.738,0.186
	c-1.721,0-3.257-0.545-4.609-1.634c-0.703-0.579-1.247-1.189-1.633-1.831s-0.684-1.444-0.896-2.41l-0.106-0.737
	c0-0.122-0.004-0.258-0.014-0.407c-0.009-0.149-0.014-0.251-0.014-0.303c0-1.668,0.606-3.214,1.818-4.636
	c1.142-1.3,2.626-2.081,4.452-2.345c0.369-0.053,0.755-0.079,1.159-0.079c0.228,0,0.404,0,0.527,0c0.86,0,1.633,0.15,2.318,0.448
	c0.685,0.299,1.396,0.757,2.134,1.373c0.386,0.316,0.692,0.643,0.922,0.977c1.001,1.303,1.501,2.737,1.501,4.302
	C84.496,51.321,84.162,52.533,83.495,53.643z M77.621,48.118c-0.211-0.054-0.421-0.08-0.632-0.08c-0.089,0-0.22,0.019-0.396,0.052
	c-0.492,0.106-0.886,0.322-1.185,0.646c-0.298,0.324-0.448,0.726-0.448,1.198c-0.087,1.001,0.316,1.686,1.212,2.055
	c0.228,0.089,0.412,0.15,0.553,0.186c0.087,0.017,0.21,0.026,0.369,0.026c0.475,0,0.886-0.141,1.239-0.423
	c0.351-0.279,0.58-0.647,0.684-1.105c0.053-0.211,0.08-0.421,0.08-0.632C79.095,49.075,78.604,48.434,77.621,48.118z"/>
<path fill="#FFFFFF" d="M99.536,54.861c-0.562,0.615-1.172,1.093-1.83,1.436c-0.66,0.344-1.445,0.575-2.358,0.698
	c-0.246,0.035-0.474,0.063-0.685,0.079c-0.21,0.018-0.457,0.027-0.738,0.027c-0.772,0-1.57-0.123-2.396-0.369v4.767h-5.505V48.145
	h-1.317l1.317-5.058h5.505v2.239l1.238-2.239h2.449c1.317,0,2.564,0.5,3.741,1.501c1.106,0.914,1.826,2.213,2.159,3.898
	c0.019,0.141,0.045,0.372,0.079,0.698c0.035,0.325,0.052,0.663,0.052,1.014c0,0.931-0.148,1.791-0.447,2.582
	C100.503,53.57,100.081,54.264,99.536,54.861z M91.95,48.407h-0.422v1.22c0,0.655,0.118,1.172,0.355,1.552
	c0.237,0.381,0.567,0.628,0.987,0.743c0.421,0.116,0.772,0.172,1.054,0.172c0.596,0,1.054-0.254,1.37-0.764
	c0.141-0.21,0.22-0.399,0.236-0.566c0.019-0.167,0.027-0.354,0.027-0.566c0-0.667-0.269-1.132-0.804-1.396
	C94.219,48.537,93.285,48.407,91.95,48.407z"/>
<path fill="#FFFFFF" d="M126.746,56.943h-5.293v-7.481c0-0.827-0.581-1.239-1.74-1.239c-0.106,0-0.299,0-0.579,0l-0.396,0.106v8.614
	h-5.321v-7.455c0-0.193-0.068-0.387-0.21-0.58c-0.141-0.193-0.348-0.368-0.62-0.526c-0.271-0.158-0.575-0.236-0.909-0.236
	c-0.175,0-0.386,0.025-0.631,0.079l-0.316,0.105v8.615h-5.321v-8.801h-1.317l1.317-5.058h5.321v2.554l1.086-2.554h3.343
	c0.724,0,1.467,0.299,2.226,0.896c0.355,0.28,0.69,0.667,1.009,1.158c0.069,0.105,0.15,0.236,0.238,0.396
	c0.036,0.052,0.07,0.141,0.106,0.264l1.229-2.713h2.932c0.75,0,1.34,0.096,1.767,0.29s0.85,0.57,1.27,1.133
	c0.263,0.368,0.48,0.869,0.654,1.501c0.104,0.474,0.157,0.835,0.157,1.08v4.53h1.317L126.746,56.943z"/>
<path fill="#FFFFFF" d="M134.334,51.146c0.227,0.438,0.543,0.77,0.947,0.988c0.405,0.219,0.992,0.372,1.766,0.46
	c0.087,0.019,0.175,0.026,0.263,0.026c0.105,0,0.212,0,0.318,0c0.789,0,1.965-0.167,3.529-0.501l0.71-0.183l-1.265,4.846
	l-1.053,0.158c-0.844,0.106-1.644,0.158-2.396,0.158c-2.775,0-4.953-0.663-6.534-1.99c-1.581-1.326-2.371-3.041-2.371-5.149
	c0-0.279,0.009-0.504,0.026-0.671c0.018-0.166,0.052-0.435,0.105-0.803c0.158-0.859,0.411-1.606,0.763-2.24
	c1.091-2.001,2.82-3.124,5.191-3.371c0.14,0,0.312-0.008,0.513-0.025s0.4-0.026,0.593-0.026c0.861,0,1.607,0.114,2.238,0.343
	c1.458,0.491,2.617,1.309,3.478,2.449c0.949,1.282,1.422,2.837,1.422,4.663l0.026,0.868H134.334z M134.992,46.749
	c-0.421,0.069-0.764,0.259-1.027,0.564c-0.264,0.309-0.396,0.673-0.396,1.095h3.451c0-0.474-0.163-0.873-0.486-1.199
	c-0.326-0.323-0.726-0.486-1.2-0.486C135.176,46.722,135.062,46.73,134.992,46.749z"/>
<path fill="#FFFFFF" d="M157.356,56.943h-5.32v-7.667c0-0.298-0.133-0.549-0.396-0.75c-0.263-0.202-0.622-0.303-1.079-0.303
	c-0.143,0-0.29,0.009-0.448,0.027c-0.158,0.017-0.325,0.053-0.501,0.104l-0.263,0.078v8.511h-5.321v-8.72h-1.316l1.316-5.137h5.321
	v2.396l1.105-2.396h3.029c0.615,0,1.096,0.053,1.448,0.158c0.352,0.104,0.711,0.299,1.08,0.579c0.367,0.282,0.659,0.624,0.869,1.028
	c0.316,0.562,0.475,1.256,0.475,2.081v4.689h1.317L157.356,56.943z"/>
<path fill="#FFFFFF" d="M166.26,48.276h-0.947v8.667h-5.507v-8.667h-1.897l1.317-5.189h0.58v-1.875l5.507-1.346v3.22h2.265
	L166.26,48.276z"/>
<rect x="1.986" y="58.892" fill="#FFFFFF" width="81.352" height="2.608"/>
<rect x="1.949" y="30.128" fill="#FFFFFF" width="82.666" height="2.534"/>
<rect x="103.841" y="30.128" fill="#FFFFFF" width="29.556" height="2.534"/>
<rect x="95.117" y="58.892" fill="#FFFFFF" width="73.483" height="2.608"/>
</svg>
