<?xml version="1.0" encoding="utf-8"?>
<!-- Generator: Adobe Illustrator 16.0.0, SVG Export Plug-In . SVG Version: 6.00 Build 0)  -->
<!DOCTYPE svg PUBLIC "-//W3C//DTD SVG 1.1//EN" "http://www.w3.org/Graphics/SVG/1.1/DTD/svg11.dtd">
<svg version="1.1" id="Layer_1" xmlns="http://www.w3.org/2000/svg" xmlns:xlink="http://www.w3.org/1999/xlink" x="0px" y="0px"
	 width="175.25px" height="63.917px" viewBox="0 0 175.25 63.917" enable-background="new 0 0 175.25 63.917" xml:space="preserve">
<g>
	<path fill="#000008" d="M152.838,19.977c-0.119-0.016-0.238-0.002-0.357,0.039c-0.226,0.074-0.375,0.219-0.451,0.436
		c-0.016,0.045-0.026,0.109-0.037,0.192c-0.008,0.046-0.014,0.088-0.018,0.125c0.015,0.04,0.021,0.064,0.02,0.073
		c0.035,0.155,0.104,0.284,0.195,0.385c0.096,0.101,0.235,0.164,0.422,0.188c0.213,0.027,0.4-0.023,0.563-0.153
		c0.163-0.129,0.263-0.319,0.293-0.569c0.007-0.188-0.05-0.347-0.163-0.479C153.188,20.081,153.033,20.002,152.838,19.977z"/>
	<path fill="#000008" d="M152.359,23.57c-0.297-0.039-0.532,0.082-0.711,0.36c-0.09,0.12-0.135,0.241-0.131,0.364
		c-0.023,0.185,0.028,0.359,0.164,0.522c0.135,0.163,0.309,0.258,0.521,0.286c0.321,0.042,0.569-0.086,0.739-0.384
		c0.05-0.079,0.08-0.173,0.096-0.285c0.031-0.259-0.057-0.482-0.268-0.669C152.652,23.656,152.518,23.59,152.359,23.57z"/>
	<path fill="#000008" d="M157.27,0.8c-9.459,0-17.127,7.668-17.127,17.127c0,9.458,7.668,17.125,17.127,17.125
		s17.127-7.667,17.127-17.125C174.396,8.468,166.729,0.8,157.27,0.8z M155.873,20.85c-0.073,0.564-0.305,1.08-0.693,1.547
		l-0.131,0.125c0.639,0.665,0.896,1.472,0.773,2.423c-0.045,0.342-0.146,0.681-0.301,1.017c-0.229,0.44-0.535,0.817-0.924,1.133
		c-0.35,0.292-0.716,0.503-1.1,0.632c-0.384,0.128-0.834,0.187-1.352,0.177c-0.104,0.005-0.207,0.001-0.309-0.012
		s-0.181-0.023-0.236-0.031c-0.222-0.028-0.418-0.073-0.588-0.132c-0.828-0.294-1.426-0.729-1.793-1.302
		c-0.252-0.389-0.424-0.716-0.517-0.982c-0.093-0.265-0.142-0.504-0.147-0.715c-0.004-0.212,0.006-0.42,0.031-0.623
		c0.1-0.766,0.502-1.409,1.21-1.927l0.278-0.189c-0.199-0.28-0.338-0.573-0.416-0.88c-0.077-0.306-0.096-0.621-0.055-0.945
		c0.021-0.148,0.054-0.298,0.102-0.453c0.146-0.47,0.33-0.834,0.551-1.093c0.223-0.258,0.551-0.496,0.982-0.713
		c0.181-0.089,0.393-0.165,0.636-0.228s0.483-0.097,0.72-0.104c0.235-0.007,0.445,0.001,0.633,0.025
		c0.222,0.029,0.446,0.086,0.677,0.172c0.229,0.086,0.44,0.194,0.643,0.323c0.502,0.338,0.865,0.75,1.091,1.235
		C155.863,19.816,155.939,20.323,155.873,20.85z M154.854,16.966c0,0-0.682-0.397-1.449-0.48c-0.768-0.082-1.657,0.077-1.657,0.077
		l0.899-6.954l-0.693-0.09l1.104-2.948l3.094,0.4L154.854,16.966z M161.352,29.082l-3.107-0.403l0.898-6.953l-0.691-0.09
		l1.104-2.948l3.094,0.401L161.352,29.082z M166.938,11.688c-0.033,0.259-0.106,0.546-0.224,0.86
		c-0.075,0.207-0.147,0.381-0.224,0.522c-0.074,0.141-0.17,0.284-0.281,0.429l-3.166,4.289l-3.623-0.469l2.034-2.629l-0.376-0.147
		l-0.159-0.077l-0.187-0.094c-0.678-0.361-1.174-0.839-1.492-1.436c-0.318-0.596-0.428-1.273-0.33-2.032
		c0.013-0.093,0.025-0.178,0.04-0.256c0.016-0.078,0.059-0.254,0.132-0.526c0.322-1.106,1.078-1.893,2.268-2.359
		c0.286-0.104,0.604-0.179,0.946-0.224c0.345-0.044,0.688-0.045,1.03,0c0.156,0.021,0.316,0.046,0.477,0.076
		c0.161,0.03,0.313,0.069,0.458,0.116c0.335,0.109,0.638,0.245,0.907,0.407c0.27,0.162,0.516,0.347,0.732,0.554
		c0.65,0.63,1.004,1.391,1.06,2.282c0.008,0.161,0.011,0.279,0.011,0.354C166.971,11.4,166.959,11.521,166.938,11.688z"/>
	<path fill="#000008" d="M163.038,10.519c-0.083-0.011-0.168-0.007-0.255,0.01c-0.223,0.046-0.395,0.151-0.514,0.314
		c-0.121,0.164-0.188,0.314-0.207,0.453c-0.02,0.139,0.006,0.283,0.07,0.433c0.131,0.299,0.354,0.469,0.667,0.509
		c0.194,0.025,0.364-0.014,0.511-0.117l0.223-0.197c0.123-0.144,0.195-0.313,0.222-0.508c0.028-0.222-0.026-0.42-0.17-0.594
		C163.441,10.649,163.262,10.548,163.038,10.519z"/>
</g>
<path fill="#000008" d="M15.271,21.502c-0.833,0.718-1.599,1.227-2.297,1.527c-0.698,0.301-1.464,0.451-2.297,0.451H8.67v4.565
	H2.156V13.332H0.703l1.454-6.223h7.735c0.291,0,0.523,0.01,0.698,0.029c0.174,0.02,0.426,0.058,0.756,0.116
	c3.547,0.64,5.68,2.714,6.397,6.223c0.077,0.311,0.126,0.611,0.146,0.901c0.019,0.291,0.029,0.63,0.029,1.018
	c0,1.337-0.218,2.5-0.654,3.489C16.826,19.875,16.162,20.747,15.271,21.502z M10.124,13.506H8.67v3.838h1.25
	c0.31,0,0.615-0.141,0.916-0.422c0.3-0.281,0.479-0.591,0.538-0.931c0.058-0.339,0.087-0.567,0.087-0.683
	c0-0.562-0.131-1.003-0.393-1.323C10.806,13.665,10.492,13.506,10.124,13.506z"/>
<path fill="#000008" d="M34.288,28.045H28.21V19.7c0-0.814-0.601-1.221-1.803-1.221c-0.232,0-0.417,0-0.553,0l-0.407,0.058v9.509
	H19.37V12.161h-1.454l1.599-5.866h5.932v8.781l1.221-2.326h3.577c0.717,0,1.386,0.188,2.006,0.567
	c0.62,0.378,1.076,0.814,1.367,1.309c0.291,0.494,0.504,1.197,0.64,2.108l0.029,0.494v4.943h1.454L34.288,28.045z"/>
<path fill="#000008" d="M42.662,21.648c0.252,0.485,0.601,0.849,1.047,1.091c0.446,0.242,1.095,0.412,1.948,0.509
	c0.097,0.02,0.194,0.029,0.291,0.029c0.116,0,0.232,0,0.349,0c0.873,0,2.171-0.184,3.897-0.552l0.785-0.204l-1.396,5.35
	l-1.164,0.175c-0.93,0.116-1.813,0.174-2.646,0.174c-3.063,0-5.466-0.729-7.211-2.195c-1.745-1.464-2.617-3.359-2.617-5.685
	c0-0.31,0.01-0.557,0.029-0.741s0.058-0.48,0.116-0.887c0.174-0.95,0.455-1.774,0.843-2.472c1.202-2.209,3.111-3.45,5.728-3.722
	c0.155,0,0.344-0.009,0.567-0.029c0.222-0.021,0.44-0.029,0.654-0.029c0.95,0,1.774,0.126,2.472,0.378
	c1.608,0.543,2.888,1.444,3.838,2.704c1.046,1.416,1.57,3.131,1.57,5.147l0.029,0.959H42.662z M43.389,16.792
	c-0.465,0.078-0.843,0.286-1.134,0.625c-0.291,0.34-0.436,0.742-0.436,1.207h3.809c0-0.523-0.18-0.964-0.538-1.323
	c-0.359-0.358-0.8-0.538-1.323-0.538C43.592,16.763,43.466,16.773,43.389,16.792z"/>
<path fill="#000008" d="M68.076,28.045h-5.874v-8.462c0-0.33-0.146-0.605-0.436-0.829c-0.291-0.223-0.688-0.334-1.192-0.334
	c-0.155,0-0.32,0.01-0.494,0.029c-0.175,0.02-0.359,0.058-0.553,0.116l-0.291,0.087v9.393h-5.874V18.42h-1.454l1.454-5.67h5.874
	v2.646l1.221-2.646h3.344c0.678,0,1.211,0.058,1.599,0.174c0.388,0.116,0.785,0.33,1.192,0.64c0.407,0.31,0.727,0.688,0.959,1.134
	c0.349,0.621,0.523,1.386,0.523,2.297v5.176h1.454L68.076,28.045z"/>
<path fill="#000008" d="M76.45,21.648c0.251,0.485,0.601,0.849,1.046,1.091c0.445,0.242,1.095,0.412,1.948,0.509
	c0.097,0.02,0.194,0.029,0.291,0.029c0.116,0,0.233,0,0.349,0c0.873,0,2.171-0.184,3.897-0.552l0.785-0.204l-1.396,5.35
	l-1.163,0.175c-0.931,0.116-1.813,0.174-2.646,0.174c-3.063,0-5.467-0.729-7.211-2.195c-1.744-1.464-2.617-3.359-2.617-5.685
	c0-0.31,0.01-0.557,0.029-0.741c0.019-0.184,0.058-0.48,0.116-0.887c0.174-0.95,0.455-1.774,0.843-2.472
	c1.202-2.209,3.111-3.45,5.729-3.722c0.155,0,0.344-0.009,0.567-0.029c0.223-0.021,0.44-0.029,0.654-0.029
	c0.95,0,1.773,0.126,2.472,0.378c1.608,0.543,2.888,1.444,3.838,2.704c1.046,1.416,1.57,3.131,1.57,5.147l0.029,0.959H76.45z
	 M77.177,16.792c-0.465,0.078-0.843,0.286-1.134,0.625c-0.291,0.34-0.436,0.742-0.436,1.207h3.809c0-0.523-0.18-0.964-0.538-1.323
	c-0.359-0.358-0.799-0.538-1.323-0.538C77.38,16.763,77.254,16.773,77.177,16.792z"/>
<path fill="#000008" d="M97.719,33.134c-0.392,0.115-0.951,0.193-1.682,0.232c-0.729,0.039-1.607,0.059-2.635,0.059
	c-1.185,0-2.196-0.116-3.039-0.35c-0.844-0.232-1.771-0.631-2.777-1.192l1.135-4.652c1.084,0.492,2.039,0.803,2.863,0.936
	c0.824,0.132,1.507,0.198,2.05,0.198c1.783,0,2.675-0.644,2.675-1.932v-1.47l-1.156,2.239H94.4c-1.521,0-2.621-0.086-3.295-0.261
	c-1.483-0.348-2.642-1.074-3.469-2.177c-0.887-1.161-1.33-2.612-1.33-4.354c0-0.154,0-0.319,0-0.493
	c0.039-0.232,0.058-0.406,0.058-0.522c0.116-1.258,0.542-2.448,1.279-3.57c1.046-1.547,2.443-2.573,4.188-3.076
	c0.794-0.212,1.483-0.319,2.063-0.319c0.483,0,0.936,0.068,1.353,0.204c0.417,0.136,0.8,0.33,1.147,0.582l0.407-0.465h5.582v14.809
	c0,1.587-0.343,2.787-1.026,3.601C100.674,31.973,99.461,32.63,97.719,33.134z M96.311,20.254c0-0.59-0.146-1.082-0.437-1.476
	c-0.291-0.393-0.66-0.59-1.104-0.59c-0.736,0-1.317,0.174-1.746,0.523c-0.426,0.349-0.64,0.833-0.64,1.454
	c0,0.64,0.267,1.115,0.8,1.425c0.533,0.31,1.4,0.465,2.604,0.465h0.522V20.254L96.311,20.254z"/>
<path fill="#000008" d="M110.559,21.648c0.252,0.485,0.602,0.849,1.047,1.091c0.445,0.242,1.097,0.412,1.949,0.509
	c0.096,0.02,0.192,0.029,0.291,0.029c0.116,0,0.231,0,0.348,0c0.873,0,2.173-0.184,3.896-0.552l0.785-0.204l-1.396,5.35
	l-1.162,0.175c-0.93,0.116-1.813,0.174-2.646,0.174c-3.063,0-5.467-0.729-7.211-2.195c-1.744-1.464-2.617-3.359-2.617-5.685
	c0-0.31,0.011-0.557,0.029-0.741s0.06-0.48,0.114-0.887c0.176-0.95,0.457-1.774,0.845-2.472c1.202-2.209,3.11-3.45,5.729-3.722
	c0.154,0,0.344-0.009,0.566-0.029c0.223-0.021,0.439-0.029,0.652-0.029c0.949,0,1.775,0.126,2.474,0.378
	c1.608,0.543,2.89,1.444,3.838,2.704c1.048,1.416,1.57,3.131,1.57,5.147l0.028,0.959H110.559z M111.285,16.792
	c-0.465,0.078-0.844,0.286-1.135,0.625c-0.291,0.34-0.437,0.742-0.437,1.207h3.81c0-0.523-0.178-0.964-0.539-1.323
	c-0.357-0.358-0.799-0.538-1.322-0.538C111.488,16.763,111.361,16.773,111.285,16.792z"/>
<path fill="#000008" d="M130.127,19.014l-0.581-0.087c-0.369-0.059-0.795,0.043-1.278,0.305c-0.484,0.263-0.834,0.859-1.047,1.792
	l-0.059,0.408v6.613h-5.903v-9.538h-1.454l1.454-5.757h5.903v1.483c0.639-0.775,1.628-1.328,2.965-1.658
	c0.484-0.097,0.921-0.146,1.311-0.146c0.211,0,0.367,0,0.463,0L130.127,19.014z"/>
<path fill="#000008" d="M17.797,51.332c-0.644,1.688-1.642,3.093-3.001,4.211c-0.954,0.808-1.972,1.391-3.055,1.75
	c-1.084,0.356-2.368,0.536-3.854,0.536H2.079v-13.9H0.703l1.376-5.918h7.046c2.385,0,4.496,0.834,6.331,2.505
	c1.083,1.009,1.873,2.165,2.368,3.466c0.219,0.588,0.371,1.217,0.455,1.886c0.083,0.672,0.124,1.51,0.124,2.521
	c0,0.457-0.051,0.925-0.152,1.402C18.149,50.267,17.998,50.782,17.797,51.332z M10.171,44.368c-0.55-0.276-1.193-0.413-1.927-0.413
	v7.625h0.549c0.991-0.094,1.793-0.474,2.409-1.144c0.614-0.671,0.921-1.528,0.921-2.575c0-0.275-0.026-0.567-0.082-0.88
	C11.786,45.771,11.162,44.9,10.171,44.368z"/>
<path fill="#000008" d="M25.56,51.771c0.238,0.457,0.569,0.805,0.991,1.033c0.423,0.229,1.036,0.388,1.844,0.479
	c0.091,0.021,0.184,0.028,0.276,0.028c0.109,0,0.221,0,0.331,0c0.827,0,2.055-0.176,3.688-0.524l0.743-0.19l-1.322,5.064l-1.1,0.164
	c-0.881,0.111-1.717,0.165-2.505,0.165c-2.898,0-5.176-0.692-6.826-2.079c-1.652-1.385-2.479-3.178-2.479-5.381
	c0-0.291,0.009-0.527,0.026-0.7c0.019-0.174,0.055-0.455,0.111-0.84c0.164-0.897,0.432-1.679,0.798-2.34
	c1.138-2.093,2.945-3.266,5.422-3.523c0.146,0,0.326-0.008,0.538-0.026c0.211-0.019,0.417-0.026,0.62-0.026
	c0.899,0,1.678,0.118,2.339,0.357c1.524,0.515,2.735,1.368,3.635,2.56c0.991,1.34,1.487,2.965,1.487,4.872l0.026,0.907H25.56z
	 M26.246,47.177c-0.44,0.071-0.798,0.27-1.074,0.589c-0.275,0.323-0.413,0.703-0.413,1.144h3.605c0-0.495-0.17-0.912-0.509-1.253
	c-0.341-0.337-0.758-0.507-1.253-0.507C26.44,47.149,26.32,47.157,26.246,47.177z"/>
<path fill="#000008" d="M44.772,57.829h-6.662L33.899,43.35h6.056l1.762,7.872l1.542-7.872h5.917L44.772,57.829z"/>
<path fill="#000008" d="M55.314,51.771c0.239,0.457,0.567,0.805,0.991,1.033c0.421,0.229,1.035,0.388,1.844,0.479
	c0.093,0.021,0.184,0.028,0.276,0.028c0.109,0,0.22,0,0.33,0c0.827,0,2.056-0.176,3.689-0.524l0.743-0.19l-1.321,5.064l-1.101,0.164
	c-0.881,0.111-1.716,0.165-2.505,0.165c-2.9,0-5.175-0.692-6.827-2.079c-1.652-1.385-2.478-3.178-2.478-5.381
	c0-0.291,0.01-0.527,0.028-0.7c0.018-0.174,0.054-0.455,0.11-0.84c0.166-0.897,0.43-1.679,0.798-2.34
	c1.138-2.093,2.946-3.266,5.423-3.523c0.146,0,0.326-0.008,0.537-0.026s0.418-0.026,0.618-0.026c0.9,0,1.68,0.118,2.34,0.357
	c1.523,0.515,2.736,1.368,3.633,2.56c0.99,1.34,1.486,2.965,1.486,4.872l0.028,0.907H55.314z M56.002,47.177
	c-0.441,0.071-0.798,0.27-1.073,0.589c-0.276,0.323-0.414,0.703-0.414,1.144h3.605c0-0.495-0.169-0.912-0.509-1.253
	c-0.341-0.337-0.758-0.507-1.252-0.507C56.195,47.149,56.076,47.157,56.002,47.177z"/>
<path fill="#000008" d="M71.198,57.829h-5.753V42.792h-1.376l1.79-5.552h5.34v15.035h1.403L71.198,57.829z"/>
<path fill="#000008" d="M87.218,54.38c-1.176,1.913-2.854,3.116-5.038,3.612c-0.568,0.129-1.174,0.195-1.816,0.195
	c-1.798,0-3.403-0.569-4.816-1.708c-0.735-0.604-1.303-1.243-1.707-1.914c-0.403-0.67-0.715-1.509-0.936-2.517l-0.111-0.771
	c0-0.127-0.004-0.27-0.014-0.425c-0.01-0.155-0.015-0.263-0.015-0.316c0-1.743,0.633-3.359,1.9-4.846
	c1.193-1.357,2.744-2.173,4.652-2.45c0.386-0.055,0.789-0.082,1.21-0.082c0.238,0,0.423,0,0.551,0c0.898,0,1.706,0.157,2.422,0.468
	c0.716,0.313,1.458,0.791,2.229,1.436c0.404,0.329,0.724,0.672,0.964,1.021c1.046,1.361,1.568,2.859,1.568,4.494
	C88.264,51.954,87.915,53.22,87.218,54.38z M81.08,48.608c-0.22-0.058-0.44-0.084-0.661-0.084c-0.093,0-0.229,0.02-0.414,0.054
	c-0.514,0.11-0.925,0.336-1.238,0.675c-0.312,0.339-0.468,0.76-0.468,1.252c-0.091,1.047,0.33,1.763,1.267,2.148
	c0.238,0.092,0.431,0.156,0.578,0.194c0.091,0.017,0.219,0.026,0.386,0.026c0.496,0,0.925-0.147,1.294-0.442
	c0.367-0.29,0.606-0.676,0.715-1.153c0.055-0.221,0.083-0.441,0.083-0.662C82.62,49.608,82.107,48.937,81.08,48.608z"/>
<path fill="#000008" d="M103.98,55.653c-0.587,0.644-1.226,1.144-1.913,1.5c-0.689,0.36-1.509,0.603-2.464,0.731
	c-0.258,0.036-0.495,0.064-0.716,0.081c-0.219,0.019-0.478,0.028-0.771,0.028c-0.807,0-1.64-0.128-2.503-0.386v4.982H89.86V48.635
	h-1.376l1.376-5.285h5.753v2.339l1.294-2.339h2.559c1.376,0,2.679,0.522,3.909,1.567c1.155,0.955,1.908,2.313,2.256,4.074
	c0.02,0.146,0.047,0.389,0.083,0.729c0.037,0.34,0.054,0.692,0.054,1.061c0,0.971-0.153,1.871-0.467,2.698
	C104.99,54.304,104.55,55.03,103.98,55.653z M96.053,48.91h-0.441v1.273c0,0.687,0.124,1.225,0.371,1.623
	c0.248,0.397,0.593,0.656,1.032,0.775c0.439,0.122,0.807,0.18,1.101,0.18c0.623,0,1.103-0.266,1.432-0.798
	c0.148-0.219,0.229-0.417,0.246-0.591c0.021-0.175,0.028-0.371,0.028-0.591c0-0.698-0.28-1.184-0.84-1.46
	C98.424,49.044,97.448,48.91,96.053,48.91z"/>
<path fill="#000008" d="M130.323,57.829h-5.53v-7.816c0-0.865-0.607-1.295-1.818-1.295c-0.11,0-0.313,0-0.605,0l-0.413,0.111v9
	h-5.561v-7.79c0-0.202-0.07-0.404-0.22-0.606c-0.146-0.202-0.363-0.384-0.648-0.549c-0.282-0.165-0.601-0.247-0.949-0.247
	c-0.183,0-0.403,0.026-0.659,0.083l-0.331,0.109v9.002h-5.56v-9.196h-1.377l1.377-5.286h5.56v2.67l1.135-2.67h3.494
	c0.756,0,1.532,0.313,2.326,0.937c0.371,0.292,0.721,0.697,1.054,1.211c0.072,0.11,0.157,0.247,0.249,0.414
	c0.037,0.053,0.073,0.146,0.11,0.275l1.284-2.835h3.064c0.784,0,1.4,0.101,1.847,0.303c0.445,0.202,0.889,0.596,1.327,1.184
	c0.274,0.386,0.501,0.908,0.683,1.569c0.109,0.495,0.164,0.872,0.164,1.129v4.732h1.376L130.323,57.829z"/>
<path fill="#000008" d="M138.253,51.771c0.236,0.457,0.567,0.805,0.989,1.033c0.423,0.229,1.037,0.388,1.846,0.479
	c0.091,0.021,0.184,0.028,0.275,0.028c0.109,0,0.221,0,0.331,0c0.825,0,2.054-0.176,3.688-0.524l0.742-0.19l-1.323,5.064l-1.1,0.164
	c-0.882,0.111-1.718,0.165-2.505,0.165c-2.898,0-5.174-0.692-6.826-2.079c-1.652-1.385-2.478-3.178-2.478-5.381
	c0-0.291,0.009-0.527,0.026-0.7c0.02-0.174,0.055-0.455,0.11-0.84c0.165-0.897,0.429-1.679,0.798-2.34
	c1.139-2.093,2.946-3.266,5.424-3.523c0.146,0,0.325-0.008,0.535-0.026c0.211-0.019,0.419-0.026,0.621-0.026
	c0.898,0,1.679,0.118,2.339,0.357c1.522,0.515,2.733,1.368,3.634,2.56c0.99,1.34,1.485,2.965,1.485,4.872l0.028,0.907H138.253z
	 M138.94,47.177c-0.44,0.071-0.798,0.27-1.073,0.589c-0.275,0.323-0.414,0.703-0.414,1.144h3.605c0-0.495-0.169-0.912-0.507-1.253
	c-0.341-0.337-0.758-0.507-1.254-0.507C139.133,47.149,139.014,47.157,138.94,47.177z"/>
<path fill="#000008" d="M162.31,57.829h-5.559v-8.012c0-0.312-0.14-0.573-0.413-0.783c-0.276-0.212-0.651-0.316-1.129-0.316
	c-0.149,0-0.302,0.009-0.468,0.027c-0.165,0.019-0.34,0.055-0.524,0.109l-0.273,0.081v8.894h-5.562v-9.111h-1.374l1.374-5.369h5.562
	v2.505l1.154-2.505h3.164c0.644,0,1.146,0.057,1.515,0.165c0.367,0.109,0.743,0.313,1.129,0.606
	c0.383,0.294,0.688,0.651,0.907,1.073c0.329,0.588,0.497,1.313,0.497,2.175v4.899h1.375L162.31,57.829z"/>
<path fill="#000008" d="M171.614,48.772h-0.99v9.057h-5.753v-9.057h-1.983l1.377-5.422h0.606v-1.959l5.753-1.406v3.363h2.367
	L171.614,48.772z"/>
<rect x="2.043" y="59.866" fill="#000008" width="85.01" height="2.725"/>
<rect x="98.557" y="59.866" fill="#000008" width="74.902" height="2.725"/>
<rect x="1.949" y="30.128" fill="#000008" width="82.666" height="2.534"/>
<rect x="103.841" y="30.128" fill="#000008" width="29.556" height="2.534"/>
</svg>
