<?xml version="1.0" encoding="utf-8"?>
<!-- Generator: Adobe Illustrator 16.0.0, SVG Export Plug-In . SVG Version: 6.00 Build 0)  -->
<!DOCTYPE svg PUBLIC "-//W3C//DTD SVG 1.1//EN" "http://www.w3.org/Graphics/SVG/1.1/DTD/svg11.dtd">
<svg version="1.1" id="Layer_1" xmlns="http://www.w3.org/2000/svg" xmlns:xlink="http://www.w3.org/1999/xlink" x="0px" y="0px"
	 width="175.25px" height="61.5px" viewBox="0 0 175.25 61.5" enable-background="new 0 0 175.25 61.5" xml:space="preserve">
<g>
	<path d="M152.838,19.977c-0.119-0.016-0.238-0.002-0.357,0.039c-0.226,0.074-0.376,0.219-0.451,0.436
		c-0.016,0.045-0.028,0.109-0.039,0.192c-0.006,0.046-0.012,0.088-0.016,0.125c0.014,0.04,0.02,0.064,0.018,0.073
		c0.037,0.155,0.103,0.284,0.197,0.385s0.235,0.164,0.421,0.188c0.212,0.027,0.4-0.023,0.563-0.153
		c0.163-0.129,0.261-0.319,0.293-0.569c0.005-0.188-0.05-0.347-0.164-0.479C153.187,20.081,153.033,20.002,152.838,19.977z"/>
	<path d="M152.359,23.57c-0.297-0.039-0.532,0.082-0.71,0.36c-0.091,0.12-0.135,0.241-0.132,0.364
		c-0.023,0.185,0.03,0.359,0.165,0.522c0.134,0.163,0.308,0.258,0.521,0.286c0.323,0.042,0.571-0.086,0.741-0.384
		c0.048-0.079,0.079-0.173,0.094-0.285c0.033-0.259-0.056-0.482-0.267-0.669C152.653,23.656,152.517,23.59,152.359,23.57z"/>
	<path d="M157.27,0.8c-9.459,0-17.127,7.668-17.127,17.127c0,9.458,7.668,17.126,17.127,17.126c9.458,0,17.127-7.668,17.127-17.126
		C174.396,8.468,166.728,0.8,157.27,0.8z M155.873,20.85c-0.073,0.564-0.305,1.08-0.694,1.547l-0.13,0.125
		c0.639,0.665,0.896,1.472,0.773,2.423c-0.044,0.342-0.145,0.681-0.301,1.017c-0.227,0.44-0.535,0.817-0.924,1.133
		c-0.348,0.292-0.714,0.503-1.098,0.632c-0.384,0.128-0.834,0.187-1.35,0.177c-0.104,0.005-0.207,0.001-0.309-0.012
		s-0.181-0.023-0.236-0.031c-0.222-0.028-0.418-0.073-0.589-0.132c-0.828-0.294-1.425-0.729-1.793-1.302
		c-0.251-0.389-0.423-0.716-0.516-0.982c-0.093-0.265-0.142-0.504-0.147-0.715c-0.005-0.212,0.006-0.42,0.031-0.623
		c0.1-0.766,0.502-1.409,1.21-1.927l0.278-0.189c-0.199-0.28-0.338-0.573-0.416-0.88c-0.077-0.306-0.096-0.621-0.054-0.945
		c0.02-0.148,0.053-0.298,0.101-0.453c0.146-0.47,0.33-0.834,0.551-1.093c0.222-0.258,0.55-0.496,0.982-0.713
		c0.181-0.089,0.393-0.165,0.636-0.228c0.243-0.063,0.483-0.097,0.72-0.104c0.235-0.007,0.445,0.001,0.632,0.025
		c0.221,0.029,0.447,0.086,0.676,0.172c0.229,0.086,0.442,0.194,0.643,0.323c0.502,0.338,0.865,0.75,1.089,1.235
		C155.863,19.816,155.94,20.323,155.873,20.85z M154.854,16.966c0,0-0.682-0.397-1.449-0.48c-0.769-0.082-1.659,0.077-1.659,0.077
		l0.9-6.954l-0.694-0.09l1.102-2.948l3.095,0.4L154.854,16.966z M161.352,29.082l-3.109-0.403l0.9-6.953l-0.693-0.09l1.102-2.948
		l3.095,0.401L161.352,29.082z M166.938,11.688c-0.033,0.259-0.108,0.546-0.224,0.86c-0.075,0.207-0.148,0.381-0.224,0.522
		c-0.074,0.141-0.169,0.284-0.281,0.429l-3.166,4.289l-3.623-0.469l2.034-2.629l-0.376-0.147l-0.159-0.077l-0.186-0.094
		c-0.678-0.361-1.175-0.839-1.493-1.436c-0.318-0.596-0.428-1.273-0.33-2.032c0.013-0.093,0.025-0.178,0.04-0.256
		c0.016-0.078,0.059-0.254,0.132-0.526c0.322-1.106,1.078-1.893,2.268-2.359c0.286-0.104,0.602-0.179,0.946-0.224
		c0.345-0.044,0.688-0.045,1.03,0c0.156,0.021,0.316,0.046,0.477,0.076c0.161,0.03,0.313,0.069,0.458,0.116
		c0.334,0.109,0.637,0.245,0.907,0.407c0.27,0.162,0.515,0.347,0.732,0.554c0.652,0.63,1.005,1.391,1.06,2.282
		c0.008,0.161,0.011,0.279,0.011,0.354C166.97,11.4,166.959,11.521,166.938,11.688z"/>
	<path d="M163.038,10.519c-0.083-0.011-0.168-0.007-0.255,0.01c-0.223,0.046-0.394,0.151-0.514,0.314
		c-0.12,0.164-0.188,0.314-0.206,0.453c-0.019,0.139,0.005,0.283,0.071,0.433c0.13,0.299,0.353,0.469,0.667,0.509
		c0.194,0.025,0.364-0.014,0.509-0.117l0.223-0.197c0.123-0.144,0.196-0.313,0.222-0.508c0.028-0.222-0.027-0.42-0.17-0.594
		C163.442,10.649,163.261,10.548,163.038,10.519z"/>
</g>
<g>
	<path d="M15.271,21.502c-0.833,0.718-1.599,1.227-2.297,1.527c-0.698,0.301-1.464,0.451-2.297,0.451H8.67v4.565H2.156V13.332H0.703
		l1.454-6.223h7.735c0.291,0,0.523,0.01,0.698,0.029c0.174,0.02,0.426,0.058,0.756,0.116c3.547,0.64,5.68,2.714,6.397,6.223
		c0.077,0.311,0.126,0.611,0.146,0.901c0.019,0.291,0.029,0.63,0.029,1.018c0,1.337-0.218,2.5-0.654,3.489
		C16.826,19.875,16.162,20.747,15.271,21.502z M10.124,13.506H8.67v3.838h1.25c0.31,0,0.615-0.141,0.916-0.422
		c0.3-0.281,0.479-0.591,0.538-0.931c0.058-0.339,0.087-0.567,0.087-0.683c0-0.562-0.131-1.003-0.393-1.323
		S10.492,13.506,10.124,13.506z"/>
	<path d="M34.288,28.045H28.21V19.7c0-0.814-0.601-1.221-1.803-1.221c-0.232,0-0.417,0-0.553,0l-0.407,0.058v9.509H19.37V12.161
		h-1.454l1.599-5.866h5.932v8.781l1.221-2.326h3.577c0.717,0,1.386,0.188,2.006,0.567c0.62,0.378,1.076,0.814,1.367,1.309
		c0.291,0.494,0.504,1.197,0.64,2.108l0.029,0.494v4.943h1.454L34.288,28.045z"/>
	<path d="M42.662,21.648c0.252,0.485,0.601,0.849,1.047,1.091s1.095,0.412,1.948,0.509c0.097,0.02,0.194,0.029,0.291,0.029
		c0.116,0,0.232,0,0.349,0c0.873,0,2.171-0.184,3.897-0.552l0.785-0.204l-1.396,5.35l-1.164,0.175
		c-0.93,0.116-1.813,0.174-2.646,0.174c-3.063,0-5.466-0.731-7.211-2.195s-2.617-3.359-2.617-5.685c0-0.31,0.01-0.557,0.029-0.741
		c0.019-0.184,0.058-0.48,0.116-0.887c0.174-0.95,0.455-1.774,0.843-2.472c1.202-2.209,3.111-3.45,5.728-3.722
		c0.155,0,0.344-0.009,0.567-0.029c0.222-0.02,0.44-0.029,0.654-0.029c0.95,0,1.774,0.126,2.472,0.378
		c1.608,0.543,2.888,1.444,3.838,2.704c1.046,1.416,1.57,3.131,1.57,5.147l0.029,0.959H42.662z M43.389,16.792
		c-0.465,0.078-0.843,0.286-1.134,0.625c-0.291,0.34-0.436,0.742-0.436,1.207h3.809c0-0.523-0.18-0.964-0.538-1.323
		c-0.359-0.358-0.8-0.538-1.323-0.538C43.592,16.763,43.466,16.773,43.389,16.792z"/>
	<path d="M68.076,28.045h-5.874v-8.462c0-0.33-0.146-0.605-0.436-0.829c-0.291-0.223-0.688-0.334-1.192-0.334
		c-0.155,0-0.32,0.01-0.494,0.029c-0.175,0.02-0.359,0.058-0.553,0.116l-0.291,0.087v9.393h-5.874V18.42h-1.454l1.454-5.67h5.874
		v2.646l1.221-2.646h3.344c0.678,0,1.211,0.058,1.599,0.174s0.785,0.33,1.192,0.64s0.727,0.688,0.959,1.134
		c0.349,0.621,0.523,1.386,0.523,2.297v5.176h1.454L68.076,28.045z"/>
	<path d="M76.45,21.648c0.251,0.485,0.601,0.849,1.046,1.091s1.095,0.412,1.948,0.509c0.097,0.02,0.194,0.029,0.291,0.029
		c0.116,0,0.233,0,0.349,0c0.873,0,2.171-0.184,3.897-0.552l0.785-0.204l-1.396,5.35l-1.163,0.175
		c-0.931,0.116-1.813,0.174-2.646,0.174c-3.063,0-5.467-0.731-7.211-2.195s-2.617-3.359-2.617-5.685c0-0.31,0.01-0.557,0.029-0.741
		c0.019-0.184,0.058-0.48,0.116-0.887c0.174-0.95,0.455-1.774,0.843-2.472c1.202-2.209,3.111-3.45,5.729-3.722
		c0.155,0,0.344-0.009,0.567-0.029c0.223-0.02,0.44-0.029,0.654-0.029c0.95,0,1.773,0.126,2.472,0.378
		c1.608,0.543,2.888,1.444,3.838,2.704c1.046,1.416,1.57,3.131,1.57,5.147l0.029,0.959H76.45z M77.177,16.792
		c-0.465,0.078-0.843,0.286-1.134,0.625c-0.291,0.34-0.436,0.742-0.436,1.207h3.809c0-0.523-0.18-0.964-0.538-1.323
		c-0.359-0.358-0.799-0.538-1.323-0.538C77.38,16.763,77.254,16.773,77.177,16.792z"/>
	<path d="M97.719,33.134c-0.392,0.116-0.952,0.193-1.682,0.232c-0.729,0.039-1.607,0.059-2.635,0.059
		c-1.183,0-2.196-0.117-3.039-0.349c-0.844-0.233-1.77-0.63-2.777-1.192l1.134-4.652c1.085,0.492,2.04,0.803,2.864,0.936
		c0.824,0.132,1.507,0.198,2.05,0.198c1.783,0,2.675-0.644,2.675-1.932v-1.47l-1.156,2.239h-0.752c-1.522,0-2.621-0.086-3.295-0.261
		c-1.484-0.348-2.641-1.074-3.47-2.177c-0.887-1.161-1.33-2.612-1.33-4.354c0-0.154,0-0.319,0-0.493
		c0.039-0.232,0.058-0.406,0.058-0.522c0.116-1.258,0.542-2.448,1.279-3.57c1.047-1.547,2.443-2.573,4.188-3.076
		c0.794-0.212,1.483-0.319,2.064-0.319c0.484,0,0.935,0.068,1.352,0.204c0.417,0.136,0.8,0.33,1.148,0.582l0.407-0.465h5.583v14.809
		c0,1.587-0.343,2.787-1.028,3.601C100.674,31.973,99.461,32.631,97.719,33.134z M96.31,20.254c0-0.59-0.146-1.082-0.436-1.476
		c-0.291-0.393-0.66-0.59-1.105-0.59c-0.737,0-1.318,0.174-1.745,0.523c-0.427,0.349-0.64,0.833-0.64,1.454
		c0,0.64,0.267,1.115,0.8,1.425c0.533,0.31,1.4,0.465,2.603,0.465h0.523V20.254z"/>
	<path d="M110.558,21.648c0.252,0.485,0.601,0.849,1.047,1.091s1.096,0.412,1.949,0.509c0.097,0.02,0.193,0.029,0.291,0.029
		c0.117,0,0.232,0,0.349,0c0.873,0,2.171-0.184,3.896-0.552l0.785-0.204l-1.396,5.35l-1.163,0.175
		c-0.93,0.116-1.813,0.174-2.646,0.174c-3.064,0-5.467-0.731-7.211-2.195s-2.617-3.359-2.617-5.685c0-0.31,0.009-0.557,0.029-0.741
		c0.019-0.184,0.058-0.48,0.116-0.887c0.174-0.95,0.456-1.774,0.843-2.472c1.202-2.209,3.112-3.45,5.729-3.722
		c0.155,0,0.344-0.009,0.567-0.029c0.222-0.02,0.441-0.029,0.654-0.029c0.949,0,1.774,0.126,2.472,0.378
		c1.609,0.543,2.888,1.444,3.838,2.704c1.047,1.416,1.57,3.131,1.57,5.147l0.029,0.959H110.558z M111.285,16.792
		c-0.465,0.078-0.843,0.286-1.134,0.625c-0.291,0.34-0.436,0.742-0.436,1.207h3.809c0-0.523-0.179-0.964-0.539-1.323
		c-0.358-0.358-0.799-0.538-1.323-0.538C111.489,16.763,111.362,16.773,111.285,16.792z"/>
	<path d="M130.127,19.014l-0.581-0.087c-0.369-0.059-0.795,0.043-1.279,0.305c-0.485,0.263-0.834,0.859-1.047,1.792l-0.058,0.408
		v6.613h-5.903v-9.538h-1.454l1.454-5.757h5.903v1.483c0.639-0.775,1.628-1.328,2.965-1.658c0.484-0.097,0.921-0.146,1.31-0.146
		c0.212,0,0.367,0,0.464,0L130.127,19.014z"/>
	<path d="M16.59,50.336c-0.598,1.57-1.527,2.875-2.789,3.915c-0.887,0.75-1.833,1.292-2.84,1.625
		c-1.006,0.333-2.2,0.499-3.581,0.499H1.982V43.455H0.703l1.279-5.5h6.549c2.217,0,4.179,0.776,5.884,2.328
		c1.006,0.938,1.74,2.013,2.2,3.223c0.205,0.546,0.345,1.13,0.422,1.752c0.077,0.623,0.115,1.403,0.115,2.341
		c0,0.427-0.047,0.861-0.141,1.305C16.918,49.348,16.777,49.825,16.59,50.336z M9.503,43.864c-0.511-0.256-1.109-0.384-1.791-0.384
		v7.086h0.511c0.921-0.085,1.667-0.439,2.239-1.062c0.571-0.623,0.857-1.42,0.857-2.392c0-0.256-0.025-0.528-0.077-0.818
		C11.003,45.169,10.424,44.359,9.503,43.864z"/>
	<path d="M23.804,50.746c0.222,0.426,0.529,0.747,0.921,0.959c0.393,0.213,0.963,0.362,1.714,0.447
		c0.085,0.018,0.171,0.026,0.256,0.026c0.102,0,0.205,0,0.307,0c0.768,0,1.91-0.162,3.428-0.486l0.691-0.179l-1.228,4.707
		l-1.023,0.154c-0.818,0.102-1.595,0.153-2.328,0.153c-2.695,0-4.81-0.644-6.344-1.932c-1.535-1.288-2.303-2.955-2.303-5.001
		c0-0.272,0.008-0.49,0.025-0.652s0.051-0.422,0.103-0.78c0.153-0.835,0.401-1.561,0.742-2.175c1.058-1.944,2.737-3.035,5.04-3.274
		c0.136,0,0.303-0.008,0.499-0.025c0.196-0.017,0.388-0.026,0.576-0.026c0.835,0,1.56,0.111,2.174,0.333
		c1.416,0.478,2.541,1.271,3.377,2.379c0.921,1.245,1.382,2.755,1.382,4.528l0.025,0.844H23.804z M24.443,46.474
		c-0.409,0.068-0.742,0.252-0.998,0.55c-0.256,0.299-0.384,0.653-0.384,1.062h3.351c0-0.46-0.158-0.848-0.473-1.164
		c-0.316-0.315-0.704-0.473-1.164-0.473C24.623,46.448,24.511,46.457,24.443,46.474z"/>
	<path d="M41.661,56.375h-6.191l-3.914-13.457h5.628l1.637,7.317l1.433-7.317h5.5L41.661,56.375z"/>
	<path d="M51.458,50.746c0.222,0.426,0.528,0.747,0.921,0.959c0.392,0.213,0.963,0.362,1.714,0.447
		c0.085,0.018,0.17,0.026,0.256,0.026c0.102,0,0.205,0,0.307,0c0.768,0,1.91-0.162,3.428-0.486l0.691-0.179l-1.228,4.707
		l-1.023,0.154c-0.819,0.102-1.595,0.153-2.328,0.153c-2.695,0-4.81-0.644-6.345-1.932c-1.535-1.288-2.302-2.955-2.302-5.001
		c0-0.272,0.008-0.49,0.026-0.652c0.017-0.162,0.051-0.422,0.102-0.78c0.154-0.835,0.4-1.561,0.742-2.175
		c1.057-1.944,2.737-3.035,5.04-3.274c0.136,0,0.303-0.008,0.499-0.025c0.196-0.017,0.388-0.026,0.575-0.026
		c0.836,0,1.561,0.111,2.175,0.333c1.416,0.478,2.542,1.271,3.377,2.379c0.921,1.245,1.381,2.755,1.381,4.528l0.026,0.844H51.458z
		 M52.098,46.474c-0.41,0.068-0.742,0.252-0.998,0.55c-0.256,0.299-0.384,0.653-0.384,1.062h3.351c0-0.46-0.158-0.848-0.473-1.164
		c-0.316-0.315-0.704-0.473-1.164-0.473C52.277,46.448,52.166,46.457,52.098,46.474z"/>
	<path d="M66.22,56.375h-5.347V42.399h-1.279l1.663-5.161h4.963v13.975h1.305L66.22,56.375z"/>
	<path d="M81.109,53.17c-1.092,1.777-2.652,2.896-4.682,3.357c-0.529,0.12-1.092,0.18-1.688,0.18c-1.672,0-3.164-0.529-4.477-1.586
		c-0.683-0.563-1.211-1.155-1.586-1.778s-0.665-1.403-0.87-2.341l-0.103-0.716c0-0.119-0.004-0.251-0.013-0.396
		s-0.013-0.243-0.013-0.294c0-1.62,0.588-3.121,1.765-4.502c1.109-1.262,2.55-2.021,4.324-2.277
		c0.358-0.051,0.733-0.077,1.125-0.077c0.222,0,0.392,0,0.512,0c0.835,0,1.586,0.146,2.251,0.436s1.356,0.734,2.072,1.333
		c0.375,0.308,0.673,0.624,0.896,0.948c0.972,1.265,1.458,2.658,1.458,4.178C82.081,50.915,81.757,52.093,81.109,53.17z
		 M75.404,47.804c-0.205-0.051-0.409-0.077-0.614-0.077c-0.086,0-0.214,0.018-0.384,0.051c-0.478,0.103-0.861,0.312-1.151,0.627
		s-0.435,0.704-0.435,1.164c-0.085,0.972,0.307,1.637,1.177,1.996c0.221,0.085,0.4,0.145,0.537,0.179
		c0.085,0.017,0.205,0.026,0.358,0.026c0.461,0,0.861-0.136,1.203-0.41c0.341-0.272,0.563-0.63,0.665-1.074
		c0.051-0.205,0.077-0.409,0.077-0.614C76.836,48.734,76.359,48.111,75.404,47.804z"/>
	<path d="M96.688,54.353c-0.546,0.598-1.138,1.062-1.778,1.395s-1.403,0.559-2.29,0.678c-0.239,0.034-0.46,0.06-0.665,0.077
		c-0.204,0.017-0.443,0.026-0.716,0.026c-0.751,0-1.526-0.12-2.328-0.358V60.8h-5.347V47.83h-1.279l1.279-4.912h5.347v2.175
		l1.202-2.175h2.379c1.279,0,2.49,0.486,3.633,1.458c1.075,0.887,1.774,2.149,2.098,3.786c0.017,0.137,0.042,0.362,0.076,0.678
		c0.034,0.316,0.051,0.644,0.051,0.985c0,0.904-0.145,1.74-0.435,2.507C97.627,53.1,97.217,53.774,96.688,54.353z M89.321,48.085
		h-0.41v1.185c0,0.636,0.115,1.138,0.345,1.507c0.23,0.37,0.55,0.61,0.959,0.722s0.75,0.167,1.023,0.167
		c0.579,0,1.023-0.247,1.331-0.742c0.136-0.204,0.213-0.388,0.23-0.55c0.017-0.162,0.026-0.345,0.026-0.55
		c0-0.648-0.26-1.1-0.781-1.356S90.617,48.085,89.321,48.085z"/>
	<path d="M104.978,50.746c0.221,0.426,0.528,0.747,0.921,0.959c0.392,0.213,0.963,0.362,1.713,0.447
		c0.085,0.018,0.171,0.026,0.256,0.026c0.102,0,0.205,0,0.307,0c0.767,0,1.91-0.162,3.428-0.486l0.69-0.179l-1.228,4.707
		l-1.022,0.154c-0.819,0.102-1.595,0.153-2.329,0.153c-2.695,0-4.81-0.644-6.345-1.932c-1.535-1.288-2.302-2.955-2.302-5.001
		c0-0.272,0.008-0.49,0.026-0.652c0.016-0.162,0.05-0.422,0.102-0.78c0.154-0.835,0.4-1.561,0.742-2.175
		c1.058-1.944,2.737-3.035,5.04-3.274c0.135,0,0.302-0.008,0.499-0.025c0.196-0.017,0.388-0.026,0.575-0.026
		c0.836,0,1.561,0.111,2.174,0.333c1.416,0.478,2.542,1.271,3.378,2.379c0.921,1.245,1.381,2.755,1.381,4.528l0.025,0.844H104.978z
		 M105.618,46.474c-0.41,0.068-0.743,0.252-0.998,0.55c-0.256,0.299-0.384,0.653-0.384,1.062h3.352c0-0.46-0.158-0.848-0.473-1.164
		c-0.316-0.315-0.704-0.473-1.164-0.473C105.796,46.448,105.685,46.457,105.618,46.474z"/>
	<path d="M135.114,56.375h-5.142v-7.266c0-0.802-0.563-1.203-1.689-1.203c-0.103,0-0.29,0-0.563,0l-0.384,0.104v8.365h-5.168v-7.24
		c0-0.188-0.067-0.375-0.204-0.563c-0.137-0.188-0.338-0.358-0.602-0.511c-0.265-0.154-0.559-0.23-0.883-0.23
		c-0.17,0-0.375,0.025-0.613,0.077l-0.308,0.103v8.366h-5.168V47.83h-1.279l1.279-4.912h5.168v2.481l1.056-2.481h3.245
		c0.704,0,1.425,0.291,2.163,0.87c0.344,0.273,0.669,0.648,0.979,1.125c0.068,0.103,0.146,0.23,0.231,0.384
		c0.035,0.051,0.069,0.137,0.104,0.256l1.194-2.635h2.847c0.729,0,1.301,0.094,1.716,0.282c0.414,0.188,0.825,0.554,1.232,1.1
		c0.255,0.358,0.467,0.844,0.636,1.458c0.102,0.46,0.152,0.81,0.152,1.049v4.4h1.279L135.114,56.375z"/>
	<path d="M142.482,50.746c0.221,0.426,0.528,0.747,0.921,0.959c0.393,0.213,0.963,0.362,1.714,0.447
		c0.085,0.018,0.17,0.026,0.256,0.026c0.102,0,0.205,0,0.308,0c0.767,0,1.909-0.162,3.428-0.486l0.69-0.179l-1.229,4.707
		l-1.022,0.154c-0.819,0.102-1.596,0.153-2.328,0.153c-2.695,0-4.81-0.644-6.345-1.932c-1.535-1.288-2.302-2.955-2.302-5.001
		c0-0.272,0.008-0.49,0.025-0.652c0.017-0.162,0.05-0.422,0.102-0.78c0.154-0.835,0.4-1.561,0.742-2.175
		c1.058-1.944,2.737-3.035,5.04-3.274c0.136,0,0.303-0.008,0.498-0.025c0.196-0.017,0.389-0.026,0.576-0.026
		c0.836,0,1.561,0.111,2.175,0.333c1.415,0.478,2.541,1.271,3.377,2.379c0.921,1.245,1.381,2.755,1.381,4.528l0.025,0.844H142.482z
		 M143.122,46.474c-0.409,0.068-0.742,0.252-0.998,0.55c-0.256,0.299-0.384,0.653-0.384,1.062h3.352c0-0.46-0.158-0.848-0.473-1.164
		c-0.316-0.315-0.704-0.473-1.165-0.473C143.301,46.448,143.19,46.457,143.122,46.474z"/>
	<path d="M164.842,56.375h-5.167V48.93c0-0.29-0.129-0.533-0.385-0.729s-0.605-0.294-1.048-0.294c-0.138,0-0.282,0.009-0.436,0.026
		s-0.316,0.051-0.486,0.102l-0.256,0.077v8.264h-5.167v-8.468h-1.279l1.279-4.989h5.167v2.328l1.075-2.328h2.941
		c0.598,0,1.065,0.051,1.407,0.154c0.341,0.102,0.69,0.29,1.049,0.563c0.357,0.273,0.64,0.605,0.844,0.998
		c0.308,0.546,0.461,1.219,0.461,2.021v4.554h1.279L164.842,56.375z"/>
	<path d="M173.489,47.958h-0.921v8.417h-5.348v-8.417h-1.842l1.279-5.04h0.563v-1.82l5.348-1.308v3.127h2.2L173.489,47.958z"/>
</g>
<g>
</g>
<rect x="1.949" y="58.267" width="79.008" height="2.534"/>
<rect x="1.949" y="30.128" width="82.666" height="2.534"/>
<rect x="103.841" y="30.128" width="29.556" height="2.534"/>
<rect x="92.397" y="58.267" width="82" height="2.534"/>
</svg>
