<?xml version="1.0" encoding="utf-8"?>
<!-- Generator: Adobe Illustrator 16.0.0, SVG Export Plug-In . SVG Version: 6.00 Build 0)  -->
<!DOCTYPE svg PUBLIC "-//W3C//DTD SVG 1.1//EN" "http://www.w3.org/Graphics/SVG/1.1/DTD/svg11.dtd">
<svg version="1.1" id="Layer_1" xmlns="http://www.w3.org/2000/svg" xmlns:xlink="http://www.w3.org/1999/xlink" x="0px" y="0px"
	 width="175.25px" height="64.125px" viewBox="0 0 175.25 64.125" enable-background="new 0 0 175.25 64.125" xml:space="preserve">
<g>
	<path fill="#FFFFFF" d="M152.838,19.977c-0.119-0.016-0.238-0.002-0.357,0.039c-0.226,0.074-0.376,0.219-0.451,0.436
		c-0.016,0.045-0.028,0.109-0.039,0.192c-0.006,0.046-0.012,0.088-0.016,0.125c0.014,0.04,0.02,0.064,0.018,0.073
		c0.037,0.155,0.103,0.284,0.197,0.385s0.235,0.164,0.421,0.188c0.212,0.027,0.4-0.023,0.563-0.153
		c0.163-0.129,0.261-0.319,0.293-0.569c0.005-0.188-0.05-0.347-0.164-0.479C153.187,20.081,153.033,20.002,152.838,19.977z"/>
	<path fill="#FFFFFF" d="M152.359,23.57c-0.297-0.039-0.532,0.082-0.71,0.36c-0.091,0.12-0.135,0.241-0.132,0.364
		c-0.023,0.185,0.03,0.359,0.165,0.522c0.134,0.163,0.308,0.258,0.521,0.286c0.323,0.042,0.571-0.086,0.741-0.384
		c0.048-0.079,0.079-0.173,0.094-0.285c0.033-0.259-0.056-0.482-0.267-0.669C152.653,23.656,152.517,23.59,152.359,23.57z"/>
	<path fill="#FFFFFF" d="M157.27,0.8c-9.459,0-17.127,7.668-17.127,17.127c0,9.458,7.668,17.126,17.127,17.126
		c9.458,0,17.127-7.668,17.127-17.126C174.396,8.468,166.728,0.8,157.27,0.8z M155.873,20.85c-0.073,0.564-0.305,1.08-0.694,1.547
		l-0.13,0.125c0.639,0.665,0.896,1.472,0.773,2.423c-0.044,0.342-0.145,0.681-0.301,1.017c-0.227,0.44-0.535,0.817-0.924,1.133
		c-0.348,0.292-0.714,0.503-1.098,0.632c-0.384,0.128-0.834,0.187-1.35,0.177c-0.104,0.005-0.207,0.001-0.309-0.012
		s-0.181-0.023-0.236-0.031c-0.222-0.028-0.418-0.073-0.589-0.132c-0.828-0.294-1.425-0.729-1.793-1.302
		c-0.251-0.389-0.423-0.716-0.516-0.982c-0.093-0.265-0.142-0.504-0.147-0.715c-0.005-0.212,0.006-0.42,0.031-0.623
		c0.1-0.766,0.502-1.409,1.21-1.927l0.278-0.189c-0.199-0.28-0.338-0.573-0.416-0.88c-0.077-0.306-0.096-0.621-0.054-0.945
		c0.02-0.148,0.053-0.298,0.101-0.453c0.146-0.47,0.33-0.834,0.551-1.093c0.222-0.258,0.55-0.496,0.982-0.713
		c0.181-0.089,0.393-0.165,0.636-0.228c0.243-0.063,0.483-0.097,0.72-0.104c0.235-0.007,0.445,0.001,0.632,0.025
		c0.221,0.029,0.447,0.086,0.676,0.172c0.229,0.086,0.442,0.194,0.643,0.323c0.502,0.338,0.865,0.75,1.089,1.235
		C155.863,19.816,155.94,20.323,155.873,20.85z M154.854,16.966c0,0-0.682-0.397-1.449-0.48c-0.769-0.082-1.659,0.077-1.659,0.077
		l0.9-6.954l-0.694-0.09l1.102-2.948l3.095,0.4L154.854,16.966z M161.352,29.082l-3.109-0.403l0.9-6.953l-0.693-0.09l1.102-2.948
		l3.095,0.401L161.352,29.082z M166.938,11.688c-0.033,0.259-0.108,0.546-0.224,0.86c-0.075,0.207-0.148,0.381-0.224,0.522
		c-0.074,0.141-0.169,0.284-0.281,0.429l-3.166,4.289l-3.623-0.469l2.034-2.629l-0.376-0.147l-0.159-0.077l-0.186-0.094
		c-0.678-0.361-1.175-0.839-1.493-1.436c-0.318-0.596-0.428-1.273-0.33-2.032c0.013-0.093,0.025-0.178,0.04-0.256
		c0.016-0.078,0.059-0.254,0.132-0.526c0.322-1.106,1.078-1.893,2.268-2.359c0.286-0.104,0.602-0.179,0.946-0.224
		c0.345-0.044,0.688-0.045,1.03,0c0.156,0.021,0.316,0.046,0.477,0.076c0.161,0.03,0.313,0.069,0.458,0.116
		c0.334,0.109,0.637,0.245,0.907,0.407c0.27,0.162,0.515,0.347,0.732,0.554c0.652,0.63,1.005,1.391,1.06,2.282
		c0.008,0.161,0.011,0.279,0.011,0.354C166.97,11.4,166.959,11.521,166.938,11.688z"/>
	<path fill="#FFFFFF" d="M163.038,10.519c-0.083-0.011-0.168-0.007-0.255,0.01c-0.223,0.046-0.394,0.151-0.514,0.314
		c-0.12,0.164-0.188,0.314-0.206,0.453c-0.019,0.139,0.005,0.283,0.071,0.433c0.13,0.299,0.353,0.469,0.667,0.509
		c0.194,0.025,0.364-0.014,0.509-0.117l0.223-0.197c0.123-0.144,0.196-0.313,0.222-0.508c0.028-0.222-0.027-0.42-0.17-0.594
		C163.442,10.649,163.261,10.548,163.038,10.519z"/>
</g>
<path fill="#FFFFFF" d="M15.271,21.502c-0.833,0.718-1.599,1.227-2.297,1.527c-0.698,0.301-1.464,0.451-2.297,0.451H8.67v4.565
	H2.156V13.332H0.703l1.454-6.223h7.735c0.291,0,0.523,0.01,0.698,0.029c0.174,0.02,0.426,0.058,0.756,0.116
	c3.547,0.64,5.68,2.714,6.397,6.223c0.077,0.311,0.126,0.611,0.146,0.901c0.019,0.291,0.029,0.63,0.029,1.018
	c0,1.337-0.218,2.5-0.654,3.489C16.826,19.875,16.162,20.747,15.271,21.502z M10.124,13.506H8.67v3.838h1.25
	c0.31,0,0.615-0.141,0.916-0.422c0.3-0.281,0.479-0.591,0.538-0.931c0.058-0.339,0.087-0.567,0.087-0.683
	c0-0.562-0.131-1.003-0.393-1.323S10.492,13.506,10.124,13.506z"/>
<path fill="#FFFFFF" d="M34.288,28.045H28.21V19.7c0-0.814-0.601-1.221-1.803-1.221c-0.232,0-0.417,0-0.553,0l-0.407,0.058v9.509
	H19.37V12.161h-1.454l1.599-5.866h5.932v8.781l1.221-2.326h3.577c0.717,0,1.386,0.188,2.006,0.567
	c0.62,0.378,1.076,0.814,1.367,1.309c0.291,0.494,0.504,1.197,0.64,2.108l0.029,0.494v4.943h1.454L34.288,28.045z"/>
<path fill="#FFFFFF" d="M42.662,21.648c0.252,0.485,0.601,0.849,1.047,1.091s1.095,0.412,1.948,0.509
	c0.097,0.02,0.194,0.029,0.291,0.029c0.116,0,0.232,0,0.349,0c0.873,0,2.171-0.184,3.897-0.552l0.785-0.204l-1.396,5.35
	l-1.164,0.175c-0.93,0.116-1.813,0.174-2.646,0.174c-3.063,0-5.466-0.731-7.211-2.195s-2.617-3.359-2.617-5.685
	c0-0.31,0.01-0.557,0.029-0.741c0.019-0.184,0.058-0.48,0.116-0.887c0.174-0.95,0.455-1.774,0.843-2.472
	c1.202-2.209,3.111-3.45,5.728-3.722c0.155,0,0.344-0.009,0.567-0.029c0.222-0.02,0.44-0.029,0.654-0.029
	c0.95,0,1.774,0.126,2.472,0.378c1.608,0.543,2.888,1.444,3.838,2.704c1.046,1.416,1.57,3.131,1.57,5.147l0.029,0.959H42.662z
	 M43.389,16.792c-0.465,0.078-0.843,0.286-1.134,0.625c-0.291,0.34-0.436,0.742-0.436,1.207h3.809c0-0.523-0.18-0.964-0.538-1.323
	c-0.359-0.358-0.8-0.538-1.323-0.538C43.592,16.763,43.466,16.773,43.389,16.792z"/>
<path fill="#FFFFFF" d="M68.076,28.045h-5.874v-8.462c0-0.33-0.146-0.605-0.436-0.829c-0.291-0.223-0.688-0.334-1.192-0.334
	c-0.155,0-0.32,0.01-0.494,0.029c-0.175,0.02-0.359,0.058-0.553,0.116l-0.291,0.087v9.393h-5.874V18.42h-1.454l1.454-5.67h5.874
	v2.646l1.221-2.646h3.344c0.678,0,1.211,0.058,1.599,0.174s0.785,0.33,1.192,0.64s0.727,0.688,0.959,1.134
	c0.349,0.621,0.523,1.386,0.523,2.297v5.176h1.454L68.076,28.045z"/>
<path fill="#FFFFFF" d="M76.45,21.648c0.251,0.485,0.601,0.849,1.046,1.091s1.095,0.412,1.948,0.509
	c0.097,0.02,0.194,0.029,0.291,0.029c0.116,0,0.233,0,0.349,0c0.873,0,2.171-0.184,3.897-0.552l0.785-0.204l-1.396,5.35
	l-1.163,0.175c-0.931,0.116-1.813,0.174-2.646,0.174c-3.063,0-5.467-0.731-7.211-2.195s-2.617-3.359-2.617-5.685
	c0-0.31,0.01-0.557,0.029-0.741c0.019-0.184,0.058-0.48,0.116-0.887c0.174-0.95,0.455-1.774,0.843-2.472
	c1.202-2.209,3.111-3.45,5.729-3.722c0.155,0,0.344-0.009,0.567-0.029c0.223-0.02,0.44-0.029,0.654-0.029
	c0.95,0,1.773,0.126,2.472,0.378c1.608,0.543,2.888,1.444,3.838,2.704c1.046,1.416,1.57,3.131,1.57,5.147l0.029,0.959H76.45z
	 M77.177,16.792c-0.465,0.078-0.843,0.286-1.134,0.625c-0.291,0.34-0.436,0.742-0.436,1.207h3.809c0-0.523-0.18-0.964-0.538-1.323
	c-0.359-0.358-0.799-0.538-1.323-0.538C77.38,16.763,77.254,16.773,77.177,16.792z"/>
<path fill="#FFFFFF" d="M97.719,33.134c-0.392,0.116-0.952,0.193-1.682,0.232c-0.729,0.039-1.607,0.059-2.635,0.059
	c-1.183,0-2.196-0.117-3.039-0.349c-0.844-0.233-1.77-0.63-2.777-1.192l1.134-4.652c1.085,0.492,2.04,0.803,2.864,0.936
	c0.824,0.132,1.507,0.198,2.05,0.198c1.783,0,2.675-0.644,2.675-1.932v-1.47l-1.156,2.239h-0.752c-1.522,0-2.621-0.086-3.295-0.261
	c-1.484-0.348-2.641-1.074-3.47-2.177c-0.887-1.161-1.33-2.612-1.33-4.354c0-0.154,0-0.319,0-0.493
	c0.039-0.232,0.058-0.406,0.058-0.522c0.116-1.258,0.542-2.448,1.279-3.57c1.047-1.547,2.443-2.573,4.188-3.076
	c0.794-0.212,1.483-0.319,2.064-0.319c0.484,0,0.935,0.068,1.352,0.204c0.417,0.136,0.8,0.33,1.148,0.582l0.407-0.465h5.583v14.809
	c0,1.587-0.343,2.787-1.028,3.601C100.674,31.973,99.461,32.631,97.719,33.134z M96.31,20.254c0-0.59-0.146-1.082-0.436-1.476
	c-0.291-0.393-0.66-0.59-1.105-0.59c-0.737,0-1.318,0.174-1.745,0.523c-0.427,0.349-0.64,0.833-0.64,1.454
	c0,0.64,0.267,1.115,0.8,1.425c0.533,0.31,1.4,0.465,2.603,0.465h0.523V20.254z"/>
<path fill="#FFFFFF" d="M110.558,21.648c0.252,0.485,0.601,0.849,1.047,1.091s1.096,0.412,1.949,0.509
	c0.097,0.02,0.193,0.029,0.291,0.029c0.117,0,0.232,0,0.349,0c0.873,0,2.171-0.184,3.896-0.552l0.785-0.204l-1.396,5.35
	l-1.163,0.175c-0.93,0.116-1.813,0.174-2.646,0.174c-3.064,0-5.467-0.731-7.211-2.195s-2.617-3.359-2.617-5.685
	c0-0.31,0.009-0.557,0.029-0.741c0.019-0.184,0.058-0.48,0.116-0.887c0.174-0.95,0.456-1.774,0.843-2.472
	c1.202-2.209,3.112-3.45,5.729-3.722c0.155,0,0.344-0.009,0.567-0.029c0.222-0.02,0.441-0.029,0.654-0.029
	c0.949,0,1.774,0.126,2.472,0.378c1.609,0.543,2.888,1.444,3.838,2.704c1.047,1.416,1.57,3.131,1.57,5.147l0.029,0.959H110.558z
	 M111.285,16.792c-0.465,0.078-0.843,0.286-1.134,0.625c-0.291,0.34-0.436,0.742-0.436,1.207h3.809c0-0.523-0.179-0.964-0.539-1.323
	c-0.358-0.358-0.799-0.538-1.323-0.538C111.489,16.763,111.362,16.773,111.285,16.792z"/>
<path fill="#FFFFFF" d="M130.127,19.014l-0.581-0.087c-0.369-0.059-0.795,0.043-1.279,0.305c-0.485,0.263-0.834,0.859-1.047,1.792
	l-0.058,0.408v6.613h-5.903v-9.538h-1.454l1.454-5.757h5.903v1.483c0.639-0.775,1.628-1.328,2.965-1.658
	c0.484-0.097,0.921-0.146,1.31-0.146c0.212,0,0.367,0,0.464,0L130.127,19.014z"/>
<path fill="#FFFFFF" d="M17.722,51.27c-0.64,1.682-1.636,3.08-2.988,4.194c-0.95,0.804-1.964,1.384-3.042,1.74
	c-1.078,0.356-2.357,0.535-3.836,0.535H2.073v-13.84H0.703l1.371-5.893h7.016c2.375,0,4.477,0.832,6.304,2.494
	c1.078,1.005,1.864,2.156,2.357,3.453c0.219,0.585,0.37,1.211,0.452,1.877c0.083,0.667,0.124,1.503,0.124,2.508
	c0,0.457-0.051,0.922-0.151,1.397C18.074,50.211,17.923,50.723,17.722,51.27z M10.13,44.336c-0.548-0.274-1.188-0.411-1.918-0.411
	v7.592H8.76c0.987-0.091,1.786-0.47,2.398-1.137c0.612-0.667,0.918-1.521,0.918-2.563c0-0.274-0.027-0.566-0.082-0.877
	C11.738,45.734,11.117,44.867,10.13,44.336z"/>
<path fill="#FFFFFF" d="M25.451,51.709c0.237,0.457,0.566,0.8,0.986,1.028c0.42,0.229,1.032,0.388,1.836,0.479
	c0.092,0.019,0.183,0.028,0.275,0.028c0.109,0,0.219,0,0.328,0c0.822,0,2.046-0.174,3.673-0.521l0.74-0.192l-1.316,5.042
	l-1.096,0.165c-0.876,0.109-1.708,0.164-2.494,0.164c-2.887,0-5.152-0.689-6.796-2.069c-1.645-1.379-2.467-3.165-2.467-5.358
	c0-0.292,0.009-0.525,0.027-0.699c0.019-0.174,0.055-0.452,0.11-0.836c0.165-0.895,0.43-1.672,0.795-2.33
	c1.133-2.083,2.932-3.251,5.399-3.508c0.146,0,0.324-0.009,0.534-0.027c0.21-0.019,0.416-0.028,0.617-0.028
	c0.895,0,1.671,0.119,2.33,0.356c1.516,0.512,2.722,1.362,3.618,2.549c0.986,1.333,1.48,2.951,1.48,4.851l0.027,0.904H25.451z
	 M26.136,47.132c-0.438,0.073-0.795,0.27-1.069,0.589c-0.274,0.32-0.411,0.699-0.411,1.138h3.59c0-0.494-0.169-0.909-0.507-1.247
	c-0.338-0.338-0.753-0.507-1.247-0.507C26.328,47.105,26.208,47.114,26.136,47.132z"/>
<path fill="#FFFFFF" d="M44.58,57.739h-6.632l-4.193-14.417h6.03l1.754,7.838l1.535-7.838h5.893L44.58,57.739z"/>
<path fill="#FFFFFF" d="M55.077,51.709c0.237,0.457,0.566,0.8,0.986,1.028c0.42,0.229,1.032,0.388,1.837,0.479
	c0.091,0.019,0.182,0.028,0.274,0.028c0.109,0,0.219,0,0.329,0c0.823,0,2.046-0.174,3.672-0.521l0.74-0.192L61.6,57.574
	l-1.097,0.165c-0.877,0.109-1.708,0.164-2.494,0.164c-2.887,0-5.152-0.689-6.797-2.069c-1.644-1.379-2.466-3.165-2.466-5.358
	c0-0.292,0.009-0.525,0.028-0.699c0.018-0.174,0.054-0.452,0.109-0.836c0.165-0.895,0.429-1.672,0.795-2.33
	c1.132-2.083,2.933-3.251,5.399-3.508c0.146,0,0.324-0.009,0.535-0.027c0.209-0.019,0.415-0.028,0.616-0.028
	c0.896,0,1.672,0.119,2.33,0.356c1.517,0.512,2.723,1.362,3.618,2.549c0.987,1.333,1.48,2.951,1.48,4.851l0.028,0.904H55.077z
	 M55.762,47.132c-0.439,0.073-0.795,0.27-1.068,0.589c-0.274,0.32-0.411,0.699-0.411,1.138h3.59c0-0.494-0.169-0.909-0.507-1.247
	c-0.338-0.338-0.754-0.507-1.247-0.507C55.954,47.105,55.834,47.114,55.762,47.132z"/>
<path fill="#FFFFFF" d="M70.89,57.739h-5.728V42.767h-1.37l1.781-5.529h5.317v14.971h1.397L70.89,57.739z"/>
<path fill="#FFFFFF" d="M86.841,54.306c-1.17,1.904-2.842,3.103-5.016,3.597c-0.566,0.128-1.169,0.192-1.809,0.192
	c-1.792,0-3.389-0.566-4.796-1.699c-0.731-0.603-1.298-1.238-1.7-1.905c-0.401-0.667-0.712-1.503-0.932-2.508l-0.11-0.767
	c0-0.128-0.004-0.27-0.013-0.425c-0.01-0.155-0.014-0.261-0.014-0.315c0-1.736,0.63-3.344,1.891-4.823
	c1.188-1.353,2.732-2.165,4.632-2.439c0.384-0.055,0.785-0.083,1.206-0.083c0.237,0,0.42,0,0.548,0c0.895,0,1.699,0.156,2.412,0.467
	c0.712,0.311,1.453,0.787,2.22,1.427c0.402,0.33,0.721,0.668,0.959,1.016c1.041,1.354,1.562,2.847,1.562,4.476
	C87.882,51.89,87.535,53.152,86.841,54.306z M80.729,48.558c-0.219-0.055-0.438-0.083-0.658-0.083c-0.092,0-0.229,0.019-0.411,0.055
	c-0.512,0.11-0.923,0.333-1.233,0.671s-0.466,0.754-0.466,1.247c-0.091,1.042,0.329,1.754,1.261,2.138
	c0.237,0.091,0.429,0.155,0.576,0.191c0.091,0.018,0.219,0.027,0.383,0.027c0.494,0,0.923-0.146,1.288-0.438
	c0.365-0.292,0.603-0.675,0.713-1.151c0.055-0.22,0.082-0.438,0.082-0.658C82.264,49.553,81.752,48.886,80.729,48.558z"/>
<path fill="#FFFFFF" d="M103.531,55.573c-0.585,0.64-1.219,1.138-1.905,1.494c-0.685,0.356-1.502,0.599-2.453,0.726
	c-0.256,0.037-0.493,0.064-0.712,0.082c-0.219,0.019-0.475,0.028-0.767,0.028c-0.805,0-1.635-0.128-2.494-0.384v4.961h-5.729V48.584
	h-1.37l1.37-5.262H95.2v2.33l1.288-2.33h2.549c1.371,0,2.668,0.521,3.892,1.563c1.151,0.95,1.9,2.302,2.248,4.056
	c0.018,0.146,0.045,0.388,0.082,0.726c0.037,0.338,0.055,0.69,0.055,1.056c0,0.969-0.155,1.864-0.466,2.686
	C104.536,54.23,104.097,54.953,103.531,55.573z M95.638,48.859H95.2v1.27c0,0.681,0.123,1.219,0.37,1.615
	c0.247,0.396,0.589,0.653,1.028,0.773s0.804,0.179,1.096,0.179c0.621,0,1.097-0.265,1.426-0.795
	c0.146-0.219,0.228-0.415,0.246-0.589c0.018-0.173,0.028-0.37,0.028-0.589c0-0.695-0.279-1.179-0.836-1.453
	C97.999,48.996,97.026,48.859,95.638,48.859z"/>
<path fill="#FFFFFF" d="M130.769,57.739h-5.508v-7.784c0-0.859-0.604-1.289-1.81-1.289c-0.11,0-0.311,0-0.603,0l-0.411,0.111v8.961
	h-5.537v-7.756c0-0.201-0.072-0.402-0.219-0.603s-0.362-0.384-0.645-0.548c-0.283-0.165-0.598-0.247-0.946-0.247
	c-0.182,0-0.401,0.027-0.657,0.082l-0.33,0.11v8.962h-5.536v-9.154h-1.371l1.371-5.262h5.536v2.658l1.131-2.658h3.477
	c0.754,0,1.526,0.312,2.317,0.932c0.368,0.292,0.717,0.694,1.048,1.206c0.073,0.11,0.156,0.247,0.248,0.411
	c0.038,0.055,0.074,0.146,0.111,0.274l1.279-2.823h3.05c0.781,0,1.394,0.101,1.838,0.302c0.443,0.201,0.884,0.594,1.32,1.178
	c0.273,0.384,0.5,0.904,0.681,1.563c0.109,0.493,0.163,0.868,0.163,1.124v4.714h1.371L130.769,57.739z"/>
<path fill="#FFFFFF" d="M138.662,51.709c0.236,0.457,0.566,0.8,0.986,1.028c0.421,0.229,1.032,0.388,1.837,0.479
	c0.091,0.019,0.182,0.028,0.273,0.028c0.109,0,0.22,0,0.33,0c0.821,0,2.045-0.174,3.672-0.521l0.739-0.192l-1.315,5.042
	l-1.096,0.165c-0.878,0.109-1.709,0.164-2.494,0.164c-2.888,0-5.152-0.689-6.797-2.069c-1.645-1.379-2.466-3.165-2.466-5.358
	c0-0.292,0.008-0.525,0.027-0.699c0.018-0.174,0.053-0.452,0.108-0.836c0.165-0.895,0.429-1.672,0.795-2.33
	c1.134-2.083,2.933-3.251,5.399-3.508c0.146,0,0.324-0.009,0.534-0.027c0.21-0.019,0.416-0.028,0.617-0.028
	c0.896,0,1.672,0.119,2.329,0.356c1.517,0.512,2.723,1.362,3.618,2.549c0.986,1.333,1.479,2.951,1.479,4.851l0.027,0.904H138.662z
	 M139.348,47.132c-0.438,0.073-0.795,0.27-1.069,0.589c-0.274,0.32-0.411,0.699-0.411,1.138h3.591c0-0.494-0.17-0.909-0.507-1.247
	c-0.339-0.338-0.754-0.507-1.248-0.507C139.539,47.105,139.421,47.114,139.348,47.132z"/>
<path fill="#FFFFFF" d="M162.615,57.739h-5.535v-7.976c0-0.311-0.138-0.571-0.412-0.781c-0.274-0.21-0.648-0.315-1.122-0.315
	c-0.147,0-0.303,0.01-0.467,0.028c-0.164,0.019-0.339,0.055-0.521,0.109l-0.273,0.082v8.853h-5.535v-9.072h-1.371l1.371-5.344h5.535
	v2.494l1.151-2.494h3.151c0.64,0,1.142,0.055,1.508,0.165c0.364,0.109,0.739,0.311,1.123,0.603c0.383,0.292,0.686,0.648,0.904,1.069
	c0.329,0.585,0.493,1.306,0.493,2.165v4.878h1.371L162.615,57.739z"/>
<path fill="#FFFFFF" d="M171.88,48.722h-0.987v9.017h-5.729v-9.017h-1.973l1.37-5.399h0.603v-1.95l5.729-1.4v3.35h2.357
	L171.88,48.722z"/>
<g>
</g>
<rect x="2.038" y="59.766" fill="#FFFFFF" width="84.64" height="2.714"/>
<rect x="97.479" y="59.766" fill="#FFFFFF" width="75.771" height="2.714"/>
<rect x="1.949" y="30.128" fill="#FFFFFF" width="82.666" height="2.534"/>
<rect x="103.841" y="30.128" fill="#FFFFFF" width="29.556" height="2.534"/>
</svg>
