<?xml version="1.0" encoding="utf-8"?>
<!-- Generator: Adobe Illustrator 16.0.0, SVG Export Plug-In . SVG Version: 6.00 Build 0)  -->
<!DOCTYPE svg PUBLIC "-//W3C//DTD SVG 1.1//EN" "http://www.w3.org/Graphics/SVG/1.1/DTD/svg11.dtd">
<svg version="1.1" id="Layer_1" xmlns="http://www.w3.org/2000/svg" xmlns:xlink="http://www.w3.org/1999/xlink" x="0px" y="0px"
	 width="413px" height="153.5px" viewBox="0 0 413 153.5" enable-background="new 0 0 413 153.5" xml:space="preserve">
<g>
	<path d="M353.932,52.268c-0.273-0.036-0.545-0.006-0.814,0.087c-0.516,0.169-0.858,0.5-1.029,0.992
		c-0.035,0.103-0.063,0.249-0.088,0.438c-0.014,0.106-0.026,0.201-0.037,0.285c0.031,0.09,0.045,0.146,0.042,0.167
		c0.083,0.354,0.233,0.646,0.449,0.878c0.216,0.232,0.535,0.375,0.957,0.429c0.484,0.063,0.913-0.053,1.283-0.348
		c0.37-0.294,0.593-0.728,0.667-1.297c0.011-0.427-0.113-0.791-0.373-1.093C354.726,52.504,354.375,52.325,353.932,52.268z"/>
	<path d="M352.84,60.454c-0.676-0.088-1.213,0.186-1.617,0.819c-0.207,0.273-0.308,0.55-0.3,0.829
		c-0.055,0.422,0.069,0.818,0.375,1.19c0.307,0.373,0.701,0.589,1.187,0.652c0.737,0.095,1.301-0.196,1.689-0.875
		c0.108-0.179,0.179-0.395,0.212-0.648c0.076-0.59-0.126-1.098-0.607-1.525C353.511,60.648,353.198,60.5,352.84,60.454z"/>
	<path d="M364.026,8.578c-21.55,0-39.019,17.47-39.019,39.019s17.469,39.019,39.019,39.019c21.549,0,39.02-17.47,39.02-39.019
		S385.575,8.578,364.026,8.578z M360.845,54.256c-0.167,1.286-0.694,2.461-1.582,3.525l-0.294,0.283
		c1.454,1.515,2.042,3.354,1.761,5.52c-0.101,0.779-0.33,1.551-0.686,2.317c-0.517,1.002-1.218,1.863-2.104,2.582
		c-0.793,0.667-1.628,1.147-2.501,1.44c-0.874,0.293-1.899,0.427-3.074,0.403c-0.237,0.012-0.473,0.003-0.704-0.027
		c-0.232-0.03-0.411-0.053-0.538-0.07c-0.505-0.065-0.953-0.166-1.343-0.302c-1.885-0.671-3.246-1.66-4.084-2.966
		c-0.572-0.886-0.964-1.631-1.174-2.237c-0.212-0.604-0.323-1.148-0.336-1.63c-0.013-0.483,0.012-0.956,0.071-1.418
		c0.226-1.745,1.144-3.209,2.755-4.39l0.635-0.431c-0.454-0.638-0.77-1.305-0.947-2.004c-0.177-0.698-0.218-1.416-0.122-2.154
		c0.044-0.337,0.12-0.68,0.229-1.031c0.332-1.071,0.75-1.901,1.255-2.489c0.505-0.589,1.251-1.13,2.236-1.624
		c0.412-0.204,0.896-0.377,1.449-0.52c0.555-0.143,1.101-0.222,1.639-0.238c0.537-0.016,1.017,0.003,1.44,0.058
		c0.504,0.065,1.019,0.197,1.539,0.393c0.522,0.196,1.009,0.442,1.464,0.736c1.145,0.77,1.972,1.708,2.481,2.813
		C360.823,51.901,361,53.055,360.845,54.256z M358.523,45.407c0,0-1.553-0.906-3.303-1.093s-3.78,0.176-3.78,0.176l2.052-15.842
		l-1.581-0.205l2.509-6.716l7.052,0.913L358.523,45.407z M373.327,73.011l-7.084-0.917l2.052-15.842l-1.58-0.205l2.509-6.716
		l7.052,0.913L373.327,73.011z M386.054,33.381c-0.077,0.591-0.247,1.244-0.511,1.959c-0.17,0.472-0.338,0.868-0.509,1.188
		c-0.17,0.321-0.385,0.646-0.641,0.978l-7.214,9.772l-8.253-1.069l4.634-5.991l-0.856-0.336l-0.363-0.176l-0.422-0.215
		c-1.545-0.822-2.678-1.911-3.403-3.27c-0.724-1.358-0.974-2.901-0.75-4.63c0.027-0.21,0.057-0.405,0.091-0.583
		s0.134-0.578,0.3-1.199c0.734-2.52,2.456-4.312,5.167-5.375c0.65-0.237,1.37-0.407,2.154-0.509
		c0.786-0.102,1.567-0.103,2.348-0.001c0.357,0.046,0.721,0.104,1.087,0.173s0.714,0.156,1.043,0.263
		c0.761,0.249,1.449,0.558,2.066,0.927c0.615,0.369,1.173,0.791,1.669,1.261c1.486,1.436,2.29,3.168,2.414,5.2
		c0.017,0.367,0.023,0.636,0.023,0.807C386.127,32.727,386.103,33.002,386.054,33.381z"/>
	<path d="M377.17,30.72c-0.189-0.024-0.383-0.017-0.582,0.021c-0.507,0.106-0.896,0.345-1.169,0.716
		c-0.273,0.373-0.431,0.716-0.471,1.032c-0.041,0.316,0.013,0.645,0.162,0.986c0.296,0.681,0.804,1.068,1.521,1.161
		c0.443,0.057,0.829-0.031,1.159-0.267l0.508-0.449c0.279-0.329,0.446-0.714,0.504-1.157c0.065-0.506-0.063-0.957-0.387-1.353
		C378.091,31.016,377.677,30.786,377.17,30.72z"/>
</g>
<g>
	<path d="M40.517,55.743c-1.899,1.635-3.644,2.794-5.233,3.478c-1.59,0.686-3.335,1.027-5.234,1.027h-4.571v10.401H10.64V37.127
		H7.327l3.313-14.177h17.622c0.663,0,1.192,0.023,1.59,0.066c0.397,0.044,0.971,0.132,1.723,0.265
		c8.082,1.458,12.94,6.184,14.574,14.177c0.176,0.707,0.287,1.392,0.332,2.054c0.043,0.663,0.066,1.436,0.066,2.319
		c0,3.047-0.497,5.697-1.49,7.95C44.061,52.033,42.548,54.021,40.517,55.743z M28.792,37.525h-3.313v8.745h2.849
		c0.706,0,1.401-0.32,2.087-0.96c0.684-0.64,1.093-1.347,1.226-2.12c0.132-0.772,0.199-1.292,0.199-1.557
		c0-1.28-0.298-2.286-0.895-3.014C30.348,37.889,29.63,37.525,28.792,37.525z"/>
	<path d="M83.842,70.648H69.997V51.636c0-1.855-1.37-2.783-4.107-2.783c-0.53,0-0.95,0-1.259,0l-0.927,0.133v21.663H49.857V34.46
		h-3.313l3.644-13.364h13.515v20.006l2.782-5.299h8.148c1.633,0,3.157,0.43,4.571,1.292c1.413,0.861,2.451,1.855,3.114,2.981
		c0.663,1.126,1.148,2.727,1.458,4.803l0.066,1.126v11.262h3.312L83.842,70.648z"/>
	<path d="M102.921,56.074c0.574,1.104,1.369,1.933,2.385,2.484c1.016,0.553,2.495,0.938,4.438,1.159
		c0.221,0.044,0.441,0.066,0.663,0.066c0.265,0,0.53,0,0.795,0c1.988,0,4.946-0.419,8.877-1.258l1.789-0.464l-3.18,12.189
		l-2.65,0.397c-2.12,0.265-4.13,0.397-6.028,0.397c-6.979,0-12.454-1.667-16.429-5.001c-3.975-3.334-5.962-7.652-5.962-12.952
		c0-0.706,0.022-1.269,0.066-1.689c0.043-0.419,0.132-1.093,0.265-2.021c0.397-2.164,1.037-4.041,1.921-5.631
		c2.738-5.035,7.088-7.86,13.051-8.479c0.353,0,0.784-0.021,1.292-0.066c0.507-0.044,1.004-0.066,1.49-0.066
		c2.164,0,4.041,0.288,5.631,0.861c3.665,1.237,6.58,3.291,8.745,6.161c2.385,3.225,3.577,7.133,3.577,11.726l0.066,2.186H102.921z
		 M104.578,45.011c-1.06,0.177-1.921,0.652-2.583,1.424c-0.663,0.773-0.994,1.689-0.994,2.75h8.678c0-1.192-0.409-2.197-1.226-3.014
		c-0.818-0.817-1.822-1.226-3.014-1.226C105.042,44.945,104.753,44.967,104.578,45.011z"/>
	<path d="M160.821,70.648h-13.382V51.371c0-0.75-0.332-1.38-0.994-1.888c-0.663-0.507-1.568-0.762-2.716-0.762
		c-0.354,0-0.729,0.023-1.126,0.066c-0.397,0.044-0.818,0.132-1.259,0.265l-0.663,0.199v21.398H127.3V48.721h-3.313l3.313-12.918
		h13.382v6.028l2.782-6.028h7.619c1.545,0,2.76,0.132,3.644,0.397c0.883,0.265,1.789,0.751,2.716,1.457
		c0.927,0.707,1.656,1.568,2.186,2.584c0.795,1.414,1.192,3.158,1.192,5.233v11.792h3.313L160.821,70.648z"/>
	<path d="M179.899,56.074c0.574,1.104,1.369,1.933,2.385,2.484c1.016,0.553,2.495,0.938,4.438,1.159
		c0.221,0.044,0.441,0.066,0.663,0.066c0.265,0,0.53,0,0.795,0c1.988,0,4.946-0.419,8.877-1.258l1.789-0.464l-3.18,12.189
		l-2.65,0.397c-2.12,0.265-4.13,0.397-6.028,0.397c-6.979,0-12.454-1.667-16.429-5.001c-3.975-3.334-5.962-7.652-5.962-12.952
		c0-0.706,0.022-1.269,0.066-1.689c0.043-0.419,0.132-1.093,0.265-2.021c0.397-2.164,1.037-4.041,1.921-5.631
		c2.738-5.035,7.088-7.86,13.051-8.479c0.353,0,0.784-0.021,1.292-0.066c0.507-0.044,1.004-0.066,1.49-0.066
		c2.164,0,4.041,0.288,5.631,0.861c3.665,1.237,6.58,3.291,8.745,6.161c2.385,3.225,3.577,7.133,3.577,11.726l0.066,2.186H179.899z
		 M181.556,45.011c-1.06,0.177-1.921,0.652-2.583,1.424c-0.663,0.773-0.994,1.689-0.994,2.75h8.678c0-1.192-0.409-2.197-1.226-3.014
		c-0.818-0.817-1.822-1.226-3.014-1.226C182.02,44.945,181.731,44.967,181.556,45.011z"/>
	<path d="M228.356,82.243c-0.892,0.264-2.169,0.44-3.832,0.529c-1.662,0.088-3.663,0.133-6.003,0.133
		c-2.694,0-5.002-0.265-6.923-0.795c-1.921-0.53-4.031-1.436-6.327-2.716l2.583-10.6c2.473,1.12,4.648,1.83,6.525,2.131
		c1.877,0.301,3.434,0.452,4.67,0.452c4.063,0,6.095-1.466,6.095-4.401v-3.35l-2.634,5.101h-1.713c-3.469,0-5.972-0.197-7.508-0.595
		c-3.382-0.793-6.016-2.446-7.904-4.958c-2.021-2.645-3.03-5.951-3.03-9.918c0-0.352,0-0.727,0-1.123
		c0.088-0.529,0.133-0.925,0.133-1.19c0.265-2.865,1.236-5.576,2.915-8.133c2.385-3.525,5.565-5.862,9.54-7.008
		c1.811-0.484,3.379-0.728,4.704-0.728c1.104,0,2.13,0.155,3.081,0.464c0.949,0.31,1.822,0.751,2.617,1.325l0.928-1.06h12.72v33.738
		c0,3.617-0.781,6.35-2.342,8.203C235.089,79.596,232.325,81.096,228.356,82.243z M225.146,52.898c0-1.345-0.331-2.466-0.994-3.362
		c-0.663-0.896-1.502-1.345-2.517-1.345c-1.679,0-3.004,0.397-3.975,1.192c-0.972,0.795-1.458,1.899-1.458,3.312
		c0,1.458,0.607,2.541,1.822,3.246c1.214,0.707,3.19,1.06,5.929,1.06h1.192V52.898z"/>
	<path d="M257.605,56.074c0.574,1.104,1.369,1.933,2.385,2.484c1.016,0.553,2.496,0.938,4.439,1.159
		c0.221,0.044,0.441,0.066,0.662,0.066c0.266,0,0.529,0,0.795,0c1.988,0,4.945-0.419,8.877-1.258l1.789-0.464l-3.18,12.189
		l-2.65,0.397c-2.119,0.265-4.129,0.397-6.027,0.397c-6.98,0-12.455-1.667-16.43-5.001c-3.975-3.334-5.963-7.652-5.963-12.952
		c0-0.706,0.021-1.269,0.066-1.689c0.043-0.419,0.133-1.093,0.266-2.021c0.396-2.164,1.037-4.041,1.92-5.631
		c2.738-5.035,7.09-7.86,13.051-8.479c0.354,0,0.783-0.021,1.293-0.066c0.506-0.044,1.004-0.066,1.49-0.066
		c2.162,0,4.041,0.288,5.631,0.861c3.666,1.237,6.58,3.291,8.744,6.161c2.385,3.225,3.578,7.133,3.578,11.726l0.066,2.186H257.605z
		 M259.262,45.011c-1.059,0.177-1.92,0.652-2.584,1.424c-0.662,0.773-0.992,1.689-0.992,2.75h8.678c0-1.192-0.408-2.197-1.227-3.014
		c-0.816-0.817-1.82-1.226-3.014-1.226C259.727,44.945,259.438,44.967,259.262,45.011z"/>
	<path d="M302.189,50.074l-1.324-0.199c-0.84-0.133-1.811,0.099-2.914,0.696c-1.105,0.598-1.9,1.958-2.385,4.082l-0.133,0.93v15.066
		h-13.449V48.919h-3.313l3.313-13.117h13.449v3.378c1.457-1.766,3.709-3.024,6.756-3.776c1.104-0.221,2.098-0.332,2.982-0.332
		c0.484,0,0.838,0,1.059,0L302.189,50.074z"/>
	<path d="M43.522,121.434c-1.361,3.576-3.478,6.548-6.354,8.917c-2.021,1.71-4.177,2.944-6.47,3.701
		c-2.292,0.758-5.012,1.137-8.16,1.137H10.242v-29.434H7.327l2.915-12.532h14.92c5.051,0,9.52,1.769,13.406,5.304
		c2.292,2.138,3.963,4.585,5.013,7.344c0.466,1.244,0.787,2.575,0.961,3.993c0.175,1.419,0.263,3.197,0.263,5.333
		c0,0.972-0.108,1.962-0.321,2.972C44.27,119.181,43.949,120.269,43.522,121.434z M27.377,106.688
		c-1.166-0.583-2.527-0.875-4.08-0.875v16.146h1.166c2.099-0.194,3.798-1,5.1-2.419c1.301-1.418,1.953-3.235,1.953-5.45
		c0-0.583-0.059-1.204-0.175-1.865C30.796,109.661,29.476,107.815,27.377,106.688z"/>
	<path d="M59.958,122.367c0.505,0.972,1.204,1.701,2.098,2.186c0.894,0.486,2.195,0.826,3.905,1.02
		c0.194,0.04,0.389,0.058,0.583,0.058c0.233,0,0.467,0,0.699,0c1.749,0,4.352-0.369,7.811-1.107l1.574-0.408L73.83,134.84
		l-2.332,0.35c-1.865,0.233-3.633,0.35-5.304,0.35c-6.14,0-10.958-1.466-14.455-4.4c-3.497-2.934-5.246-6.732-5.246-11.395
		c0-0.621,0.02-1.116,0.059-1.486c0.038-0.369,0.117-0.962,0.233-1.778c0.35-1.903,0.913-3.555,1.69-4.955
		c2.409-4.429,6.236-6.916,11.482-7.46c0.311,0,0.689-0.019,1.137-0.058c0.446-0.039,0.883-0.059,1.311-0.059
		c1.903,0,3.555,0.253,4.955,0.758c3.225,1.088,5.789,2.895,7.693,5.42c2.098,2.837,3.147,6.276,3.147,10.316l0.059,1.923H59.958z
		 M61.415,112.633c-0.933,0.156-1.69,0.574-2.273,1.253c-0.583,0.681-0.874,1.486-0.874,2.419h7.635c0-1.049-0.36-1.933-1.078-2.652
		c-0.72-0.719-1.603-1.078-2.652-1.078C61.823,112.575,61.57,112.595,61.415,112.633z"/>
	<path d="M100.64,135.189H86.535l-8.917-30.658H90.44l3.73,16.669l3.264-16.669h12.531L100.64,135.189z"/>
	<path d="M122.962,122.367c0.505,0.972,1.204,1.701,2.098,2.186c0.894,0.486,2.195,0.826,3.905,1.02
		c0.194,0.04,0.388,0.058,0.583,0.058c0.233,0,0.466,0,0.699,0c1.749,0,4.352-0.369,7.811-1.107l1.574-0.408l-2.798,10.725
		l-2.331,0.35c-1.865,0.233-3.634,0.35-5.304,0.35c-6.14,0-10.957-1.466-14.455-4.4c-3.497-2.934-5.246-6.732-5.246-11.395
		c0-0.621,0.02-1.116,0.059-1.486c0.038-0.369,0.116-0.962,0.233-1.778c0.35-1.903,0.913-3.555,1.69-4.955
		c2.409-4.429,6.236-6.916,11.482-7.46c0.311,0,0.689-0.019,1.137-0.058c0.446-0.039,0.883-0.059,1.311-0.059
		c1.904,0,3.556,0.253,4.955,0.758c3.225,1.088,5.79,2.895,7.694,5.42c2.098,2.837,3.147,6.276,3.147,10.316l0.059,1.923H122.962z
		 M124.42,112.633c-0.933,0.156-1.691,0.574-2.273,1.253c-0.583,0.681-0.874,1.486-0.874,2.419h7.635
		c0-1.049-0.36-1.933-1.078-2.652c-0.72-0.719-1.603-1.078-2.652-1.078C124.828,112.575,124.574,112.595,124.42,112.633z"/>
	<path d="M156.593,135.189h-12.182v-31.839h-2.915l3.789-11.758h11.308v31.839h2.972L156.593,135.189z"/>
	<path d="M190.514,127.889c-2.487,4.049-6.042,6.598-10.666,7.649c-1.205,0.272-2.487,0.409-3.847,0.409
		c-3.809,0-7.208-1.204-10.2-3.614c-1.555-1.282-2.759-2.632-3.614-4.051c-0.855-1.418-1.515-3.196-1.981-5.333l-0.233-1.632
		c0-0.271-0.01-0.573-0.029-0.903c-0.02-0.33-0.029-0.554-0.029-0.671c0-3.691,1.34-7.111,4.021-10.258
		c2.526-2.875,5.809-4.604,9.851-5.188c0.816-0.116,1.67-0.175,2.564-0.175c0.504,0,0.893,0,1.166,0
		c1.903,0,3.614,0.332,5.129,0.993c1.515,0.662,3.089,1.674,4.721,3.036c0.854,0.702,1.535,1.421,2.04,2.161
		c2.215,2.881,3.322,6.054,3.322,9.519C192.729,122.751,191.99,125.437,190.514,127.889z M177.516,115.664
		c-0.466-0.117-0.933-0.175-1.399-0.175c-0.195,0-0.486,0.039-0.874,0.117c-1.088,0.233-1.962,0.709-2.623,1.428
		c-0.661,0.719-0.991,1.603-0.991,2.652c-0.195,2.215,0.699,3.73,2.681,4.546c0.505,0.195,0.913,0.331,1.224,0.408
		c0.194,0.039,0.467,0.059,0.816,0.059c1.049,0,1.961-0.311,2.739-0.933c0.777-0.621,1.282-1.437,1.516-2.448
		c0.116-0.467,0.175-0.933,0.175-1.399C180.78,117.782,179.692,116.363,177.516,115.664z"/>
	<path d="M226.008,130.585c-1.244,1.361-2.593,2.419-4.05,3.177c-1.458,0.758-3.196,1.273-5.217,1.544
		c-0.544,0.078-1.048,0.136-1.516,0.175c-0.465,0.039-1.01,0.059-1.63,0.059c-1.712,0-3.478-0.272-5.305-0.816v10.55h-12.182
		v-29.551h-2.914l2.914-11.19h12.182v4.954l2.739-4.954h5.421c2.915,0,5.673,1.107,8.276,3.322c2.449,2.021,4.042,4.896,4.781,8.626
		c0.038,0.312,0.096,0.826,0.173,1.544c0.078,0.72,0.117,1.467,0.117,2.244c0,2.06-0.33,3.963-0.992,5.712
		C228.146,127.729,227.213,129.265,226.008,130.585z M209.223,116.305h-0.933v2.7c0,1.448,0.263,2.593,0.787,3.434
		c0.524,0.842,1.253,1.39,2.186,1.644c0.933,0.255,1.71,0.381,2.332,0.381c1.319,0,2.332-0.563,3.031-1.69
		c0.31-0.466,0.485-0.883,0.524-1.253c0.038-0.369,0.058-0.787,0.058-1.253c0-1.477-0.593-2.506-1.778-3.089
		S212.175,116.305,209.223,116.305z"/>
	<path d="M244.894,122.367c0.503,0.972,1.202,1.701,2.098,2.186c0.894,0.486,2.194,0.826,3.904,1.02
		c0.194,0.04,0.389,0.058,0.584,0.058c0.232,0,0.466,0,0.699,0c1.748,0,4.352-0.369,7.811-1.107l1.572-0.408l-2.798,10.725
		l-2.33,0.35c-1.866,0.233-3.634,0.35-5.305,0.35c-6.14,0-10.958-1.466-14.455-4.4c-3.497-2.934-5.244-6.732-5.244-11.395
		c0-0.621,0.019-1.116,0.059-1.486c0.038-0.369,0.115-0.962,0.232-1.778c0.351-1.903,0.912-3.555,1.691-4.955
		c2.409-4.429,6.235-6.916,11.482-7.46c0.309,0,0.688-0.019,1.136-0.058c0.446-0.039,0.883-0.059,1.311-0.059
		c1.904,0,3.556,0.253,4.954,0.758c3.226,1.088,5.79,2.895,7.695,5.42c2.098,2.837,3.146,6.276,3.146,10.316l0.059,1.923H244.894z
		 M246.351,112.633c-0.934,0.156-1.691,0.574-2.273,1.253c-0.583,0.681-0.875,1.486-0.875,2.419h7.635
		c0-1.049-0.359-1.933-1.077-2.652c-0.72-0.719-1.604-1.078-2.651-1.078C246.758,112.575,246.505,112.595,246.351,112.633z"/>
	<path d="M313.551,135.189h-11.714v-16.553c0-1.826-1.283-2.74-3.848-2.74c-0.233,0-0.661,0-1.281,0l-0.875,0.235v19.057h-11.774
		v-16.495c0-0.427-0.154-0.854-0.466-1.283c-0.311-0.427-0.768-0.815-1.369-1.165c-0.604-0.35-1.273-0.525-2.011-0.525
		c-0.389,0-0.855,0.059-1.398,0.175l-0.7,0.233v19.059H266.34v-19.467h-2.914l2.914-11.19h11.774v5.653l2.404-5.653h7.395
		c1.604,0,3.246,0.661,4.927,1.981c0.783,0.622,1.525,1.477,2.23,2.564c0.156,0.233,0.331,0.524,0.527,0.875
		c0.079,0.117,0.156,0.311,0.235,0.583l2.722-6.003h6.485c1.66,0,2.963,0.214,3.907,0.641c0.945,0.428,1.882,1.263,2.81,2.506
		c0.579,0.816,1.063,1.923,1.447,3.322c0.232,1.05,0.347,1.846,0.347,2.39v10.025h2.915L313.551,135.189z"/>
	<path d="M330.338,122.367c0.504,0.972,1.203,1.701,2.099,2.186c0.894,0.486,2.194,0.826,3.904,1.02
		c0.194,0.04,0.388,0.058,0.584,0.058c0.231,0,0.466,0,0.699,0c1.748,0,4.351-0.369,7.811-1.107l1.572-0.408l-2.798,10.725
		l-2.33,0.35c-1.866,0.233-3.635,0.35-5.305,0.35c-6.14,0-10.958-1.466-14.455-4.4c-3.497-2.934-5.244-6.732-5.244-11.395
		c0-0.621,0.019-1.116,0.058-1.486c0.038-0.369,0.115-0.962,0.232-1.778c0.351-1.903,0.912-3.555,1.69-4.955
		c2.409-4.429,6.236-6.916,11.482-7.46c0.31,0,0.689-0.019,1.136-0.058c0.447-0.039,0.884-0.059,1.312-0.059
		c1.904,0,3.556,0.253,4.954,0.758c3.226,1.088,5.789,2.895,7.695,5.42c2.098,2.837,3.146,6.276,3.146,10.316l0.059,1.923H330.338z
		 M331.795,112.633c-0.933,0.156-1.69,0.574-2.273,1.253c-0.582,0.681-0.874,1.486-0.874,2.419h7.635
		c0-1.049-0.359-1.933-1.077-2.652c-0.721-0.719-1.604-1.078-2.652-1.078C332.203,112.575,331.95,112.595,331.795,112.633z"/>
	<path d="M381.278,135.189h-11.772v-16.961c0-0.66-0.293-1.214-0.875-1.661c-0.583-0.446-1.38-0.67-2.389-0.67
		c-0.313,0-0.643,0.021-0.991,0.059c-0.351,0.039-0.721,0.116-1.108,0.233l-0.583,0.175v18.826h-11.772v-19.292h-2.914l2.914-11.365
		h11.772v5.304l2.449-5.304h6.701c1.361,0,2.429,0.116,3.207,0.35c0.776,0.233,1.573,0.661,2.39,1.282
		c0.814,0.622,1.457,1.38,1.923,2.273c0.7,1.244,1.049,2.779,1.049,4.604v10.375h2.914L381.278,135.189z"/>
	<path d="M400.979,116.014h-2.099v19.176h-12.182v-19.176h-4.196l2.913-11.482h1.283v-4.146l12.182-2.979v7.125h5.013
		L400.979,116.014z"/>
</g>
<g>
</g>
<rect x="10.167" y="139.5" width="180" height="5.773"/>
<rect x="10.167" y="75.394" width="188.333" height="5.773"/>
<rect x="242.303" y="75.394" width="67.336" height="5.773"/>
<rect x="216.23" y="139.5" width="186.815" height="5.773"/>
</svg>
