<?xml version="1.0" encoding="utf-8"?>
<!-- Generator: Adobe Illustrator 16.0.0, SVG Export Plug-In . SVG Version: 6.00 Build 0)  -->
<!DOCTYPE svg PUBLIC "-//W3C//DTD SVG 1.1//EN" "http://www.w3.org/Graphics/SVG/1.1/DTD/svg11.dtd">
<svg version="1.1" id="Layer_1" xmlns="http://www.w3.org/2000/svg" xmlns:xlink="http://www.w3.org/1999/xlink" x="0px" y="0px"
	 width="455.273px" height="400px" viewBox="0 0 455.273 400" enable-background="new 0 0 455.273 400" xml:space="preserve">
<g>
	<path fill="#61DAFB" d="M145.633,148.513c-3.531,0-6.908-0.826-9.513-2.328l-48.057-27.75c-5.333-3.081-9.507-10.313-9.507-16.471
		V46.471c0-6.158,4.175-13.392,9.507-16.47L136.12,2.252c5.213-3.002,13.814-3.002,19.022,0L203.197,30
		c5.335,3.079,9.515,10.313,9.515,16.47v55.493c0,6.157-4.18,13.39-9.515,16.471l-48.054,27.75
		C152.537,147.687,149.165,148.513,145.633,148.513z M145.633,8.448c-2.029,0-3.944,0.431-5.25,1.185L92.325,37.378
		c-2.748,1.588-5.248,5.917-5.248,9.093v55.493c0,3.176,2.5,7.505,5.248,9.087l48.059,27.755c2.611,1.502,7.886,1.502,10.499,0
		l48.051-27.755c2.756-1.582,5.258-5.911,5.258-9.087V46.471c0-3.176-2.502-7.505-5.258-9.093L150.882,9.632
		C149.576,8.878,147.667,8.448,145.633,8.448z"/>
	<g>
		<path fill="#61DAFB" d="M154.746,73.273c0,4.791-3.887,8.667-8.673,8.667c-4.783,0-8.675-3.876-8.675-8.667
			c0-4.786,3.892-8.668,8.675-8.668C150.859,64.605,154.746,68.487,154.746,73.273z"/>
		<path fill="#61DAFB" d="M146.072,105.152c6.807,6.618,13.512,10.536,18.922,10.536c1.771,0,3.453-0.377,4.849-1.213
			c4.836-2.797,6.622-9.791,4.933-19.762c-0.277-1.771-0.649-3.545-1.113-5.412c1.863-0.558,3.541-1.117,5.219-1.674
			c9.423-3.636,14.634-8.668,14.634-14.164c0-5.597-5.211-10.628-14.634-14.175c-1.678-0.644-3.355-1.214-5.219-1.673
			c0.464-1.859,0.836-3.639,1.113-5.408c1.587-10.164-0.177-17.246-5.028-20.044c-1.396-0.836-3.076-1.21-4.844-1.21
			c-5.319,0-12.124,3.916-18.923,10.53c-6.712-6.615-13.429-10.53-18.831-10.53c-1.771,0-3.448,0.374-4.851,1.21
			c-4.843,2.798-6.604,9.795-4.932,19.765c0.277,1.769,0.654,3.542,1.122,5.405c-1.866,0.556-3.542,1.117-5.226,1.676
			c-9.414,3.64-14.631,8.675-14.631,14.169c0,5.593,5.217,10.624,14.631,14.168c1.683,0.656,3.359,1.211,5.226,1.678
			c-0.468,1.865-0.845,3.63-1.122,5.403c-1.583,9.979,0.181,17.067,4.932,19.763c1.408,0.841,3.079,1.221,4.851,1.221
			C132.558,115.587,139.276,111.678,146.072,105.152L146.072,105.152z M140.851,92.567c1.681,0.094,3.455,0.094,5.216,0.094
			c1.771,0,3.544,0,5.221-0.094c-1.677,2.241-3.449,4.289-5.221,6.243C144.292,96.855,142.532,94.808,140.851,92.567z
			 M129.294,82.97c0.932,1.585,1.771,3.075,2.8,4.564c-2.891-0.366-5.595-0.836-8.202-1.394c0.838-2.519,1.772-5.127,2.89-7.741
			c0.75,1.493,1.58,3.073,2.513,4.559V82.97z M123.885,60.504c2.609-0.563,5.315-1.031,8.205-1.399
			c-0.932,1.489-1.864,2.982-2.796,4.564c-0.943,1.587-1.779,3.077-2.513,4.66c-1.218-2.7-2.151-5.311-2.896-7.828V60.504z
			 M129.013,73.273c1.212-2.516,2.516-5.034,4.005-7.546c1.408-2.425,2.991-4.845,4.569-7.277c2.804-0.186,5.596-0.277,8.484-0.277
			c2.982,0,5.786,0.091,8.489,0.277c1.679,2.432,3.163,4.852,4.564,7.277c1.497,2.512,2.793,5.03,4.009,7.546
			c-1.216,2.516-2.512,5.033-4.009,7.553c-1.401,2.419-2.977,4.844-4.564,7.272c-2.8,0.185-5.592,0.271-8.489,0.271
			c-2.98,0-5.779-0.086-8.484-0.271c-1.671-2.428-3.161-4.853-4.569-7.272C131.529,78.305,130.226,75.79,129.013,73.273
			L129.013,73.273z M165.462,68.239l-2.516-4.662c-0.933-1.581-1.771-3.074-2.799-4.567c2.896,0.374,5.592,0.845,8.204,1.407
			C167.516,63.026,166.577,65.629,165.462,68.239L165.462,68.239L165.462,68.239z M165.462,78.307
			c1.114,2.611,2.054,5.219,2.89,7.739c-2.612,0.563-5.309,1.029-8.204,1.398c0.927-1.491,1.866-2.978,2.799-4.567
			c0.847-1.395,1.682-2.979,2.516-4.563l0,0V78.307z M167.602,110.655c-0.745,0.468-1.676,0.653-2.698,0.653
			c-4.567,0-10.259-3.732-15.85-9.317c2.707-2.894,5.319-6.156,7.93-9.793c4.386-0.375,8.575-1.028,12.494-1.961
			c0.468,1.68,0.741,3.361,1.017,5.04C171.808,103.196,170.777,108.882,167.602,110.655L167.602,110.655z M172.458,61.53
			c10.434,2.984,16.675,7.549,16.675,11.744c0,3.637-4.279,7.272-11.836,10.166c-1.487,0.552-3.161,1.116-4.837,1.575
			c-1.206-3.823-2.705-7.738-4.568-11.741c1.863-4.006,3.461-7.918,4.568-11.744l0,0H172.458z M164.995,35.244
			c1.021,0,1.862,0.175,2.699,0.646c3.083,1.777,4.198,7.368,2.894,15.38c-0.273,1.587-0.649,3.272-1.032,5.043
			c-3.909-0.843-8.105-1.498-12.479-1.957c-2.527-3.643-5.235-6.901-7.925-9.797C154.737,39.067,160.423,35.244,164.995,35.244
			L164.995,35.244z M151.288,53.978c-1.677-0.09-3.442-0.09-5.216-0.09c-1.767,0-3.541,0-5.211,0.09
			c1.671-2.238,3.445-4.286,5.211-6.238C147.853,49.691,149.611,51.839,151.288,53.978L151.288,53.978z M124.538,35.891
			c0.743-0.471,1.68-0.646,2.707-0.646c4.564,0,10.246,3.731,15.843,9.316c-2.704,2.891-5.316,6.149-7.921,9.797
			c-4.386,0.371-8.575,1.019-12.495,1.957c-0.464-1.683-0.749-3.366-1.031-5.043c-1.298-7.913-0.272-13.505,2.894-15.38l0,0H124.538
			z M119.697,85.015c-10.447-2.98-16.688-7.547-16.688-11.741c0-3.631,4.288-7.265,11.833-10.158
			c1.495-0.558,3.17-1.119,4.854-1.579c1.203,3.819,2.699,7.731,4.555,11.737c-1.856,4.009-3.445,8.018-4.555,11.75V85.015z
			 M121.653,95.275c0.27-1.582,0.646-3.262,1.023-5.04c3.915,0.849,8.116,1.495,12.495,1.961c2.512,3.637,5.221,6.894,7.921,9.793
			c-5.598,5.49-11.284,9.317-15.848,9.317c-1.026,0-1.866-0.185-2.707-0.653C121.368,108.882,120.352,103.196,121.653,95.275
			L121.653,95.275z"/>
	</g>
</g>
<g>
	<path fill="#764ABC" d="M146.074,400c-3.532,0-6.911-0.824-9.507-2.331l-48.061-27.746C83.175,366.85,79,359.612,79,353.451
		v-55.492c0-6.155,4.175-13.388,9.507-16.468l48.061-27.751c5.197-3.003,13.814-3.003,19.017,0l48.059,27.751
		c5.328,3.08,9.507,10.313,9.507,16.468v55.492c0,6.161-4.179,13.399-9.507,16.473l-48.059,27.746
		C152.982,399.176,149.604,400,146.074,400z M146.074,259.936c-2.029,0-3.94,0.433-5.25,1.185l-48.056,27.748
		c-2.748,1.586-5.247,5.916-5.247,9.09v55.492c0,3.178,2.499,7.507,5.247,9.087l48.056,27.755c2.615,1.503,7.887,1.503,10.498,0
		l48.061-27.755c2.745-1.58,5.247-5.909,5.247-9.087v-55.492c0-3.174-2.502-7.504-5.247-9.09l-48.061-27.748
		C150.015,260.369,148.103,259.936,146.074,259.936z"/>
	<g>
		<g>
			<path fill="#764ABC" d="M163.074,338.33c3.16-0.327,5.556-3.047,5.45-6.314c-0.111-3.271-2.839-5.887-6.102-5.887h-0.222
				c-3.372,0.116-5.993,2.94-5.883,6.317c0.113,1.64,0.764,3.052,1.747,4.04c-3.704,7.294-9.373,12.63-17.869,17.102
				c-5.778,3.049-11.769,4.14-17.758,3.373c-4.906-0.65-8.72-2.831-11.12-6.429c-3.482-5.336-3.812-11.105-0.869-16.89
				c2.072-4.135,5.34-7.189,7.409-8.713c-0.434-1.419-1.091-3.813-1.417-5.558c-15.793,11.44-14.164,26.917-9.369,34.216
				c3.596,5.444,10.897,8.823,18.96,8.823c2.178,0,4.358-0.221,6.536-0.759C146.51,358.928,157.082,350.647,163.074,338.33z"/>
			<path fill="#764ABC" d="M182.251,324.818c-8.281-9.695-20.484-15.029-34.432-15.029h-1.741c-0.981-1.965-3.054-3.272-5.339-3.272
				h-0.22c-3.376,0.109-5.991,2.936-5.883,6.321c0.111,3.267,2.835,5.882,6.103,5.882h0.217c2.399-0.108,4.468-1.636,5.336-3.705
				h1.959c8.286,0,16.128,2.404,23.208,7.082c5.455,3.595,9.375,8.276,11.551,13.952c1.856,4.57,1.745,9.037-0.213,12.85
				c-3.051,5.774-8.174,8.938-14.932,8.938c-4.356,0-8.497-1.309-10.679-2.283c-1.195,1.084-3.375,2.824-4.902,3.922
				c4.688,2.178,9.481,3.373,14.058,3.373c10.461,0,18.192-5.773,21.136-11.55C190.642,344.978,190.425,334.085,182.251,324.818z"/>
			<path fill="#764ABC" d="M126.901,340.185c0.109,3.269,2.833,5.878,6.1,5.878h0.218c3.379-0.108,5.993-2.938,5.888-6.315
				c-0.114-3.262-2.832-5.88-6.106-5.88h-0.216c-0.218,0-0.548,0-0.761,0.106c-4.471-7.414-6.32-15.468-5.669-24.186
				c0.437-6.539,2.618-12.205,6.43-16.891c3.159-4.033,9.262-5.994,13.402-6.096c11.546-0.223,16.458,14.157,16.779,19.934
				c1.414,0.325,3.809,1.088,5.446,1.635c-1.309-17.652-12.205-26.804-22.665-26.804c-9.804,0-18.847,7.085-22.443,17.538
				c-5.014,13.955-1.745,27.348,4.36,37.924C127.12,337.788,126.792,338.984,126.901,340.185z"/>
		</g>
	</g>
</g>
<g>
	<path fill="#E64D26" d="M305.688,400c-3.531,0-6.909-0.827-9.513-2.323l-48.057-27.753c-5.331-3.08-9.515-10.312-9.515-16.471
		v-55.495c0-6.158,4.184-13.392,9.515-16.468l48.057-27.749c5.204-3.005,13.818-3.005,19.017,0l48.063,27.749
		c5.335,3.076,9.509,10.31,9.509,16.468v55.495c0,6.159-4.174,13.391-9.509,16.471l-48.063,27.753
		C312.594,399.173,309.215,400,305.688,400z M305.688,259.937c-2.032,0-3.944,0.429-5.249,1.182l-48.062,27.751
		c-2.747,1.586-5.249,5.914-5.249,9.089v55.495c0,3.173,2.502,7.509,5.249,9.091l48.062,27.748c2.608,1.512,7.882,1.512,10.495,0
		l48.059-27.748c2.752-1.582,5.252-5.918,5.252-9.091v-55.495c0-3.175-2.5-7.503-5.249-9.089l-48.062-27.751
		C309.626,260.366,307.717,259.937,305.688,259.937z"/>
	<g>
		<path fill="#E64D26" d="M270.175,288.879l6.442,72.365l28.901,8.038l28.988-8.052l6.448-72.352h-70.783H270.175z M283.556,306.05
			l-0.212-2.383h22.192v8.878h-12.504l0.806,9.088h11.698v8.871h-19.799L283.556,306.05L283.556,306.05z M325.918,324.021
			l-2.083,23.363l-0.133,1.499l-18.184,5.044l-18.15-5.044l-1.244-13.937h8.896l0.634,7.078l9.878,2.665l9.874-2.674l1.035-11.5
			h-10.89v-8.878h20.571l-0.214,2.383H325.918z M327.525,306.05l-0.403,4.501l-0.183,2.001H305.57v-8.878h22.165L327.525,306.05z"/>
	</g>
</g>
<g>
	<path fill="#3D8FC6" d="M226,273.303c-3.532,0-6.905-0.821-9.511-2.323l-48.053-27.749c-5.335-3.078-9.51-10.313-9.51-16.474
		v-55.492c0-6.157,4.175-13.393,9.51-16.472l48.053-27.75c5.208-3.001,13.809-3.001,19.024,0l48.055,27.75
		c5.341,3.079,9.515,10.314,9.515,16.472v55.492c0,6.161-4.174,13.396-9.515,16.474l-48.055,27.749
		C232.908,272.482,229.529,273.303,226,273.303z M226,133.24c-2.025,0-3.948,0.435-5.249,1.185l-48.051,27.75
		c-2.753,1.584-5.249,5.918-5.249,9.091v55.492c0,3.174,2.496,7.51,5.249,9.092l48.051,27.752c2.614,1.507,7.885,1.507,10.497,0
		l48.06-27.752c2.753-1.582,5.253-5.918,5.253-9.092v-55.492c0-3.173-2.5-7.507-5.253-9.091l-48.06-27.75
		C229.944,133.675,228.029,133.24,226,133.24z"/>
	<g>
		<path fill="#3D8FC6" d="M226.055,213.872L226.055,213.872z M190.85,159.153l6.399,71.751l28.706,7.971l28.786-7.977l6.407-71.745
			H190.85z M247.859,175.57l-2.164,24.242l0,0l-1.499,16.733l-0.128,1.49l-18.049,5.006l-18.031-5.006l-1.233-13.82h8.835
			l0.631,7.018l9.808,2.645l0.025-0.006h0.002l9.781-2.645l1.033-11.408h-20.537l-0.184-1.977l-0.399-4.458l-0.207-2.374h22.113
			l0.798-9.002h-33.671l-0.183-1.975l-0.402-4.462l-0.204-2.367h44.082l-0.217,2.367V175.57z"/>
	</g>
</g>
<g>
	<path fill="#83CD29" d="M389.383,273.27c-1.982,0-3.963-0.514-5.708-1.523l-18.169-10.757c-2.713-1.512-1.387-2.055-0.493-2.362
		c3.618-1.255,4.354-1.541,8.21-3.74c0.409-0.222,0.938-0.138,1.363,0.103l13.958,8.292c0.511,0.282,1.218,0.282,1.69,0
		l54.424-31.411c0.504-0.284,0.829-0.875,0.829-1.472v-62.81c0-0.616-0.325-1.188-0.843-1.502l-54.399-31.38
		c-0.508-0.293-1.177-0.293-1.68,0l-54.39,31.391c-0.526,0.304-0.859,0.896-0.859,1.491v62.815c0,0.602,0.333,1.166,0.854,1.455
		l14.911,8.613c8.09,4.04,13.048-0.721,13.048-5.508v-62.012c0-0.884,0.707-1.573,1.584-1.573h6.899
		c0.857,0,1.572,0.689,1.572,1.573v62.012c0,10.787-5.878,16.99-16.112,16.99c-3.145,0-5.624,0-12.538-3.406l-14.271-8.219
		c-3.521-2.042-5.704-5.854-5.704-9.932v-62.81c0-4.081,2.183-7.881,5.704-9.92l54.43-31.446c3.445-1.954,8.021-1.954,11.435,0
		l54.429,31.446c3.525,2.04,5.715,5.839,5.715,9.92v62.81c0,4.078-2.189,7.875-5.715,9.932l-54.429,31.416
		c-1.739,1.01-3.719,1.523-5.728,1.523H389.383z M406.201,229.999c-23.825,0-28.81-10.932-28.81-20.107
		c0-0.867,0.692-1.565,1.563-1.565h7.038c0.784,0,1.447,0.565,1.563,1.328c1.06,7.164,4.219,10.784,18.637,10.784
		c11.46,0,16.334-2.594,16.334-8.673c0-3.505-1.376-6.104-19.193-7.856c-14.889-1.472-24.108-4.762-24.108-16.676
		c0-10.981,9.263-17.53,24.776-17.53c17.44,0,26.062,6.051,27.155,19.04c0.043,0.445-0.12,0.874-0.419,1.209
		c-0.295,0.32-0.709,0.504-1.147,0.504h-7.071c-0.729,0-1.374-0.513-1.519-1.228c-1.706-7.542-5.825-9.952-17.01-9.952
		c-12.515,0-13.973,4.365-13.973,7.632c0,3.963,1.72,5.115,18.624,7.349c16.719,2.205,24.674,5.341,24.674,17.091
		c0,11.861-9.886,18.651-27.123,18.651H406.201z"/>
</g>
<g>
	<path fill="#2A4D80" d="M305.682,148.515c-3.527,0-6.909-0.823-9.511-2.324l-48.062-27.753c-5.333-3.078-9.508-10.313-9.508-16.467
		V46.469c0-6.157,4.175-13.39,9.508-16.47l48.062-27.751c5.203-2.997,13.822-2.997,19.021,0l48.064,27.751
		c5.331,3.08,9.513,10.313,9.513,16.47v55.501c0,6.153-4.182,13.389-9.513,16.467l-48.064,27.753
		C312.594,147.692,309.214,148.515,305.682,148.515z M305.682,8.439c-2.026,0-3.938,0.432-5.249,1.19l-48.061,27.751
		c-2.748,1.586-5.25,5.916-5.25,9.088v55.501c0,3.167,2.502,7.501,5.25,9.089l48.061,27.747c2.612,1.515,7.884,1.515,10.501,0
		l48.062-27.747c2.752-1.588,5.25-5.922,5.25-9.089V46.469c0-3.172-2.498-7.502-5.25-9.088L310.934,9.63
		C309.625,8.871,307.713,8.439,305.682,8.439z"/>
	<g>
		<path fill="#2A4D80" d="M279.342,50.855v28.707c0,3.456,0.376,3.963,3.81,4.947l-0.825,4.813
			c-1.828-0.414-3.593-0.603-5.187-1.231c-3.034-1.194-3.518-3.947-3.529-6.781c-0.037-8.114-0.015-16.234-0.015-24.342v-1.608
			c-1.397,0.11-2.681,0.098-3.915,0.333c-1.415,0.269-2.229,1.44-2.273,3.144c-0.067,2.38-0.023,4.759-0.067,7.145
			c-0.015,1.084-0.068,2.185-0.188,3.263c-0.252,2.037-1.195,3.695-2.907,4.804c0.019,0.155-0.008,0.268,0.032,0.298
			c2.576,1.797,3.015,4.493,3.063,7.336c0.038,2.26,0,4.533,0.019,6.789c0.01,3.415,0.899,4.333,4.33,4.551l0.546,0.081v4.458
			c-2.369-0.063-4.702-0.161-6.825-1.301c-2.369-1.267-3.162-3.468-3.28-5.948c-0.125-2.572-0.077-5.149-0.1-7.716
			c0-0.476,0.011-0.941-0.014-1.411c-0.167-2.985-1.329-4.293-4.273-4.801c-0.017-0.134-0.057-0.281-0.057-0.434
			c-0.01-1.243-0.004-2.492-0.004-3.702l0.207-0.192c3.09-0.744,4.104-2.003,4.141-5.226c0.022-2.069-0.036-4.133,0.011-6.207
			c0.044-1.401,0.104-2.814,0.353-4.186c0.546-3.034,2.753-4.869,6.283-5.345c1.045-0.132,2.095-0.224,3.142-0.235
			c2.455-0.038,4.909-0.014,7.524-0.014l0,0V50.855z M289.284,77.736c-0.363,3.001,1.955,5.756,5.164,6.355
			c3.033,0.562,5.969,0.041,8.998-0.909c0.244,1.409,0.507,2.766,0.68,4.134c0.032,0.216-0.327,0.614-0.588,0.694
			c-4.447,1.389-8.934,1.851-13.396,0.136c-2.757-1.053-4.744-3.021-5.812-5.774c-1.668-4.374-1.694-8.778,0.294-13.067
			c2.885-6.265,10.097-7.89,15.489-5.381c3.269,1.517,4.847,4.339,5.402,7.721c0.319,1.946,0.293,3.931,0.437,6.085
			c-5.726-0.001-11.206-0.001-16.659-0.001l0,0L289.284,77.736z M300.073,73.511c0.068-3.658-2.004-5.942-5.254-5.92
			c-3.1,0.018-5.619,2.672-5.545,5.92H300.073z M342.026,97.601V93.08l1.298-0.091c2.444-0.198,3.524-1.282,3.594-3.722
			c0.058-2.339,0-4.682,0.039-7.017c0.023-1.126,0.094-2.271,0.257-3.384c0.288-1.931,1.271-3.479,3.082-4.653
			c-3.205-2.034-3.311-5.132-3.344-8.255c-0.021-2.151,0.028-4.296-0.018-6.439c-0.056-2.916-1.136-3.98-4.056-4.105l-0.804-0.06
			v-4.494c2.534,0.056,5.052,0.134,7.277,1.573c2.067,1.339,2.716,3.469,2.819,5.749c0.12,2.765,0.062,5.539,0.104,8.305
			c0.021,0.816,0.06,1.655,0.273,2.435c0.529,2.001,1.916,3.04,4.026,3.11v4.382c-2.015,0.088-3.458,1.051-4.001,3.056
			c-0.215,0.776-0.266,1.619-0.285,2.426c-0.056,2.732,0,5.467-0.095,8.189c-0.159,4.327-2.439,6.736-6.749,7.24
			c-1.108,0.127-2.23,0.177-3.411,0.274l0,0L342.026,97.601z M343.091,64.003l-1.045,4.528c-2.412-0.797-4.79-1.345-7.28-0.949
			c-1.564,0.256-2.495,0.943-2.688,2.039c-0.217,1.19,0.368,2.25,1.806,2.961c1.22,0.6,2.51,1.05,3.765,1.582
			c0.752,0.318,1.51,0.628,2.234,1c3.525,1.751,4.74,4,4.341,7.963c-0.283,2.78-2.281,4.826-5.803,5.599
			c-4.195,0.917-8.347,0.664-12.528-0.913l0.919-4.562c1.805,0.412,3.513,0.945,5.262,1.159c1.448,0.169,2.954,0.032,4.423-0.112
			c0.961-0.097,1.77-0.591,2.008-1.672c0.245-1.118-0.073-2.088-1.012-2.661c-1.153-0.702-2.424-1.229-3.647-1.821
			c-1.471-0.702-3.003-1.294-4.423-2.099c-4.167-2.354-4.122-9.638,0.511-11.846c1.367-0.66,2.927-1.055,4.442-1.271
			C337.313,62.511,340.167,63.118,343.091,64.003L343.091,64.003z M324.195,63.802l-1.091,4.74
			c-2.409-0.825-4.753-1.339-7.213-0.961c-1.644,0.249-2.563,0.946-2.757,2.097c-0.207,1.173,0.388,2.202,1.873,2.926
			c1.294,0.627,2.655,1.104,3.981,1.665c0.645,0.274,1.291,0.552,1.92,0.863c3.646,1.815,4.919,4.262,4.332,8.29
			c-0.391,2.774-2.813,4.905-6.373,5.465c-3.627,0.567-7.22,0.474-10.76-0.654c-0.863-0.277-1.227-0.614-0.963-1.566
			c0.317-1.109,0.507-2.257,0.758-3.409c1.785,0.406,3.502,0.941,5.248,1.151c1.449,0.168,2.956,0.03,4.422-0.113
			c1.027-0.102,1.823-0.681,2.042-1.799c0.21-1.078-0.164-2.016-1.057-2.53c-1.344-0.778-2.789-1.372-4.19-2.043
			c-1.295-0.62-2.64-1.161-3.879-1.874c-4.171-2.396-4.113-9.617,0.596-11.953c2.097-1.043,4.303-1.43,6.578-1.251
			c2.145,0.173,4.269,0.614,6.54,0.957l0,0H324.195z"/>
	</g>
</g>
<g>
	<path fill="#CC6699" d="M67.078,273.303c-3.527,0-6.903-0.825-9.509-2.326L9.506,243.23C4.174,240.147,0,232.914,0,226.756v-55.494
		c0-6.156,4.174-13.394,9.506-16.473l48.063-27.75c5.199-2.998,13.819-2.998,19.02,0l48.057,27.75
		c5.336,3.079,9.513,10.316,9.513,16.473v55.494c0,6.157-4.177,13.391-9.513,16.474l-48.057,27.747
		C73.981,272.478,70.611,273.303,67.078,273.303z M67.078,133.235c-2.028,0-3.942,0.429-5.251,1.187L13.769,162.17
		c-2.744,1.585-5.249,5.92-5.249,9.092v55.494c0,3.176,2.505,7.505,5.249,9.09l48.058,27.75c2.614,1.512,7.888,1.512,10.501,0
		l48.062-27.75c2.749-1.585,5.255-5.914,5.255-9.09v-55.494c0-3.172-2.506-7.507-5.255-9.092l-48.062-27.748
		C71.023,133.665,69.11,133.235,67.078,133.235z"/>
	<g>
		<path fill="#CC6699" d="M115.55,210.36c-0.312-2.619-1.661-4.65-3.688-6.234c-2.358-1.846-5.119-2.602-8.056-2.726
			c-2.395-0.1-4.733,0.257-6.998,1.082c-0.649,0.228-1.275,0.513-1.921,0.763c-0.092-0.155-0.182-0.299-0.256-0.455
			c-0.668-1.366-1.467-2.666-1.64-4.229c-0.13-1.109-0.289-2.214-0.023-3.31c0.252-1.053,0.588-2.091,0.893-3.135
			c0.16-0.535,0.058-0.835-0.457-1.076c-0.184-0.081-0.371-0.157-0.572-0.191c-1.255-0.178-2.497-0.07-3.711,0.284
			c-0.434,0.126-0.75,0.367-0.839,0.838c-0.052,0.276-0.167,0.536-0.246,0.806c-0.314,1.126-0.537,2.266-1.046,3.342
			c-1.299,2.678-2.768,5.26-4.271,7.813c-0.169,0.286-0.335,0.556-0.542,0.893c-0.526-1.11-1.084-2.104-1.258-3.263
			c-0.193-1.317-0.348-2.634-0.021-3.939c0.24-0.969,0.558-1.928,0.857-2.891c0.142-0.453,0.075-0.696-0.344-0.937
			c-0.208-0.122-0.436-0.23-0.668-0.258c-1.316-0.201-2.593-0.093-3.85,0.314c-0.396,0.126-0.599,0.374-0.711,0.783
			c-0.349,1.183-0.653,2.398-1.142,3.524c-1.995,4.567-4.048,9.115-6.093,13.65c-0.426,0.952-0.925,1.87-1.411,2.793
			c-0.124,0.226-0.299,0.436-0.448,0.656c-0.121-0.144-0.173-0.239-0.173-0.343c0.004-0.587-0.068-1.186,0.052-1.75
			c0.335-1.707,0.723-3.403,1.127-5.099c0.338-1.392,0.73-2.776,1.108-4.162c0.129-0.471,0.129-0.903-0.209-1.296
			c-0.561-0.648-1.734-0.797-2.42-0.29c-0.08,0.053-0.166,0.083-0.309,0.171c0.025-0.219,0.045-0.361,0.059-0.491
			c0.151-1.066,0.176-2.121-0.117-3.171c-0.367-1.308-1.292-2.055-2.646-2.01c-0.629,0.013-1.288,0.115-1.873,0.354
			c-2.451,0.963-4.341,2.663-5.938,4.711c-0.149,0.188-0.349,0.36-0.551,0.469c-2.073,1.156-4.162,2.287-6.244,3.436
			c-0.784,0.419-1.558,0.851-2.316,1.27c-0.626-0.596-1.195-1.209-1.834-1.733c-1.955-1.592-3.948-3.154-5.92-4.732
			c-1.746-1.4-3.44-2.861-4.736-4.714c-0.963-1.379-1.583-2.889-1.641-4.587c-0.075-2.18,0.539-4.161,1.641-6.012
			c1.42-2.362,3.348-4.255,5.469-5.98c2.239-1.814,4.668-3.353,7.184-4.759c3.521-1.979,7.14-3.719,11.021-4.87
			c3.983-1.18,8.017-1.863,12.186-1.389c1.638,0.188,3.223,0.561,4.686,1.366c1.118,0.61,2.035,1.413,2.456,2.673
			c0.421,1.23,0.417,2.48,0.125,3.726c-0.596,2.542-1.99,4.635-3.739,6.502c-2.86,3.066-6.359,5.156-10.299,6.527
			c-2.277,0.801-4.615,1.297-7.016,1.5c-1.961,0.165-3.876-0.009-5.728-0.692c-1.23-0.449-2.303-1.143-3.164-2.145
			c-0.156-0.186-0.353-0.372-0.64-0.204c-0.279,0.159-0.329,0.428-0.239,0.701c0.161,0.45,0.306,0.92,0.556,1.314
			c0.613,1.012,1.506,1.741,2.5,2.376c1.895,1.205,4.019,1.611,6.214,1.705c3.337,0.139,6.6-0.352,9.803-1.251
			c4.589-1.281,8.574-3.541,11.764-7.101c2.664-2.958,4.561-6.309,4.979-10.346c0.196-1.984-0.02-3.914-0.939-5.711
			c-1.007-1.945-2.599-3.29-4.5-4.287c-2.774-1.459-5.762-2.028-8.852-2.194c-1.029,0-2.062,0-3.09,0
			c-3.741,0.183-7.363,0.968-10.877,2.246c-2.657,0.963-5.275,2.061-7.796,3.317c-5.52,2.767-10.658,6.062-14.877,10.627
			c-2.103,2.281-3.883,4.778-4.912,7.74c-0.296,0.867-0.478,1.788-0.696,2.68c-0.014,0.075,0.068,0.148-0.117,0.22
			c0,0.425,0,0.84,0,1.266c0.185,0.318,0.203,0.646,0.292,0.968c0.542,2.104,1.655,3.921,3.041,5.565
			c1.971,2.348,4.359,4.238,6.835,6.022c2.146,1.54,4.324,3.051,6.474,4.579c0.375,0.266,0.719,0.566,1.114,0.888
			c-0.343,0.189-0.635,0.352-0.93,0.502c-2.848,1.439-5.58,3.058-8.105,5.013c-1.512,1.188-2.986,2.444-4.021,4.078
			c-1.671,2.635-2.26,5.451-1.019,8.446c0.366,0.87,0.919,1.631,1.701,2.188c0.254,0.185,0.537,0.358,0.836,0.433
			c0.758,0.177,1.534,0.297,2.308,0.438c0.72,0,1.444,0,2.171,0c2.407-0.216,4.606-1.046,6.579-2.409
			c3.1-2.137,5.182-4.997,6.083-8.68c0.654-2.664,0.678-5.347-0.086-8.01c-0.071-0.24-0.162-0.49-0.259-0.722
			c-0.092-0.237-0.205-0.471-0.332-0.775c1.643-0.938,3.288-1.891,4.938-2.833c0.025,0.015,0.046,0.039,0.074,0.06
			c-0.088,0.296-0.185,0.583-0.267,0.883c-0.595,2.145-0.982,4.325-0.83,6.542c0.14,2.376,0.805,4.595,2.192,6.575
			c1.118,1.606,3.794,1.658,4.988,0.055c0.411-0.573,0.826-1.166,1.14-1.803c0.805-1.661,1.549-3.356,2.316-5.039
			c0.026-0.07,0.063-0.141,0.13-0.303c-0.045,0.795-0.117,1.493-0.146,2.186c-0.044,1.098,0.017,2.187,0.388,3.223
			c0.323,0.896,0.861,1.554,1.887,1.67c0.69,0.078,1.249-0.236,1.76-0.646c0.803-0.634,1.449-1.408,1.936-2.297
			c1.362-2.504,2.759-4.995,4.001-7.573c1.341-2.776,2.507-5.633,3.756-8.46c0.065-0.159,0.127-0.311,0.206-0.508
			c0.291,1.157,0.496,2.29,0.878,3.355c0.438,1.238,0.976,2.457,1.57,3.631c0.272,0.56,0.237,0.922-0.142,1.389
			c-1.623,1.95-3.215,3.93-4.804,5.904c-0.355,0.439-0.705,0.881-0.995,1.354c-0.182,0.293-0.301,0.637-0.353,0.979
			c-0.088,0.647,0.307,1.27,1,1.418c0.624,0.128,1.297,0.191,1.937,0.139c2.225-0.163,4.245-0.947,6.037-2.27
			c2.31-1.709,3.061-4.052,2.494-6.821c-0.155-0.749-0.422-1.481-0.681-2.21c-0.117-0.323-0.117-0.554,0.09-0.857
			c1.847-2.642,3.431-5.445,4.893-8.307c0.063-0.114,0.123-0.232,0.217-0.351c0.477,2.484,1.198,4.87,2.485,7.035
			c-0.664,0.628-1.313,1.204-1.89,1.835c-1.295,1.384-2.414,2.903-3.001,4.735c-0.25,0.794-0.438,1.595-0.331,2.449
			c0.176,1.315,1.244,2.169,2.547,1.863c2.763-0.636,5.155-1.941,6.898-4.25c1.173-1.546,1.287-3.289,0.789-5.103
			c-0.142-0.498-0.291-0.986-0.466-1.552c0.682-0.216,1.348-0.459,2.043-0.619c3.568-0.818,7.107-0.674,10.546,0.61
			c2.013,0.755,3.638,2.02,4.604,4.006c1.178,2.427,0.526,4.724-1.768,6.265c-0.209,0.143-0.456,0.248-0.631,0.424
			c-0.108,0.111-0.176,0.332-0.141,0.481c0.006,0.099,0.237,0.198,0.373,0.198c0.759-0.002,1.363-0.398,1.953-0.805
			c1.464-1.013,2.429-2.38,2.655-4.174c0.009-0.05-0.065-0.1,0.124-0.147c0-0.396,0-0.796,0-1.2
			c-0.188-0.044-0.107-0.096-0.114-0.144L115.55,210.36z M45.596,215.213c-0.237,3.198-1.687,5.802-4.057,7.9
			c-1.339,1.178-2.858,2.021-4.647,2.32c-0.647,0.103-1.306,0.129-1.937-0.142c-0.892-0.381-1.092-1.17-1.114-2.019
			c-0.02-1.344,0.441-2.563,1.093-3.723c0.84-1.511,2.082-2.662,3.403-3.736c2.078-1.697,4.34-3.133,6.654-4.487
			c0.04-0.019,0.08-0.026,0.176-0.068C45.52,212.58,45.695,213.884,45.596,215.213L45.596,215.213z M63.667,201.297
			c-0.172,1.021-0.382,2.045-0.681,3.034c-1.036,3.429-2.354,6.759-3.787,10.031c-0.272,0.61-0.646,1.161-0.992,1.734
			c-0.048,0.092-0.124,0.167-0.2,0.245c-0.416,0.406-0.81,0.388-1.023-0.153c-0.24-0.623-0.39-1.29-0.527-1.946
			c-0.08-0.442-0.054-0.912-0.08-1.361c0.026-3.228,1.005-6.165,2.679-8.884c0.692-1.135,1.441-2.201,2.582-2.918
			c0.355-0.223,0.74-0.392,1.145-0.514c0.603-0.166,0.983,0.116,0.884,0.724V201.297z M75.989,216.995
			c1.479-1.723,2.951-3.44,4.433-5.163C80.599,213.746,77.34,217.579,75.989,216.995z M90.143,213.521
			c-0.324,0.181-0.66,0.314-0.981,0.471c-0.289,0.162-0.4,0-0.4-0.253c-0.002-0.165,0.018-0.354,0.066-0.517
			c0.595-2.111,1.704-3.909,3.338-5.37c0.026-0.024,0.061-0.033,0.12-0.063c0.776,2.176-0.126,4.576-2.157,5.731H90.143z"/>
	</g>
</g>
</svg>
