<!-- Generated by IcoMoon.io -->
<svg version="1.1" xmlns="http://www.w3.org/2000/svg" width="1792" height="1792" viewBox="0 0 1792 1792">
<title></title>
<g id="icomoon-ignore">
</g>
<path d="M963.851 1138.744h-63.373c-15.465 0-28.002-12.535-28.002-28.002v0h-56.094c0.038 46.445 37.66 84.086 84.087 84.173h63.383c0.182 0.002 0.381 0.004 0.584 0.004 42.506 0 76.96-34.458 76.96-76.96 0-34.018-22.068-62.879-52.686-73.049l-0.544-0.158-101.822-33.635c-8.278-2.887-14.119-10.645-14.119-19.75 0-11.442 9.21-20.751 20.633-20.874h63.389c15.496 0.039 28.042 12.589 28.075 28.070v0.005h56.094c-0.039-46.47-37.693-84.121-84.168-84.173h-63.378c-0.152-0.002-0.34-0.002-0.508-0.002-42.506 0-76.96 34.458-76.96 76.96 0 34.016 22.067 62.879 52.684 73.049l0.544 0.158 101.523 33.859c8.355 2.817 14.278 10.587 14.278 19.75 0 11.49-9.31 20.8-20.8 20.8-0.035 0-0.051 0-0.086 0h0.005z"></path>
<path d="M1377.259 1194.918h140.254v-56.171h-112.175v-224.348h-56.094v252.441c0 0 0 0 0 0 0 15.484 12.525 28.042 27.997 28.075h0.005z"></path>
<path d="M1111.612 1194.918h138.236c1.118 0 2.184 0 3.227 0l20.055 20.055 39.643-39.716-19.982-19.982c0-1.045 0-2.109 0-3.227v-194.537c-0.039-23.784-19.309-43.060-43.088-43.094h-138.092c-23.784 0.039-43.061 19.309-43.094 43.088v194.318c0.039 23.784 19.31 43.060 43.088 43.094h0.005zM1124.606 970.494h112.248v128.779l-8.265-8.19-39.643 39.643 8.19 8.19h-72.532z"></path>
<path d="M1614.681 774.221h-335.851c4.674-11.281 7.43-24.374 7.507-38.112v-320.122c0-145.437-296.732-223.976-575.985-223.976s-576.133 78.614-576.133 223.976v320.014c0.072 11.459 1.988 22.446 5.472 32.716l-0.212-0.732h-5.262v288.019c0.081 11.459 1.995 22.446 5.472 32.72l-0.212-0.732h-5.262v288.018c0 145.511 296.805 223.976 576.060 223.976s575.984-78.465 575.984-223.976v-41.002h328.428c0 0 0 0 0 0 23.772 0 43.061-19.254 43.094-43.013v-474.764c-0.039-23.765-19.322-43.019-43.094-43.019 0 0 0 0 0 0v0zM691.129 774.221c0 0 0 0 0 0-23.772 0-43.060 19.254-43.094 43.013v77.576c-266.473-10.971-449.762-90.554-449.762-158.734v-212.94c102.268 76.505 311.675 116.987 512.005 116.987s409.672-40.464 512.005-116.988v212.94c0 12.162-6.23 24.923-18.468 38.152zM198.273 842.909c91.597 68.782 269.253 108.649 449.762 115.923v255.971c-266.473-10.971-449.762-90.554-449.762-158.734zM710.29 256.049c317.235 0 512.005 93.184 512.005 160.008s-194.768 160.008-512.005 160.008-512.005-93.184-512.005-160.081 194.768-159.933 512.005-159.933zM1222.284 1376.099c0 66.824-194.768 160.008-512.004 160.008s-512.005-93.184-512.005-160.008v-213.171c91.597 68.782 269.253 108.649 449.762 115.923v13.207c0.038 23.765 19.322 43.018 43.094 43.018 0 0 0 0 0 0h531.156zM1601.625 1279.015h-897.416v-448.711h897.416z"></path>
</svg>
